EncodeSans-Light.ufo
<glyph name="exclam" format="2">
  <advance width="477.3434343434344"/>
  <unicode hex="0021"/>
  <outline>
    <contour>
      <point x="199.73232323232324" y="347.6363636363637" type="line"/>
      <point x="278.3434343434344" y="347.6363636363637" type="line"/>
      <point x="302.50000000000006" y="905.5252525252525" type="line"/>
      <point x="302.50000000000006" y="1480.0" type="line"/>
      <point x="174.84343434343432" y="1480.0" type="line"/>
      <point x="174.84343434343432" y="905.5252525252525" type="line"/>
    </contour>
    <contour>
      <point x="238.6717171717172" y="-11.464646464646467" type="curve" smooth="yes"/>
      <point x="293.2727272727273" y="-11.464646464646467"/>
      <point x="330.8434343434344" y="22.934343434343447"/>
      <point x="330.8434343434344" y="76.02020202020205" type="curve" smooth="yes"/>
      <point x="330.8434343434344" y="129.10606060606065"/>
      <point x="293.8585858585859" y="165.21212121212127"/>
      <point x="238.6717171717172" y="165.21212121212127" type="curve" smooth="yes"/>
      <point x="183.48484848484847" y="165.21212121212127"/>
      <point x="146.49999999999997" y="129.69191919191923"/>
      <point x="146.49999999999997" y="76.02020202020205" type="curve" smooth="yes"/>
      <point x="146.49999999999997" y="22.34848484848486"/>
      <point x="184.07070707070707" y="-11.464646464646467"/>
    </contour>
  </outline>
</glyph>
<glyph name="numbersign" format="2">
  <advance width="1132.2222222222222"/>
  <unicode hex="0023"/>
  <outline>
    <contour>
      <point x="621.3939393939394" y="0.0" type="line"/>
      <point x="724.7424242424242" y="0.0" type="line"/>
      <point x="878.7424242424242" y="1480.0" type="line"/>
      <point x="775.3939393939394" y="1480.0" type="line"/>
    </contour>
    <contour>
      <point x="100.0" y="472.9090909090909" type="line"/>
      <point x="1032.2222222222222" y="472.9090909090909" type="line"/>
      <point x="1032.2222222222222" y="575.5252525252525" type="line"/>
      <point x="100.0" y="575.5252525252525" type="line"/>
    </contour>
    <contour>
      <point x="253.47979797979798" y="0.0" type="line"/>
      <point x="356.82828282828285" y="0.0" type="line"/>
      <point x="510.82828282828285" y="1480.0" type="line"/>
      <point x="407.479797979798" y="1480.0" type="line"/>
    </contour>
    <contour>
      <point x="100.0" y="904.4747474747475" type="line"/>
      <point x="1032.2222222222222" y="904.4747474747475" type="line"/>
      <point x="1032.2222222222222" y="1007.0909090909091" type="line"/>
      <point x="100.0" y="1007.0909090909091" type="line"/>
    </contour>
  </outline>
</glyph>
<glyph name="dollar" format="2">
  <advance width="1039.878787878788"/>
  <unicode hex="0024"/>
  <outline>
    <contour>
      <point x="450.01010101010104" y="-18.292929292929294" type="curve" smooth="yes"/>
      <point x="776.6565656565657" y="-18.292929292929294"/>
      <point x="961.1767676767677" y="129.2979797979798"/>
      <point x="961.1767676767677" y="391.8636363636364" type="curve" smooth="yes"/>
      <point x="961.1767676767677" y="603.1111111111111"/>
      <point x="838.6868686868687" y="725.040404040404"/>
      <point x="568.2929292929293" y="793.6262626262627" type="curve" smooth="yes"/>
      <point x="496.04040404040404" y="812.2626262626263" type="line" smooth="yes"/>
      <point x="281.7626262626263" y="868.7222222222223"/>
      <point x="203.13636363636368" y="945.7878787878788"/>
      <point x="203.13636363636368" y="1105.6010101010102" type="curve" smooth="yes"/>
      <point x="203.13636363636368" y="1287.6565656565656"/>
      <point x="324.71212121212125" y="1391.4292929292928"/>
      <point x="587.1717171717172" y="1391.4292929292928" type="curve" smooth="yes"/>
      <point x="691.1717171717172" y="1391.4292929292928"/>
      <point x="796.5656565656566" y="1377.1363636363635"/>
      <point x="899.368686868687" y="1345.4545454545455" type="curve"/>
      <point x="899.368686868687" y="1454.3181818181818" type="line"/>
      <point x="807.7828282828283" y="1483.1464646464647"/>
      <point x="692.7323232323233" y="1498.2929292929293"/>
      <point x="586.0454545454546" y="1498.2929292929293" type="curve" smooth="yes"/>
      <point x="249.489898989899" y="1498.2929292929293"/>
      <point x="78.7020202020202" y="1346.0454545454545"/>
      <point x="78.7020202020202" y="1098.8181818181818" type="curve" smooth="yes"/>
      <point x="78.7020202020202" y="888.4242424242424"/>
      <point x="201.48484848484847" y="765.4949494949494"/>
      <point x="451.2676767676768" y="701.3484848484849" type="curve" smooth="yes"/>
      <point x="523.5202020202021" y="682.7121212121211" type="line" smooth="yes"/>
      <point x="747.9949494949494" y="623.8131313131313"/>
      <point x="836.7424242424242" y="549.7222222222222"/>
      <point x="836.7424242424242" y="384.90909090909093" type="curve" smooth="yes"/>
      <point x="836.7424242424242" y="190.4646464646465"/>
      <point x="711.070707070707" y="88.57070707070713"/>
      <point x="452.2525252525253" y="88.57070707070713" type="curve" smooth="yes"/>
      <point x="346.6161616161616" y="88.57070707070713"/>
      <point x="222.94949494949495" y="106.74242424242429"/>
      <point x="98.8030303030303" y="148.1565656565657" type="curve"/>
      <point x="98.8030303030303" y="39.292929292929294" type="line"/>
      <point x="211.85353535353534" y="0.4393939393939399"/>
      <point x="340.12626262626264" y="-18.292929292929294"/>
    </contour>
    <contour>
      <point x="464.18686868686865" y="-240.0" type="line"/>
      <point x="577.39898989899" y="-240.0" type="line"/>
      <point x="577.39898989899" y="20.252525252525267" type="line"/>
      <point x="464.18686868686865" y="11.717171717171734" type="line"/>
    </contour>
    <contour>
      <point x="464.18686868686865" y="1471.2121212121212" type="line"/>
      <point x="577.39898989899" y="1471.2121212121212" type="line"/>
      <point x="577.39898989899" y="1720.0" type="line"/>
      <point x="464.18686868686865" y="1720.0" type="line"/>
    </contour>
  </outline>
</glyph>
<glyph name="ampersand" format="2">
  <advance width="1469.1515151515152"/>
  <unicode hex="0026"/>
  <outline>
    <contour>
      <point x="1405.888888888889" y="-20.0" type="line"/>
      <point x="1469.1515151515152" y="70.52020202020208" type="line"/>
      <point x="693.0808080808081" y="678.3939393939395" type="line" smooth="yes"/>
      <point x="480.66161616161617" y="849.010101010101"/>
      <point x="429.0303030303031" y="942.7828282828283"/>
      <point x="429.0303030303031" y="1083.1363636363635" type="curve" smooth="yes"/>
      <point x="429.0303030303031" y="1281.510101010101"/>
      <point x="543.0959595959596" y="1391.4292929292928"/>
      <point x="810.7727272727273" y="1391.4292929292928" type="curve" smooth="yes"/>
      <point x="894.040404040404" y="1391.4292929292928"/>
      <point x="970.969696969697" y="1382.1363636363635"/>
      <point x="1046.6515151515152" y="1361.4545454545455" type="curve"/>
      <point x="1046.6515151515152" y="1470.3181818181818" type="line"/>
      <point x="978.3080808080808" y="1487.5858585858587"/>
      <point x="897.989898989899" y="1498.2929292929293"/>
      <point x="808.2070707070707" y="1498.2929292929293" type="curve" smooth="yes"/>
      <point x="469.82323232323233" y="1498.2929292929293"/>
      <point x="304.5959595959596" y="1347.020202020202"/>
      <point x="304.5959595959596" y="1083.7474747474748" type="curve" smooth="yes"/>
      <point x="304.5959595959596" y="909.7020202020202"/>
      <point x="379.98484848484844" y="783.4797979797979"/>
      <point x="629.8181818181818" y="587.8737373737374" type="curve" smooth="yes"/>
    </contour>
    <contour>
      <point x="674.2727272727273" y="-18.0" type="curve" smooth="yes"/>
      <point x="1026.969696969697" y="-18.0"/>
      <point x="1233.6868686868688" y="163.34848484848487"/>
      <point x="1233.6868686868688" y="508.09595959595964" type="curve" smooth="yes"/>
      <point x="1233.6868686868688" y="596.3131313131313"/>
      <point x="1220.9797979797981" y="692.8484848484849"/>
      <point x="1193.4444444444446" y="781.3838383838385" type="curve"/>
      <point x="1084.4848484848485" y="781.3838383838385" type="line"/>
      <point x="1112.8737373737374" y="692.8484848484849"/>
      <point x="1128.2878787878788" y="594.3131313131313"/>
      <point x="1128.2878787878788" y="507.51010101010104" type="curve" smooth="yes"/>
      <point x="1128.2878787878788" y="212.09595959595964"/>
      <point x="962.070707070707" y="81.97979797979802"/>
      <point x="683.4494949494949" y="81.97979797979802" type="curve" smooth="yes"/>
      <point x="399.0050505050506" y="81.97979797979802"/>
      <point x="270.30303030303037" y="216.53030303030306"/>
      <point x="270.30303030303037" y="414.73737373737373" type="curve" smooth="yes"/>
      <point x="270.30303030303037" y="563.5808080808081"/>
      <point x="341.0050505050506" y="673.9141414141413"/>
      <point x="486.4545454545455" y="743.8131313131313" type="curve"/>
      <point x="421.6515151515151" y="815.020202020202" type="line"/>
      <point x="246.72727272727272" y="735.7323232323232"/>
      <point x="146.16161616161614" y="591.7575757575758"/>
      <point x="146.16161616161614" y="402.5858585858586" type="curve" smooth="yes"/>
      <point x="146.16161616161614" y="153.12121212121212"/>
      <point x="323.72727272727275" y="-18.0"/>
    </contour>
  </outline>
</glyph>
<glyph name="quotesingle" format="2">
  <advance width="404.74747474747477"/>
  <unicode hex="0027"/>
  <outline>
    <contour>
      <point x="166.26262626262624" y="932.8585858585858" type="line"/>
      <point x="238.48484848484853" y="932.8585858585858" type="line"/>
      <point x="266.83333333333337" y="1616.0" type="line"/>
      <point x="137.9141414141414" y="1616.0" type="line"/>
    </contour>
  </outline>
</glyph>
<glyph name="parenleft" format="2">
  <advance width="644.7474747474748"/>
  <unicode hex="0028"/>
  <outline>
    <contour>
      <point x="472.1161616161616" y="-440.0" type="curve"/>
      <point x="604.1363636363637" y="-440.0" type="line"/>
      <point x="357.9898989898991" y="-129.61111111111111"/>
      <point x="255.98989898989905" y="213.16666666666666"/>
      <point x="255.98989898989905" y="588.0" type="curve" smooth="yes"/>
      <point x="255.98989898989905" y="962.8333333333334"/>
      <point x="357.9898989898991" y="1305.611111111111"/>
      <point x="604.1363636363637" y="1616.0" type="curve"/>
      <point x="472.1161616161616" y="1616.0" type="line"/>
      <point x="233.94444444444443" y="1319.1262626262626"/>
      <point x="130.8232323232323" y="968.540404040404"/>
      <point x="130.8232323232323" y="588.0" type="curve" smooth="yes"/>
      <point x="130.8232323232323" y="207.45959595959596"/>
      <point x="233.94444444444443" y="-143.12626262626264"/>
    </contour>
  </outline>
</glyph>
<glyph name="parenright" format="2">
  <advance width="644.7474747474748"/>
  <unicode hex="0029"/>
  <outline>
    <contour>
      <point x="40.61111111111107" y="-440.0" type="curve"/>
      <point x="172.63131313131316" y="-440.0" type="line"/>
      <point x="410.80303030303037" y="-143.12626262626264"/>
      <point x="513.9242424242425" y="207.45959595959596"/>
      <point x="513.9242424242425" y="588.0" type="curve" smooth="yes"/>
      <point x="513.9242424242425" y="968.540404040404"/>
      <point x="410.80303030303037" y="1319.1262626262626"/>
      <point x="172.63131313131316" y="1616.0" type="curve"/>
      <point x="40.61111111111107" y="1616.0" type="line"/>
      <point x="286.75757575757575" y="1305.611111111111"/>
      <point x="388.75757575757575" y="962.8333333333334"/>
      <point x="388.75757575757575" y="588.0" type="curve" smooth="yes"/>
      <point x="388.75757575757575" y="213.16666666666666"/>
      <point x="286.75757575757575" y="-129.61111111111111"/>
    </contour>
  </outline>
</glyph>
<glyph name="asterisk" format="2">
  <advance width="896.7070707070708"/>
  <unicode hex="002A"/>
  <outline>
    <contour>
      <point x="493.6868686868687" y="1193.5" type="line"/>
      <point x="689.4898989898991" y="1236.8131313131312" type="line"/>
      <point x="866.7070707070708" y="1293.9343434343434" type="line"/>
      <point x="837.1868686868687" y="1383.3737373737374" type="line"/>
      <point x="661.6767676767677" y="1326.1060606060605" type="line"/>
      <point x="475.63131313131316" y="1244.8838383838383" type="line"/>
      <point x="495.73232323232327" y="1446.3939393939395" type="line"/>
      <point x="495.73232323232327" y="1616.0" type="line"/>
      <point x="400.97474747474746" y="1616.0" type="line"/>
      <point x="400.97474747474746" y="1446.3939393939395" type="line"/>
      <point x="421.07575757575756" y="1244.8838383838383" type="line"/>
      <point x="235.03030303030303" y="1326.1060606060605" type="line"/>
      <point x="59.520202020202035" y="1383.3737373737374" type="line"/>
      <point x="30.0" y="1293.9343434343434" type="line"/>
      <point x="207.2171717171717" y="1236.8131313131312" type="line"/>
      <point x="403.020202020202" y="1193.5" type="line"/>
      <point x="269.55555555555554" y="1042.479797979798" type="line"/>
      <point x="165.63131313131314" y="901.1414141414141" type="line"/>
      <point x="242.53030303030306" y="845.1262626262626" type="line"/>
      <point x="346.4545454545455" y="986.3181818181818" type="line"/>
      <point x="448.3535353535354" y="1162.3686868686868" type="line"/>
      <point x="550.2525252525253" y="986.3181818181818" type="line"/>
      <point x="654.1767676767677" y="845.1262626262626" type="line"/>
      <point x="731.0757575757576" y="901.1414141414141" type="line"/>
      <point x="627.1515151515152" y="1042.479797979798" type="line"/>
    </contour>
  </outline>
</glyph>
<glyph name="plus" format="2">
  <advance width="1069.909090909091"/>
  <unicode hex="002B"/>
  <outline>
    <contour>
      <point x="481.47474747474746" y="365.6969696969697" type="line"/>
      <point x="588.4343434343434" y="365.6969696969697" type="line"/>
      <point x="588.4343434343434" y="709.2525252525252" type="line"/>
      <point x="913.3080808080808" y="709.2525252525252" type="line"/>
      <point x="913.3080808080808" y="810.7474747474748" type="line"/>
      <point x="588.4343434343434" y="810.7474747474748" type="line"/>
      <point x="588.4343434343434" y="1154.3030303030303" type="line"/>
      <point x="481.47474747474746" y="1154.3030303030303" type="line"/>
      <point x="481.47474747474746" y="810.7474747474748" type="line"/>
      <point x="156.60101010101008" y="810.7474747474748" type="line"/>
      <point x="156.60101010101008" y="709.2525252525252" type="line"/>
      <point x="481.47474747474746" y="709.2525252525252" type="line"/>
    </contour>
  </outline>
</glyph>
<glyph name="hyphen" format="2">
  <advance width="821.1414141414142"/>
  <unicode hex="002D"/>
  <outline>
    <contour>
      <point x="156.60101010101008" y="509.10606060606057" type="line"/>
      <point x="664.5404040404042" y="509.10606060606057" type="line"/>
      <point x="664.5404040404042" y="613.8232323232323" type="line"/>
      <point x="156.60101010101008" y="613.8232323232323" type="line"/>
    </contour>
  </outline>
</glyph>
<glyph name="slash" format="2">
  <advance width="573.5353535353536"/>
  <unicode hex="002F"/>
  <outline>
    <contour>
      <point x="0.0" y="-240.0" type="line"/>
      <point x="120.11616161616169" y="-240.0" type="line"/>
      <point x="573.5353535353536" y="1616.0" type="line"/>
      <point x="453.4191919191919" y="1616.0" type="line"/>
    </contour>
  </outline>
</glyph>
<glyph name="zero" format="2">
  <advance width="1227.1464646464647"/>
  <unicode hex="0030"/>
  <note>
600
</note>
  <outline>
    <contour>
      <point x="613.5" y="-18.292929292929294" type="curve" smooth="yes"/>
      <point x="913.5858585858587" y="-18.292929292929294"/>
      <point x="1106.3232323232323" y="184.73737373737376"/>
      <point x="1106.3232323232323" y="740.0" type="curve" smooth="yes"/>
      <point x="1106.3232323232323" y="1295.2626262626263"/>
      <point x="917.0" y="1498.2929292929293"/>
      <point x="613.5" y="1498.2929292929293" type="curve" smooth="yes"/>
      <point x="310.0" y="1498.2929292929293"/>
      <point x="120.82323232323232" y="1295.2626262626263"/>
      <point x="120.82323232323232" y="740.0" type="curve" smooth="yes"/>
      <point x="120.82323232323232" y="184.73737373737376"/>
      <point x="313.4141414141414" y="-18.292929292929294"/>
    </contour>
    <contour>
      <point x="613.6464646464647" y="89.449494949495" type="curve" smooth="yes"/>
      <point x="389.7575757575758" y="89.449494949495"/>
      <point x="244.37878787878793" y="238.51515151515156"/>
      <point x="244.37878787878793" y="743.4141414141415" type="curve" smooth="yes"/>
      <point x="244.37878787878793" y="1241.4848484848485"/>
      <point x="390.0505050505051" y="1390.550505050505"/>
      <point x="613.6464646464647" y="1390.550505050505" type="curve" smooth="yes"/>
      <point x="837.0959595959596" y="1390.550505050505"/>
      <point x="982.7676767676768" y="1241.4848484848485"/>
      <point x="982.7676767676768" y="736.5858585858585" type="curve" smooth="yes"/>
      <point x="982.7676767676768" y="238.51515151515156"/>
      <point x="837.0959595959596" y="89.449494949495"/>
    </contour>
  </outline>
</glyph>
<glyph name="one" format="2">
  <advance width="705.9545454545455"/>
  <unicode hex="0031"/>
  <outline>
    <contour>
      <point x="396.2121212121212" y="0.0" type="line"/>
      <point x="517.8181818181819" y="0.0" type="line"/>
      <point x="517.8181818181819" y="1484.2929292929293" type="line"/>
      <point x="440.95959595959596" y="1484.2929292929293" type="line"/>
      <point x="23.87878787878788" y="1180.8030303030303" type="line"/>
      <point x="23.87878787878788" y="1056.4949494949494" type="line"/>
      <point x="440.95959595959596" y="1358.2777777777778" type="line"/>
      <point x="396.2121212121212" y="1378.858585858586" type="line"/>
    </contour>
  </outline>
</glyph>
<glyph name="two" format="2">
  <advance width="964.7070707070707"/>
  <unicode hex="0032"/>
  <outline>
    <contour>
      <point x="63.04545454545454" y="0.0" type="line"/>
      <point x="898.2222222222223" y="0.0" type="line"/>
      <point x="898.2222222222223" y="106.62121212121218" type="line"/>
      <point x="186.2424242424243" y="106.62121212121218" type="line"/>
      <point x="200.63131313131322" y="70.4646464646465" type="line"/>
      <point x="588.39898989899" y="590.4141414141415" type="line" smooth="yes"/>
      <point x="758.3232323232323" y="815.6262626262626"/>
      <point x="815.2979797979799" y="951.9444444444445"/>
      <point x="816.1515151515152" y="1112.1616161616162" type="curve" smooth="yes"/>
      <point x="817.8585858585859" y="1380.7777777777778"/>
      <point x="655.2424242424242" y="1498.2929292929293"/>
      <point x="373.12626262626264" y="1498.2929292929293" type="curve" smooth="yes"/>
      <point x="253.24747474747477" y="1498.2929292929293"/>
      <point x="130.92424242424244" y="1476.7070707070707"/>
      <point x="45.752525252525245" y="1441.5858585858587" type="curve"/>
      <point x="45.752525252525245" y="1332.7222222222222" type="line"/>
      <point x="143.99494949494948" y="1371.6969696969697"/>
      <point x="249.65656565656565" y="1391.4292929292928"/>
      <point x="365.9494949494949" y="1391.4292929292928" type="curve" smooth="yes"/>
      <point x="582.3585858585859" y="1391.4292929292928"/>
      <point x="693.8636363636364" y="1308.70202020202"/>
      <point x="693.8636363636364" y="1104.010101010101" type="curve" smooth="yes"/>
      <point x="693.8636363636364" y="971.3838383838383"/>
      <point x="639.2070707070707" y="844.560606060606"/>
      <point x="490.2121212121212" y="645.2525252525253" type="curve" smooth="yes"/>
      <point x="63.04545454545454" y="67.97474747474752" type="line"/>
    </contour>
  </outline>
</glyph>
<glyph name="three" format="2">
  <advance width="993.6060606060606"/>
  <unicode hex="0033"/>
  <outline>
    <contour>
      <point x="404.2979797979798" y="-18.292929292929294" type="curve" smooth="yes"/>
      <point x="743.7020202020202" y="-18.292929292929294"/>
      <point x="919.2676767676768" y="134.90404040404042"/>
      <point x="919.2676767676768" y="396.80808080808083" type="curve" smooth="yes"/>
      <point x="919.2676767676768" y="612.8787878787879"/>
      <point x="785.6363636363637" y="748.6565656565657"/>
      <point x="537.4242424242425" y="779.9494949494949" type="curve"/>
      <point x="536.5707070707072" y="756.0" type="line"/>
      <point x="743.9545454545455" y="798.1212121212121"/>
      <point x="870.4141414141415" y="934.2171717171717"/>
      <point x="870.4141414141415" y="1128.2626262626263" type="curve" smooth="yes"/>
      <point x="870.4141414141415" y="1362.949494949495"/>
      <point x="711.5555555555555" y="1498.2929292929293"/>
      <point x="420.54040404040404" y="1498.2929292929293" type="curve" smooth="yes"/>
      <point x="304.9040404040404" y="1498.2929292929293"/>
      <point x="184.02020202020202" y="1478.7070707070707"/>
      <point x="91.14141414141413" y="1444.1464646464647" type="curve"/>
      <point x="91.14141414141413" y="1339.6767676767677" type="line"/>
      <point x="195.96969696969697" y="1377.9444444444443"/>
      <point x="303.07070707070704" y="1395.530303030303"/>
      <point x="413.2171717171717" y="1395.530303030303" type="curve" smooth="yes"/>
      <point x="634.2575757575758" y="1395.530303030303"/>
      <point x="750.1767676767677" y="1299.8787878787878"/>
      <point x="750.1767676767677" y="1122.2575757575758" type="curve" smooth="yes"/>
      <point x="750.1767676767677" y="922.6161616161617"/>
      <point x="603.8484848484849" y="811.8686868686868"/>
      <point x="325.27777777777777" y="811.8686868686868" type="curve" smooth="yes"/>
      <point x="246.6969696969697" y="811.8686868686868" type="line"/>
      <point x="246.6969696969697" y="708.3737373737373" type="line"/>
      <point x="413.7323232323232" y="708.3737373737373" type="line" smooth="yes"/>
      <point x="678.8686868686868" y="708.3737373737373"/>
      <point x="800.0555555555555" y="593.5050505050505"/>
      <point x="800.0555555555555" y="400.90909090909093" type="curve" smooth="yes"/>
      <point x="800.0555555555555" y="194.51010101010104"/>
      <point x="666.040404040404" y="84.46969696969703"/>
      <point x="402.3686868686869" y="84.46969696969703" type="curve" smooth="yes"/>
      <point x="292.02525252525254" y="84.46969696969703"/>
      <point x="168.77777777777777" y="104.46969696969703"/>
      <point x="54.070707070707066" y="143.5656565656566" type="curve"/>
      <point x="54.070707070707066" y="39.09595959595959" type="line"/>
      <point x="161.41414141414143" y="1.4141414141414133"/>
      <point x="283.75757575757575" y="-18.292929292929294"/>
    </contour>
  </outline>
</glyph>
<glyph name="four" format="2">
  <advance width="1158.1717171717173"/>
  <unicode hex="0034"/>
  <outline>
    <contour>
      <point x="50.48484848484848" y="367.4494949494949" type="line"/>
      <point x="1114.9545454545455" y="367.4494949494949" type="line"/>
      <point x="1114.9545454545455" y="470.40909090909093" type="line"/>
      <point x="155.20707070707076" y="470.40909090909093" type="line"/>
      <point x="175.3080808080809" y="434.3030303030303" type="line"/>
      <point x="764.510101010101" y="1480.0" type="line"/>
      <point x="639.2979797979798" y="1480.0" type="line"/>
      <point x="50.48484848484848" y="436.01010101010104" type="line"/>
    </contour>
    <contour>
      <point x="786.3838383838383" y="0.0" type="line"/>
      <point x="900.9595959595961" y="0.0" type="line"/>
      <point x="900.9595959595961" y="980.0" type="line"/>
      <point x="804.1919191919192" y="980.0" type="line"/>
      <point x="786.3838383838383" y="470.40909090909093" type="line"/>
    </contour>
  </outline>
</glyph>
<glyph name="five" format="2">
  <advance width="1003.3383838383838"/>
  <unicode hex="0035"/>
  <outline>
    <contour>
      <point x="431.2979797979798" y="-18.292929292929294" type="curve" smooth="yes"/>
      <point x="767.3838383838385" y="-18.292929292929294"/>
      <point x="944.9747474747476" y="132.34343434343435"/>
      <point x="945.1212121212121" y="412.6161616161616" type="curve" smooth="yes"/>
      <point x="945.2676767676768" y="680.570707070707"/>
      <point x="772.510101010101" y="817.3535353535353"/>
      <point x="361.5505050505051" y="841.6464646464647" type="curve" smooth="yes"/>
      <point x="175.96464646464648" y="852.5" type="line"/>
      <point x="256.81818181818187" y="792.2929292929293" type="line"/>
      <point x="300.50000000000006" y="1425.3535353535353" type="line"/>
      <point x="243.3838383838384" y="1377.1868686868686" type="line"/>
      <point x="883.5606060606061" y="1377.1868686868686" type="line"/>
      <point x="883.5606060606061" y="1480.0" type="line"/>
      <point x="186.87373737373736" y="1480.0" type="line"/>
      <point x="137.43434343434342" y="750.469696969697" type="line"/>
      <point x="323.020202020202" y="739.6161616161615" type="line" smooth="yes"/>
      <point x="694.040404040404" y="717.9090909090909"/>
      <point x="825.7626262626262" y="619.2575757575758"/>
      <point x="825.7626262626262" y="410.2979797979798" type="curve" smooth="yes"/>
      <point x="825.7626262626262" y="194.24242424242428"/>
      <point x="694.3080808080808" y="85.0555555555556"/>
      <point x="430.22222222222223" y="85.0555555555556" type="curve" smooth="yes"/>
      <point x="315.6111111111111" y="85.0555555555556"/>
      <point x="192.36363636363637" y="106.0555555555556"/>
      <point x="80.21717171717171" y="144.44444444444449" type="curve"/>
      <point x="80.21717171717171" y="39.974747474747474" type="line"/>
      <point x="185.0" y="2.7070707070707067"/>
      <point x="309.0505050505051" y="-18.292929292929294"/>
    </contour>
  </outline>
</glyph>
<glyph name="six" format="2">
  <advance width="1125.8080808080808"/>
  <unicode hex="0036"/>
  <outline>
    <contour>
      <point x="631.1818181818182" y="-18.292929292929294" type="curve" smooth="yes"/>
      <point x="881.3181818181819" y="-18.292929292929294"/>
      <point x="1064.0050505050506" y="126.17676767676768"/>
      <point x="1064.0050505050506" y="413.2020202020202" type="curve" smooth="yes"/>
      <point x="1064.0050505050506" y="702.3282828282828"/>
      <point x="879.3181818181819" y="840.8888888888889"/>
      <point x="611.5858585858587" y="840.8888888888889" type="curve" smooth="yes"/>
      <point x="461.51515151515156" y="840.8888888888889"/>
      <point x="310.1515151515152" y="786.7929292929293"/>
      <point x="224.49494949494954" y="697.429292929293" type="curve"/>
      <point x="224.49494949494954" y="584.5505050505051" type="line"/>
      <point x="314.1262626262627" y="695.3737373737373"/>
      <point x="468.99494949494954" y="740.030303030303"/>
      <point x="595.1363636363636" y="740.030303030303" type="curve" smooth="yes"/>
      <point x="808.7070707070707" y="740.030303030303"/>
      <point x="947.2828282828283" y="639.6717171717172"/>
      <point x="947.2828282828283" y="408.8838383838384" type="curve" smooth="yes"/>
      <point x="947.2828282828283" y="180.24242424242428"/>
      <point x="811.8535353535353" y="82.85858585858591"/>
      <point x="632.3282828282828" y="82.85858585858591" type="curve" smooth="yes"/>
      <point x="403.19696969696975" y="82.85858585858591"/>
      <point x="252.79292929292936" y="224.40909090909093"/>
      <point x="252.79292929292936" y="681.7474747474747" type="curve" smooth="yes"/>
      <point x="252.79292929292936" y="719.2323232323232" type="line" smooth="yes"/>
      <point x="252.79292929292936" y="1197.6616161616162"/>
      <point x="419.44444444444446" y="1394.358585858586"/>
      <point x="738.3383838383838" y="1394.358585858586" type="curve" smooth="yes"/>
      <point x="824.0" y="1394.358585858586"/>
      <point x="919.7323232323233" y="1381.0656565656566"/>
      <point x="997.5151515151515" y="1349.2121212121212" type="curve"/>
      <point x="997.5151515151515" y="1454.8535353535353" type="line"/>
      <point x="920.7323232323233" y="1486.2929292929293"/>
      <point x="826.2424242424242" y="1498.2929292929293"/>
      <point x="735.8232323232323" y="1498.2929292929293" type="curve" smooth="yes"/>
      <point x="346.1010101010101" y="1498.2929292929293"/>
      <point x="131.53030303030303" y="1253.6060606060605"/>
      <point x="131.53030303030303" y="692.0" type="curve" smooth="yes"/>
      <point x="131.53030303030303" y="168.97979797979798"/>
      <point x="333.02525252525254" y="-18.292929292929294"/>
    </contour>
  </outline>
</glyph>
<glyph name="seven" format="2">
  <advance width="919.2424242424242"/>
  <unicode hex="0037"/>
  <outline>
    <contour>
      <point x="174.58080808080808" y="0.0" type="line"/>
      <point x="301.919191919192" y="0.0" type="line"/>
      <point x="860.5353535353536" y="1412.0252525252524" type="line"/>
      <point x="860.5353535353536" y="1480.0" type="line"/>
      <point x="11.853535353535353" y="1480.0" type="line"/>
      <point x="11.853535353535353" y="1373.3787878787878" type="line"/>
      <point x="772.3636363636364" y="1373.3787878787878" type="line"/>
      <point x="739.7373737373737" y="1413.732323232323" type="line"/>
    </contour>
  </outline>
</glyph>
<glyph name="eight" format="2">
  <advance width="1227.1464646464647"/>
  <unicode hex="0038"/>
  <outline>
    <contour>
      <point x="623.1818181818182" y="-18.292929292929294" type="curve" smooth="yes"/>
      <point x="942.9040404040404" y="-18.292929292929294"/>
      <point x="1122.7121212121212" y="138.15151515151516"/>
      <point x="1122.7121212121212" y="375.05555555555554" type="curve" smooth="yes"/>
      <point x="1122.7121212121212" y="586.9343434343434"/>
      <point x="998.0555555555557" y="709.010101010101"/>
      <point x="659.7070707070708" y="790.8434343434344" type="curve" smooth="yes"/>
      <point x="363.6616161616162" y="861.0151515151515"/>
      <point x="273.71717171717177" y="952.3737373737374"/>
      <point x="273.71717171717177" y="1122.9949494949494" type="curve" smooth="yes"/>
      <point x="273.71717171717177" y="1293.1262626262626"/>
      <point x="389.19696969696975" y="1399.3383838383838"/>
      <point x="611.7474747474748" y="1399.3383838383838" type="curve" smooth="yes"/>
      <point x="831.8080808080808" y="1399.3383838383838"/>
      <point x="960.6767676767677" y="1301.1262626262626"/>
      <point x="960.6767676767677" y="1118.409090909091" type="curve" smooth="yes"/>
      <point x="960.6767676767677" y="953.7626262626263"/>
      <point x="877.9747474747475" y="854.1818181818182"/>
      <point x="684.4242424242425" y="773.8181818181819" type="curve"/>
      <point x="778.7878787878789" y="732.1262626262626" type="line"/>
      <point x="971.4747474747476" y="808.5909090909091"/>
      <point x="1072.909090909091" y="943.5909090909091"/>
      <point x="1072.909090909091" y="1125.7070707070707" type="curve" smooth="yes"/>
      <point x="1072.909090909091" y="1356.2929292929293"/>
      <point x="900.1969696969697" y="1498.2929292929293"/>
      <point x="613.3333333333334" y="1498.2929292929293" type="curve" smooth="yes"/>
      <point x="323.3636363636364" y="1498.2929292929293"/>
      <point x="152.7979797979798" y="1351.1666666666667"/>
      <point x="152.7979797979798" y="1118.9444444444443" type="curve" smooth="yes"/>
      <point x="152.7979797979798" y="902.6767676767677"/>
      <point x="279.77272727272725" y="770.8181818181818"/>
      <point x="618.6818181818181" y="690.5959595959596" type="curve" smooth="yes"/>
      <point x="905.4090909090909" y="622.1818181818181"/>
      <point x="1002.6717171717171" y="540.3333333333334"/>
      <point x="1002.6717171717171" y="367.27272727272725" type="curve" smooth="yes"/>
      <point x="1002.6717171717171" y="184.2878787878788"/>
      <point x="867.9747474747475" y="80.6616161616162"/>
      <point x="624.1818181818182" y="80.6616161616162" type="curve" smooth="yes"/>
      <point x="359.19696969696975" y="80.6616161616162"/>
      <point x="223.32828282828288" y="186.8737373737374"/>
      <point x="223.32828282828288" y="380.5909090909091" type="curve" smooth="yes"/>
      <point x="223.32828282828288" y="547.9191919191919"/>
      <point x="329.10101010101016" y="679.4494949494949"/>
      <point x="523.4343434343434" y="734.9848484848485" type="curve"/>
      <point x="423.14141414141415" y="777.9444444444445" type="line"/>
      <point x="224.0909090909091" y="711.7979797979798"/>
      <point x="103.84848484848484" y="566.1414141414141"/>
      <point x="103.84848484848484" y="371.4141414141414" type="curve" smooth="yes"/>
      <point x="103.84848484848484" y="124.95454545454545"/>
      <point x="284.72727272727275" y="-18.292929292929294"/>
    </contour>
  </outline>
</glyph>
<glyph name="nine" format="2">
  <advance width="1125.8080808080808"/>
  <unicode hex="0039"/>
  <outline>
    <contour>
      <point x="494.62626262626264" y="1498.2929292929293" type="curve" smooth="yes"/>
      <point x="244.489898989899" y="1498.2929292929293"/>
      <point x="61.8030303030303" y="1353.8232323232323"/>
      <point x="61.8030303030303" y="1066.7979797979797" type="curve" smooth="yes"/>
      <point x="61.8030303030303" y="777.6717171717172"/>
      <point x="246.489898989899" y="639.1111111111111"/>
      <point x="514.2222222222222" y="639.1111111111111" type="curve" smooth="yes"/>
      <point x="664.2929292929293" y="639.1111111111111"/>
      <point x="815.6565656565657" y="693.2070707070707"/>
      <point x="901.3131313131313" y="782.570707070707" type="curve"/>
      <point x="901.3131313131313" y="895.4494949494949" type="line"/>
      <point x="811.6818181818181" y="784.6262626262627"/>
      <point x="656.8131313131313" y="739.969696969697"/>
      <point x="530.6717171717172" y="739.969696969697" type="curve" smooth="yes"/>
      <point x="317.10101010101016" y="739.969696969697"/>
      <point x="178.5252525252526" y="840.3282828282828"/>
      <point x="178.5252525252526" y="1071.1161616161617" type="curve" smooth="yes"/>
      <point x="178.5252525252526" y="1299.7575757575758"/>
      <point x="313.9545454545455" y="1397.141414141414"/>
      <point x="493.47979797979804" y="1397.141414141414" type="curve" smooth="yes"/>
      <point x="722.6111111111111" y="1397.141414141414"/>
      <point x="873.0151515151515" y="1255.590909090909"/>
      <point x="873.0151515151515" y="798.2525252525253" type="curve" smooth="yes"/>
      <point x="873.0151515151515" y="760.7676767676768" type="line" smooth="yes"/>
      <point x="873.0151515151515" y="282.3383838383839"/>
      <point x="706.3636363636364" y="85.6414141414142"/>
      <point x="387.469696969697" y="85.6414141414142" type="curve" smooth="yes"/>
      <point x="301.80808080808083" y="85.6414141414142"/>
      <point x="206.0757575757576" y="98.93434343434349"/>
      <point x="128.2929292929293" y="130.78787878787884" type="curve"/>
      <point x="128.2929292929293" y="25.146464646464647" type="line"/>
      <point x="205.07575757575756" y="-6.292929292929293"/>
      <point x="299.5656565656566" y="-18.292929292929294"/>
      <point x="389.9848484848485" y="-18.292929292929294" type="curve" smooth="yes"/>
      <point x="779.7070707070708" y="-18.292929292929294"/>
      <point x="994.2777777777778" y="226.3939393939394"/>
      <point x="994.2777777777778" y="788.0" type="curve" smooth="yes"/>
      <point x="994.2777777777778" y="1311.020202020202"/>
      <point x="792.7828282828283" y="1498.2929292929293"/>
    </contour>
  </outline>
</glyph>
<glyph name="colon" format="2">
  <advance width="437.3434343434344"/>
  <unicode hex="003A"/>
  <outline>
    <contour>
      <point x="218.6717171717172" y="-11.464646464646467" type="curve" smooth="yes"/>
      <point x="273.2727272727273" y="-11.464646464646467"/>
      <point x="310.8434343434344" y="23.52020202020203"/>
      <point x="310.8434343434344" y="77.92424242424246" type="curve" smooth="yes"/>
      <point x="310.8434343434344" y="132.32828282828288"/>
      <point x="273.8585858585859" y="169.02020202020208"/>
      <point x="218.6717171717172" y="169.02020202020208" type="curve" smooth="yes"/>
      <point x="163.48484848484847" y="169.02020202020208"/>
      <point x="126.49999999999999" y="132.91414141414145"/>
      <point x="126.49999999999999" y="77.92424242424246" type="curve" smooth="yes"/>
      <point x="126.49999999999999" y="22.934343434343447"/>
      <point x="164.07070707070707" y="-11.464646464646467"/>
    </contour>
    <contour>
      <point x="218.6717171717172" y="913.9090909090909" type="curve" smooth="yes"/>
      <point x="273.2727272727273" y="913.9090909090909"/>
      <point x="310.8434343434344" y="948.8939393939394"/>
      <point x="310.8434343434344" y="1003.2979797979798" type="curve" smooth="yes"/>
      <point x="310.8434343434344" y="1057.70202020202"/>
      <point x="273.8585858585859" y="1094.3939393939395"/>
      <point x="218.6717171717172" y="1094.3939393939395" type="curve" smooth="yes"/>
      <point x="163.48484848484847" y="1094.3939393939395"/>
      <point x="126.49999999999999" y="1058.2878787878788"/>
      <point x="126.49999999999999" y="1003.2979797979798" type="curve" smooth="yes"/>
      <point x="126.49999999999999" y="948.3080808080807"/>
      <point x="164.07070707070707" y="913.9090909090909"/>
    </contour>
  </outline>
</glyph>
<glyph name="equal" format="2">
  <advance width="1069.909090909091"/>
  <unicode hex="003D"/>
  <outline>
    <contour>
      <point x="156.60101010101008" y="899.7474747474747" type="line"/>
      <point x="913.3080808080808" y="899.7474747474747" type="line"/>
      <point x="913.3080808080808" y="1001.2424242424242" type="line"/>
      <point x="156.60101010101008" y="1001.2424242424242" type="line"/>
    </contour>
    <contour>
      <point x="156.60101010101008" y="518.7575757575758" type="line"/>
      <point x="913.3080808080808" y="518.7575757575758" type="line"/>
      <point x="913.3080808080808" y="620.2525252525253" type="line"/>
      <point x="156.60101010101008" y="620.2525252525253" type="line"/>
    </contour>
  </outline>
</glyph>
<glyph name="greater" format="2">
  <advance width="1069.909090909091"/>
  <unicode hex="003E"/>
  <outline>
    <contour>
      <point x="156.60101010101008" y="379.6363636363636" type="line"/>
      <point x="913.3080808080808" y="707.9292929292928" type="line"/>
      <point x="913.3080808080808" y="812.0707070707072" type="line"/>
      <point x="156.60101010101008" y="1140.3636363636365" type="line"/>
      <point x="156.60101010101008" y="1032.040404040404" type="line"/>
      <point x="825.4343434343434" y="747.1212121212121" type="line"/>
      <point x="825.4343434343434" y="773.6111111111111" type="line"/>
      <point x="156.60101010101008" y="487.95959595959596" type="line"/>
    </contour>
  </outline>
</glyph>
<glyph name="question" format="2">
  <advance width="881.8535353535353"/>
  <unicode hex="003F"/>
  <outline>
    <contour>
      <point x="357.07070707070704" y="333.97979797979804" type="line"/>
      <point x="435.68181818181824" y="333.97979797979804" type="line"/>
      <point x="448.46464646464653" y="683.5353535353536" type="line"/>
      <point x="721.8484848484849" y="790.3333333333334"/>
      <point x="820.6363636363637" y="916.6515151515151"/>
      <point x="820.6363636363637" y="1127.530303030303" type="curve" smooth="yes"/>
      <point x="820.6363636363637" y="1362.949494949495"/>
      <point x="661.7777777777778" y="1498.2929292929293"/>
      <point x="370.76262626262627" y="1498.2929292929293" type="curve" smooth="yes"/>
      <point x="255.12626262626264" y="1498.2929292929293"/>
      <point x="134.24242424242425" y="1478.7070707070707"/>
      <point x="41.36363636363636" y="1444.1464646464647" type="curve"/>
      <point x="41.36363636363636" y="1338.2121212121212" type="line"/>
      <point x="146.1919191919192" y="1376.479797979798"/>
      <point x="253.0" y="1394.0656565656566"/>
      <point x="362.2929292929293" y="1394.0656565656566" type="curve" smooth="yes"/>
      <point x="584.4797979797979" y="1394.0656565656566"/>
      <point x="700.3989898989898" y="1298.8535353535353"/>
      <point x="700.3989898989898" y="1121.9646464646464" type="curve" smooth="yes"/>
      <point x="700.3989898989898" y="947.5151515151515"/>
      <point x="611.3535353535353" y="842.2777777777778"/>
      <point x="336.1363636363636" y="750.9444444444445" type="curve"/>
    </contour>
    <contour>
      <point x="396.449494949495" y="-11.464646464646467" type="curve" smooth="yes"/>
      <point x="452.7575757575758" y="-11.464646464646467"/>
      <point x="488.6212121212122" y="24.641414141414153"/>
      <point x="488.6212121212122" y="76.02020202020205" type="curve" smooth="yes"/>
      <point x="488.6212121212122" y="129.10606060606065"/>
      <point x="451.6363636363637" y="165.21212121212127"/>
      <point x="396.449494949495" y="165.21212121212127" type="curve" smooth="yes"/>
      <point x="341.26262626262627" y="165.21212121212127"/>
      <point x="304.27777777777777" y="129.69191919191923"/>
      <point x="304.27777777777777" y="76.02020202020205" type="curve" smooth="yes"/>
      <point x="304.27777777777777" y="24.055555555555564"/>
      <point x="341.8484848484849" y="-11.464646464646467"/>
    </contour>
  </outline>
</glyph>
<glyph name="at" format="2">
  <advance width="1872.560606060606"/>
  <unicode hex="0040"/>
  <outline>
    <contour>
      <point x="983.5606060606061" y="-460.0" type="curve" smooth="yes"/>
      <point x="1119.1262626262626" y="-460.0"/>
      <point x="1252.2525252525254" y="-438.5858585858586"/>
      <point x="1365.4545454545455" y="-404.2929292929293" type="curve"/>
      <point x="1365.4545454545455" y="-307.2929292929293" type="line"/>
      <point x="1234.0353535353536" y="-345.85353535353534"/>
      <point x="1114.858585858586" y="-364.70707070707067"/>
      <point x="983.5606060606061" y="-364.70707070707067" type="curve" smooth="yes"/>
      <point x="477.11616161616166" y="-364.70707070707067"/>
      <point x="217.97474747474752" y="-117.22727272727269"/>
      <point x="217.97474747474752" y="523.4141414141415" type="curve" smooth="yes"/>
      <point x="217.97474747474752" y="1152.1060606060605"/>
      <point x="475.40909090909093" y="1402.7070707070707"/>
      <point x="942.2929292929293" y="1402.7070707070707" type="curve" smooth="yes"/>
      <point x="1408.469696969697" y="1402.7070707070707"/>
      <point x="1660.929292929293" y="1156.6919191919192"/>
      <point x="1661.5151515151515" y="557.8080808080808" type="curve" smooth="yes"/>
      <point x="1661.9545454545455" y="198.42929292929296"/>
      <point x="1558.449494949495" y="77.00000000000004"/>
      <point x="1446.0151515151515" y="77.00000000000004" type="curve" smooth="yes"/>
      <point x="1359.3131313131314" y="77.00000000000004"/>
      <point x="1317.9242424242425" y="124.63131313131316"/>
      <point x="1317.9242424242425" y="243.2828282828283" type="curve" smooth="yes"/>
      <point x="1317.9242424242425" y="727.9090909090909" type="line" smooth="yes"/>
      <point x="1317.9242424242425" y="1005.8484848484849"/>
      <point x="1179.530303030303" y="1096.2929292929293"/>
      <point x="927.2424242424242" y="1096.2929292929293" type="curve" smooth="yes"/>
      <point x="830.8484848484849" y="1096.2929292929293"/>
      <point x="714.040404040404" y="1078.8535353535353"/>
      <point x="626.5" y="1046.2676767676767" type="curve"/>
      <point x="626.2070707070707" y="942.3838383838383" type="line"/>
      <point x="728.4494949494949" y="978.7979797979798"/>
      <point x="834.9141414141415" y="993.530303030303"/>
      <point x="915.5252525252525" y="993.530303030303" type="curve" smooth="yes"/>
      <point x="1099.5959595959596" y="993.530303030303"/>
      <point x="1199.2474747474748" y="937.5808080808081"/>
      <point x="1199.2474747474748" y="730.6919191919192" type="curve" smooth="yes"/>
      <point x="1199.2474747474748" y="231.13131313131314" type="line"/>
      <point x="1117.4747474747476" y="124.3636363636364"/>
      <point x="1005.5808080808081" y="82.22222222222226"/>
      <point x="901.7626262626263" y="82.22222222222226" type="curve" smooth="yes"/>
      <point x="755.4343434343435" y="82.22222222222226"/>
      <point x="679.2676767676769" y="151.459595959596"/>
      <point x="679.2676767676769" y="284.8636363636364" type="curve" smooth="yes"/>
      <point x="679.2676767676769" y="411.17171717171715"/>
      <point x="755.969696969697" y="478.5808080808081"/>
      <point x="931.1515151515152" y="498.94444444444446" type="curve" smooth="yes"/>
      <point x="1247.9141414141413" y="535.5505050505051" type="line"/>
      <point x="1240.8838383838383" y="623.5202020202021" type="line"/>
      <point x="925.5606060606061" y="586.9141414141415" type="line" smooth="yes"/>
      <point x="669.4494949494949" y="559.0858585858587"/>
      <point x="555.1767676767677" y="458.42424242424244"/>
      <point x="555.1767676767677" y="273.1515151515152" type="curve" smooth="yes"/>
      <point x="555.1767676767677" y="89.1010101010101"/>
      <point x="679.0808080808081" y="-16.87878787878788"/>
      <point x="877.6717171717172" y="-16.87878787878788" type="curve" smooth="yes"/>
      <point x="1008.4747474747475" y="-16.87878787878788"/>
      <point x="1129.0101010101012" y="34.484848484848484"/>
      <point x="1200.4444444444443" y="126.87878787878788" type="curve"/>
      <point x="1211.2020202020203" y="126.87878787878788" type="line"/>
      <point x="1238.2575757575758" y="38.8030303030303"/>
      <point x="1309.7525252525252" y="-16.87878787878788"/>
      <point x="1428.1010101010102" y="-16.87878787878788" type="curve" smooth="yes"/>
      <point x="1614.1919191919192" y="-16.87878787878788"/>
      <point x="1760.8838383838383" y="146.82828282828282"/>
      <point x="1761.737373737374" y="564.1010101010102" type="curve" smooth="yes"/>
      <point x="1762.5909090909092" y="1199.9747474747476"/>
      <point x="1468.9949494949497" y="1498.0"/>
      <point x="942.2929292929293" y="1498.0" type="curve" smooth="yes"/>
      <point x="415.73737373737373" y="1498.0"/>
      <point x="110.82323232323232" y="1199.9747474747476"/>
      <point x="110.82323232323232" y="520.0" type="curve" smooth="yes"/>
      <point x="110.82323232323232" y="-165.09595959595958"/>
      <point x="418.2979797979798" y="-459.14646464646466"/>
    </contour>
  </outline>
</glyph>
<glyph name="B" format="2">
  <advance width="1240.3131313131314"/>
  <unicode hex="0042"/>
  <anchor x="635.8636363636364" y="0.0" name="bottom"/>
  <anchor x="635.8636363636364" y="1480.0" name="top"/>
  <outline>
    <contour>
      <point x="530.2727272727273" y="-11.464646464646467" type="curve" smooth="yes"/>
      <point x="986.6313131313132" y="-11.464646464646467"/>
      <point x="1162.7575757575758" y="131.05050505050505"/>
      <point x="1162.7575757575758" y="399.24747474747477" type="curve" smooth="yes"/>
      <point x="1162.7575757575758" y="602.4191919191919"/>
      <point x="1052.267676767677" y="743.4141414141415"/>
      <point x="810.3282828282829" y="770.560606060606" type="curve"/>
      <point x="807.7676767676768" y="756.0" type="line"/>
      <point x="1033.560606060606" y="789.1464646464647"/>
      <point x="1120.1969696969697" y="932.070707070707"/>
      <point x="1120.1969696969697" y="1105.020202020202" type="curve" smooth="yes"/>
      <point x="1120.1969696969697" y="1367.5353535353536"/>
      <point x="955.6060606060606" y="1494.878787878788"/>
      <point x="567.5454545454545" y="1494.878787878788" type="curve" smooth="yes"/>
      <point x="416.05555555555554" y="1494.878787878788"/>
      <point x="296.1161616161616" y="1480.9747474747476"/>
      <point x="178.13636363636363" y="1457.2171717171718" type="curve"/>
      <point x="178.13636363636363" y="10.43939393939394" type="line"/>
      <point x="303.0151515151515" y="-5.146464646464647"/>
      <point x="412.80808080808083" y="-11.464646464646467"/>
    </contour>
    <contour>
      <point x="549.8484848484849" y="90.27272727272731" type="curve" smooth="yes"/>
      <point x="456.7575757575758" y="90.27272727272731"/>
      <point x="378.61616161616166" y="93.83333333333337"/>
      <point x="298.13131313131316" y="104.80808080808086" type="curve"/>
      <point x="298.13131313131316" y="1371.3131313131312" type="line"/>
      <point x="376.29797979797985" y="1385.4343434343434"/>
      <point x="458.31818181818187" y="1393.141414141414"/>
      <point x="575.479797979798" y="1393.141414141414" type="curve" smooth="yes"/>
      <point x="883.2626262626262" y="1393.141414141414"/>
      <point x="1001.9848484848485" y="1309.171717171717"/>
      <point x="1001.9848484848485" y="1101.5050505050506" type="curve" smooth="yes"/>
      <point x="1001.9848484848485" y="907.7878787878788"/>
      <point x="891.2373737373737" y="811.5757575757576"/>
      <point x="607.5" y="811.5757575757576" type="curve" smooth="yes"/>
      <point x="278.3232323232324" y="811.5757575757576" type="line"/>
      <point x="278.3232323232324" y="708.520202020202" type="line"/>
      <point x="635.3787878787879" y="708.520202020202" type="line" smooth="yes"/>
      <point x="916.7272727272727" y="708.520202020202"/>
      <point x="1044.7171717171716" y="610.4545454545455"/>
      <point x="1044.7171717171716" y="402.03030303030306" type="curve" smooth="yes"/>
      <point x="1044.7171717171716" y="192.19191919191923"/>
      <point x="922.4090909090909" y="90.27272727272731"/>
    </contour>
  </outline>
</glyph>
<glyph name="F" format="2">
  <advance width="1103.0"/>
  <unicode hex="0046"/>
  <outline>
    <contour>
      <point x="178.13636363636363" y="0.0" type="line"/>
      <point x="299.7424242424243" y="0.0" type="line"/>
      <point x="299.7424242424243" y="1372.550505050505" type="line"/>
      <point x="1054.3181818181818" y="1372.550505050505" type="line"/>
      <point x="1054.3181818181818" y="1480.0" type="line"/>
      <point x="178.13636363636363" y="1480.0" type="line"/>
    </contour>
    <contour>
      <point x="268.74747474747477" y="699.2929292929292" type="line"/>
      <point x="957.8535353535353" y="699.2929292929292" type="line"/>
      <point x="957.8535353535353" y="806.7424242424242" type="line"/>
      <point x="268.74747474747477" y="806.7424242424242" type="line"/>
    </contour>
  </outline>
</glyph>
<glyph name="I" format="2">
  <advance width="477.87878787878793"/>
  <unicode hex="0049"/>
  <anchor x="238.79292929292933" y="0.0" name="bottom"/>
  <anchor x="299.7424242424243" y="0.0" name="ogonek"/>
  <anchor x="238.93939393939397" y="1520.0" name="top"/>
  <outline>
    <contour>
      <point x="178.13636363636363" y="0.0" type="line"/>
      <point x="299.7424242424243" y="0.0" type="line"/>
      <point x="299.7424242424243" y="1480.0" type="line"/>
      <point x="178.13636363636363" y="1480.0" type="line"/>
    </contour>
  </outline>
</glyph>
<glyph name="K" format="2">
  <advance width="1213.611111111111"/>
  <unicode hex="004B"/>
  <anchor x="632.8434343434344" y="0.0" name="bottom"/>
  <anchor x="631.5252525252525" y="1480.0" name="top"/>
  <outline>
    <contour>
      <point x="1090.1313131313132" y="0.0" type="line"/>
      <point x="1231.080808080808" y="0.0" type="line"/>
      <point x="616.949494949495" y="779.8585858585859" type="line"/>
      <point x="615.7777777777778" y="743.2626262626262" type="line"/>
      <point x="1188.9343434343434" y="1480.0" type="line"/>
      <point x="1051.888888888889" y="1480.0" type="line"/>
      <point x="491.66161616161617" y="757.1212121212121" type="line"/>
    </contour>
    <contour>
      <point x="178.13636363636363" y="0.0" type="line"/>
      <point x="299.7424242424243" y="0.0" type="line"/>
      <point x="299.7424242424243" y="1480.0" type="line"/>
      <point x="178.13636363636363" y="1480.0" type="line"/>
    </contour>
    <contour>
      <point x="277.5909090909091" y="704.1262626262626" type="line"/>
      <point x="553.2373737373738" y="704.1262626262626" type="line"/>
      <point x="553.2373737373738" y="815.2626262626263" type="line"/>
      <point x="277.5909090909091" y="815.2626262626263" type="line"/>
    </contour>
  </outline>
</glyph>
<glyph name="M" format="2">
  <advance width="1730.6666666666667"/>
  <unicode hex="004D"/>
  <anchor x="869.5808080808081" y="0.0" name="bottom"/>
  <anchor x="869.5808080808081" y="1480.0" name="top"/>
  <outline>
    <contour>
      <point x="182.13636363636363" y="0.0" type="line"/>
      <point x="297.6414141414142" y="0.0" type="line"/>
      <point x="297.6414141414142" y="1374.8383838383838" type="line"/>
      <point x="251.29292929292933" y="1374.8383838383838" type="line"/>
      <point x="807.4141414141415" y="202.92929292929293" type="line"/>
      <point x="923.2525252525253" y="202.92929292929293" type="line"/>
      <point x="1474.8838383838383" y="1374.8383838383838" type="line"/>
      <point x="1433.0252525252524" y="1374.8383838383838" type="line"/>
      <point x="1433.0252525252524" y="0.0" type="line"/>
      <point x="1548.530303030303" y="0.0" type="line"/>
      <point x="1548.530303030303" y="1480.0" type="line"/>
      <point x="1406.7424242424242" y="1480.0" type="line"/>
      <point x="851.3333333333334" y="288.2424242424243" type="line"/>
      <point x="884.7979797979798" y="288.2424242424243" type="line"/>
      <point x="323.9242424242425" y="1480.0" type="line"/>
      <point x="182.13636363636363" y="1480.0" type="line"/>
    </contour>
  </outline>
</glyph>
<glyph name="O" format="2">
  <advance width="1408.4242424242425"/>
  <unicode hex="004F"/>
  <anchor x="704.2121212121212" y="0.0" name="bottom"/>
  <anchor x="704.2121212121212" y="740.0" name="center"/>
  <anchor x="866.409090909091" y="0.0" name="ogonek"/>
  <anchor x="704.2121212121212" y="1520.0" name="top"/>
  <anchor x="45.025252525252526" y="1480.0" name="topleft"/>
  <anchor x="870.2424242424242" y="1480.0" name="topright"/>
  <outline>
    <contour>
      <point x="704.2121212121212" y="-18.292929292929294" type="curve" smooth="yes"/>
      <point x="1057.9343434343434" y="-18.292929292929294"/>
      <point x="1297.6010101010102" y="201.44444444444446"/>
      <point x="1297.6010101010102" y="740.0" type="curve" smooth="yes"/>
      <point x="1297.6010101010102" y="1278.5555555555557"/>
      <point x="1060.6414141414143" y="1498.2929292929293"/>
      <point x="704.2121212121212" y="1498.2929292929293" type="curve" smooth="yes"/>
      <point x="350.34343434343435" y="1498.2929292929293"/>
      <point x="110.82323232323232" y="1278.8484848484848"/>
      <point x="110.82323232323232" y="740.0" type="curve" smooth="yes"/>
      <point x="110.82323232323232" y="201.15151515151516"/>
      <point x="347.92929292929296" y="-18.292929292929294"/>
    </contour>
    <contour>
      <point x="704.2121212121212" y="89.57070707070713" type="curve" smooth="yes"/>
      <point x="423.97979797979804" y="89.57070707070713"/>
      <point x="237.3080808080809" y="256.6616161616162"/>
      <point x="237.3080808080809" y="744.5858585858585" type="curve" smooth="yes"/>
      <point x="237.3080808080809" y="1223.3383838383838"/>
      <point x="424.419191919192" y="1390.4292929292928"/>
      <point x="704.2121212121212" y="1390.4292929292928" type="curve" smooth="yes"/>
      <point x="984.0050505050506" y="1390.4292929292928"/>
      <point x="1171.1161616161617" y="1222.8989898989898"/>
      <point x="1171.1161616161617" y="735.4141414141415" type="curve" smooth="yes"/>
      <point x="1171.1161616161617" y="257.10101010101016"/>
      <point x="984.4444444444445" y="89.57070707070713"/>
    </contour>
  </outline>
</glyph>
<glyph name="P" format="2">
  <advance width="1211.6818181818182"/>
  <unicode hex="0050"/>
  <outline>
    <contour>
      <point x="178.13636363636363" y="0.0" type="line"/>
      <point x="299.7424242424243" y="0.0" type="line"/>
      <point x="299.7424242424243" y="509.0808080808081" type="line"/>
      <point x="372.4444444444445" y="502.25252525252523"/>
      <point x="433.61111111111114" y="499.3989898989899"/>
      <point x="506.89898989898995" y="499.3989898989899" type="curve" smooth="yes"/>
      <point x="929.6313131313132" y="499.3989898989899"/>
      <point x="1118.1010101010102" y="674.5959595959596"/>
      <point x="1118.1010101010102" y="997.9191919191919" type="curve" smooth="yes"/>
      <point x="1118.1010101010102" y="1341.0959595959596"/>
      <point x="918.9494949494949" y="1494.878787878788"/>
      <point x="540.6919191919192" y="1494.878787878788" type="curve" smooth="yes"/>
      <point x="409.9040404040404" y="1494.878787878788"/>
      <point x="296.55555555555554" y="1481.7070707070707"/>
      <point x="178.13636363636363" y="1459.388888888889" type="curve"/>
    </contour>
    <contour>
      <point x="510.04545454545456" y="602.6010101010102" type="curve" smooth="yes"/>
      <point x="432.7575757575758" y="602.6010101010102"/>
      <point x="367.61616161616166" y="606.3080808080808"/>
      <point x="299.7424242424243" y="615.5757575757576" type="curve"/>
      <point x="299.7424242424243" y="1371.7272727272727" type="line"/>
      <point x="375.2727272727273" y="1384.5555555555554"/>
      <point x="453.63131313131316" y="1391.6767676767677"/>
      <point x="546.8434343434344" y="1391.6767676767677" type="curve" smooth="yes"/>
      <point x="848.2878787878788" y="1391.6767676767677"/>
      <point x="995.2777777777777" y="1272.171717171717"/>
      <point x="995.2777777777777" y="995.0656565656566" type="curve" smooth="yes"/>
      <point x="995.2777777777777" y="730.8838383838383"/>
      <point x="851.7020202020202" y="602.6010101010102"/>
    </contour>
  </outline>
</glyph>
<glyph name="Q" format="2">
  <advance width="1408.4242424242425"/>
  <unicode hex="0051"/>
  <outline>
    <contour>
      <point x="1253.1313131313132" y="-208.41414141414145" type="curve"/>
      <point x="1272.2121212121212" y="-103.16161616161615" type="line"/>
      <point x="1054.550505050505" y="-84.1111111111111"/>
      <point x="809.3585858585859" y="-44.353535353535335"/>
      <point x="631.030303030303" y="33.429292929292956" type="curve"/>
      <point x="614.0606060606061" y="-2.287878787878781" type="line"/>
      <point x="1062.7878787878788" y="-56.388888888888886"/>
      <point x="1297.6010101010102" y="206.32323232323233"/>
      <point x="1297.6010101010102" y="740.0" type="curve" smooth="yes"/>
      <point x="1297.6010101010102" y="1283.6767676767677"/>
      <point x="1058.080808080808" y="1498.2929292929293"/>
      <point x="704.2121212121212" y="1498.2929292929293" type="curve" smooth="yes"/>
      <point x="350.34343434343435" y="1498.2929292929293"/>
      <point x="110.82323232323232" y="1278.8484848484848"/>
      <point x="110.82323232323232" y="738.5353535353536" type="curve" smooth="yes"/>
      <point x="110.82323232323232" y="138.2777777777778"/>
      <point x="370.9040404040404" y="-108.35353535353538"/>
    </contour>
    <contour>
      <point x="704.2121212121212" y="89.57070707070713" type="curve" smooth="yes"/>
      <point x="423.6868686868687" y="89.57070707070713"/>
      <point x="237.3080808080809" y="256.3686868686869"/>
      <point x="237.3080808080809" y="744.5858585858585" type="curve" smooth="yes"/>
      <point x="237.3080808080809" y="1223.3383838383838"/>
      <point x="424.419191919192" y="1390.4292929292928"/>
      <point x="704.2121212121212" y="1390.4292929292928" type="curve" smooth="yes"/>
      <point x="984.0050505050506" y="1390.4292929292928"/>
      <point x="1171.1161616161617" y="1222.8989898989898"/>
      <point x="1171.1161616161617" y="735.4141414141415" type="curve" smooth="yes"/>
      <point x="1171.1161616161617" y="257.10101010101016"/>
      <point x="984.4444444444445" y="89.57070707070713"/>
    </contour>
  </outline>
</glyph>
<glyph name="T" format="2">
  <advance width="1148.1767676767677"/>
  <unicode hex="0054"/>
  <anchor x="574.1616161616162" y="0.0" name="bottom"/>
  <anchor x="574.1616161616162" y="785.3535353535353" name="center"/>
  <anchor x="574.1616161616162" y="1520.0" name="top"/>
  <outline>
    <contour>
      <point x="513.2121212121212" y="0.0" type="line"/>
      <point x="634.9646464646465" y="0.0" type="line"/>
      <point x="634.9646464646465" y="1371.3787878787878" type="line"/>
      <point x="1134.3232323232323" y="1371.3787878787878" type="line"/>
      <point x="1134.3232323232323" y="1480.0" type="line"/>
      <point x="13.853535353535353" y="1480.0" type="line"/>
      <point x="13.853535353535353" y="1371.3787878787878" type="line"/>
      <point x="513.2121212121212" y="1371.3787878787878" type="line"/>
    </contour>
  </outline>
</glyph>
<glyph name="V" format="2">
  <advance width="1284.6666666666667"/>
  <unicode hex="0056"/>
  <outline>
    <contour>
      <point x="555.0555555555555" y="0.0" type="line"/>
      <point x="729.6111111111112" y="0.0" type="line"/>
      <point x="1271.0353535353536" y="1480.0" type="line"/>
      <point x="1148.7727272727273" y="1480.0" type="line"/>
      <point x="631.939393939394" y="59.47979797979801" type="line"/>
      <point x="659.3636363636364" y="59.47979797979801" type="line"/>
      <point x="143.84848484848493" y="1480.0" type="line"/>
      <point x="13.631313131313126" y="1480.0" type="line"/>
    </contour>
  </outline>
</glyph>
<glyph name="X" format="2">
  <advance width="1254.0757575757575"/>
  <unicode hex="0058"/>
  <outline>
    <contour>
      <point x="1088.5757575757575" y="0.0" type="line"/>
      <point x="1231.550505050505" y="0.0" type="line"/>
      <point x="698.868686868687" y="752.6868686868687" type="line"/>
      <point x="627.1111111111111" y="847.7424242424242" type="line"/>
      <point x="178.91919191919197" y="1480.0" type="line"/>
      <point x="36.35858585858585" y="1480.0" type="line"/>
      <point x="553.7676767676768" y="751.1010101010102" type="line"/>
      <point x="625.5252525252525" y="655.631313131313" type="line"/>
    </contour>
    <contour>
      <point x="21.085858585858567" y="0.0" type="line"/>
      <point x="161.62121212121218" y="0.0" type="line"/>
      <point x="625.5252525252525" y="655.631313131313" type="line"/>
      <point x="698.868686868687" y="752.6868686868687" type="line"/>
      <point x="1214.959595959596" y="1480.0" type="line"/>
      <point x="1076.010101010101" y="1480.0" type="line"/>
      <point x="627.1111111111111" y="847.7424242424242" type="line"/>
      <point x="553.7676767676768" y="751.1010101010102" type="line"/>
    </contour>
  </outline>
</glyph>
<glyph name="bracketleft" format="2">
  <advance width="644.7474747474748"/>
  <unicode hex="005B"/>
  <outline>
    <contour>
      <point x="198.13636363636363" y="-440.0" type="line"/>
      <point x="681.2323232323232" y="-440.0" type="line"/>
      <point x="681.2323232323232" y="-337.040404040404" type="line"/>
      <point x="318.4242424242425" y="-337.040404040404" type="line"/>
      <point x="318.4242424242425" y="1513.040404040404" type="line"/>
      <point x="682.6969696969697" y="1513.040404040404" type="line"/>
      <point x="682.6969696969697" y="1616.0" type="line"/>
      <point x="198.13636363636363" y="1616.0" type="line"/>
    </contour>
  </outline>
</glyph>
<glyph name="backslash" format="2">
  <advance width="576.949494949495"/>
  <unicode hex="005C"/>
  <outline>
    <contour>
      <point x="455.12626262626264" y="-240.0" type="line"/>
      <point x="576.949494949495" y="-240.0" type="line"/>
      <point x="121.82323232323239" y="1616.0" type="line"/>
      <point x="0.0" y="1616.0" type="line"/>
    </contour>
  </outline>
</glyph>
<glyph name="bracketright" format="2">
  <advance width="644.7474747474748"/>
  <unicode hex="005D"/>
  <outline>
    <contour>
      <point x="-36.48484848484848" y="-440.0" type="line"/>
      <point x="446.61111111111114" y="-440.0" type="line"/>
      <point x="446.61111111111114" y="1616.0" type="line"/>
      <point x="-37.94949494949495" y="1616.0" type="line"/>
      <point x="-37.94949494949495" y="1513.040404040404" type="line"/>
      <point x="326.3232323232323" y="1513.040404040404" type="line"/>
      <point x="326.3232323232323" y="-337.040404040404" type="line"/>
      <point x="-36.48484848484848" y="-337.040404040404" type="line"/>
    </contour>
  </outline>
</glyph>
<glyph name="asciicircum" format="2">
  <advance width="1132.2222222222222"/>
  <unicode hex="005E"/>
  <outline>
    <contour>
      <point x="103.74747474747474" y="740.0" type="line"/>
      <point x="230.93434343434348" y="740.0" type="line"/>
      <point x="582.8535353535353" y="1412.7121212121212" type="line"/>
      <point x="549.3686868686868" y="1412.7121212121212" type="line"/>
      <point x="901.2878787878788" y="740.0" type="line"/>
      <point x="1028.4747474747476" y="740.0" type="line"/>
      <point x="633.9343434343435" y="1480.0" type="line"/>
      <point x="496.5808080808081" y="1480.0" type="line"/>
    </contour>
  </outline>
</glyph>
<glyph name="underscore" format="2">
  <advance width="1100.7070707070707"/>
  <unicode hex="005F"/>
  <outline>
    <contour>
      <point x="93.53535353535354" y="-103.10606060606065" type="line"/>
      <point x="1007.1717171717172" y="-103.10606060606065" type="line"/>
      <point x="1007.1717171717172" y="-0.14646464646464666" type="line"/>
      <point x="93.53535353535354" y="-0.14646464646464666" type="line"/>
    </contour>
  </outline>
</glyph>
<glyph name="grave" format="2">
  <advance width="1029.2929292929293"/>
  <unicode hex="0060"/>
  <anchor x="514.6464646464647" y="1200.0" name="_top"/>
  <anchor x="514.6464646464647" y="1570.6464646464647" name="top"/>
  <outline>
    <contour>
      <point x="458.9191919191919" y="1257.5555555555557" type="line"/>
      <point x="570.3737373737374" y="1257.5555555555557" type="line"/>
      <point x="358.71212121212125" y="1616.0" type="line"/>
      <point x="226.520202020202" y="1616.0" type="line"/>
    </contour>
  </outline>
</glyph>
<glyph name="b" format="2">
  <advance width="1104.1010101010102"/>
  <unicode hex="0062"/>
  <anchor x="554.9898989898991" y="0.0" name="bottom"/>
  <anchor x="219.52525252525254" y="1616.0" name="top"/>
  <outline>
    <contour>
      <point x="472.01515151515156" y="-18.43939393939394" type="curve" smooth="yes"/>
      <point x="818.469696969697" y="-18.58585858585859"/>
      <point x="1004.1565656565657" y="167.24747474747477"/>
      <point x="1004.1565656565657" y="561.9040404040404" type="curve" smooth="yes"/>
      <point x="1004.1565656565657" y="959.3636363636364"/>
      <point x="817.8131313131314" y="1099.2222222222222"/>
      <point x="591.9343434343434" y="1099.2222222222222" type="curve" smooth="yes"/>
      <point x="458.57070707070716" y="1099.2222222222222"/>
      <point x="353.7676767676768" y="1044.419191919192"/>
      <point x="287.50000000000006" y="969.6868686868687" type="curve"/>
      <point x="279.59595959595964" y="969.6868686868687" type="line"/>
      <point x="279.59595959595964" y="1616.0" type="line"/>
      <point x="159.3080808080808" y="1616.0" type="line"/>
      <point x="159.3080808080808" y="27.515151515151523" type="line"/>
      <point x="253.8030303030303" y="-2.56060606060606"/>
      <point x="365.9343434343434" y="-18.43939393939394"/>
    </contour>
    <contour>
      <point x="480.8484848484849" y="84.17676767676772" type="curve" smooth="yes"/>
      <point x="405.02525252525254" y="84.17676767676772"/>
      <point x="331.20202020202026" y="95.85858585858591"/>
      <point x="279.59595959595964" y="111.2474747474748" type="curve"/>
      <point x="279.59595959595964" y="851.4242424242424" type="line"/>
      <point x="347.88383838383845" y="947.8030303030303"/>
      <point x="455.89898989898995" y="992.5050505050505"/>
      <point x="563.4747474747475" y="992.5050505050505" type="curve" smooth="yes"/>
      <point x="743.6111111111111" y="992.5050505050505"/>
      <point x="880.3080808080808" y="895.2676767676767"/>
      <point x="880.3080808080808" y="550.2424242424242" type="curve" smooth="yes"/>
      <point x="880.3080808080808" y="220.02020202020205"/>
      <point x="741.6111111111111" y="84.17676767676772"/>
    </contour>
  </outline>
</glyph>
<glyph name="f" format="2">
  <advance width="695.2676767676768"/>
  <unicode hex="0066"/>
  <outline>
    <contour>
      <point x="228.26262626262624" y="0.0" type="line"/>
      <point x="348.1111111111112" y="0.0" type="line"/>
      <point x="348.1111111111112" y="1273.2979797979797" type="line" smooth="yes"/>
      <point x="348.1111111111112" y="1459.8232323232323"/>
      <point x="432.5707070707071" y="1531.040404040404"/>
      <point x="605.1767676767677" y="1531.040404040404" type="curve" smooth="yes"/>
      <point x="651.6868686868687" y="1531.040404040404"/>
      <point x="696.0505050505051" y="1526.479797979798"/>
      <point x="742.2929292929293" y="1518.2121212121212" type="curve"/>
      <point x="742.2929292929293" y="1624.0" type="line"/>
      <point x="695.8282828282829" y="1632.0"/>
      <point x="644.1212121212121" y="1636.0"/>
      <point x="598.1919191919192" y="1636.0" type="curve" smooth="yes"/>
      <point x="353.5656565656566" y="1636.0"/>
      <point x="228.26262626262624" y="1511.550505050505"/>
      <point x="228.26262626262624" y="1267.8080808080808" type="curve" smooth="yes"/>
    </contour>
    <contour>
      <point x="17.050505050505052" y="979.9696969696969" type="line"/>
      <point x="701.8282828282829" y="979.9696969696969" type="line"/>
      <point x="701.8282828282829" y="1082.9292929292928" type="line"/>
      <point x="17.050505050505052" y="1082.9292929292928" type="line"/>
    </contour>
  </outline>
</glyph>
<glyph name="h" format="2">
  <advance width="1115.2676767676767"/>
  <unicode hex="0068"/>
  <anchor x="564.6212121212121" y="0.0" name="bottom"/>
  <anchor x="564.6212121212121" y="541.4646464646464" name="center"/>
  <anchor x="159.3080808080808" y="1355.121212121212" name="stroke"/>
  <anchor x="564.6212121212121" y="1616.0" name="top"/>
  <outline>
    <contour>
      <point x="159.3080808080808" y="0.0" type="line"/>
      <point x="279.59595959595964" y="0.0" type="line"/>
      <point x="279.59595959595964" y="830.1767676767677" type="line"/>
      <point x="364.3686868686869" y="944.8232323232323"/>
      <point x="495.04040404040404" y="988.0151515151515"/>
      <point x="603.3737373737374" y="988.0151515151515" type="curve" smooth="yes"/>
      <point x="750.6060606060606" y="988.0151515151515"/>
      <point x="848.5" y="923.020202020202"/>
      <point x="848.5" y="723.4494949494949" type="curve" smooth="yes"/>
      <point x="848.5" y="0.0" type="line"/>
      <point x="968.7878787878789" y="0.0" type="line"/>
      <point x="968.7878787878789" y="727.1363636363636" type="line" smooth="yes"/>
      <point x="968.7878787878789" y="1001.8030303030303"/>
      <point x="826.8333333333334" y="1099.2222222222222"/>
      <point x="629.9545454545455" y="1099.2222222222222" type="curve" smooth="yes"/>
      <point x="498.5656565656566" y="1099.2222222222222"/>
      <point x="378.2525252525253" y="1052.6616161616162"/>
      <point x="287.50000000000006" y="959.4444444444445" type="curve"/>
      <point x="279.59595959595964" y="959.4444444444445" type="line"/>
      <point x="279.59595959595964" y="1616.0" type="line"/>
      <point x="159.3080808080808" y="1616.0" type="line"/>
    </contour>
  </outline>
</glyph>
<glyph name="i" format="2">
  <advance width="439.0505050505051"/>
  <unicode hex="0069"/>
  <anchor x="219.52525252525254" y="1200.0" name="_top"/>
  <anchor x="219.52525252525254" y="0.0" name="bottom"/>
  <anchor x="279.7424242424243" y="0.0" name="ogonek"/>
  <anchor x="219.52525252525254" y="1200.0" name="top"/>
  <outline>
    <contour>
      <point x="159.3080808080808" y="0.0" type="line"/>
      <point x="279.7424242424243" y="0.0" type="line"/>
      <point x="279.7424242424243" y="1082.9292929292928" type="line"/>
      <point x="159.3080808080808" y="1082.9292929292928" type="line"/>
    </contour>
    <contour>
      <point x="219.52525252525254" y="1337.7373737373737" type="curve" smooth="yes"/>
      <point x="276.03030303030306" y="1337.7373737373737"/>
      <point x="309.6464646464647" y="1369.3535353535353"/>
      <point x="309.6464646464647" y="1421.4141414141413" type="curve" smooth="yes"/>
      <point x="309.6464646464647" y="1473.4747474747476"/>
      <point x="276.03030303030306" y="1506.79797979798"/>
      <point x="219.52525252525254" y="1506.79797979798" type="curve" smooth="yes"/>
      <point x="163.02020202020202" y="1506.79797979798"/>
      <point x="129.4040404040404" y="1473.4747474747476"/>
      <point x="129.4040404040404" y="1421.4141414141413" type="curve" smooth="yes"/>
      <point x="129.4040404040404" y="1369.3535353535353"/>
      <point x="163.02020202020202" y="1337.7373737373737"/>
    </contour>
  </outline>
</glyph>
<glyph name="j" format="2">
  <advance width="439.0505050505051"/>
  <unicode hex="006A"/>
  <anchor x="218.79292929292933" y="1205.121212121212" name="_top"/>
  <anchor x="218.79292929292933" y="1205.121212121212" name="top"/>
  <outline>
    <contour>
      <point x="57.146464646464686" y="-462.34343434343435" type="line"/>
      <point x="213.27777777777783" y="-261.4141414141414"/>
      <point x="279.7424242424243" y="-83.02020202020202"/>
      <point x="279.7424242424243" y="176.36868686868686" type="curve" smooth="yes"/>
      <point x="279.7424242424243" y="1082.9292929292928" type="line"/>
      <point x="159.3080808080808" y="1082.9292929292928" type="line"/>
      <point x="159.3080808080808" y="168.05050505050505" type="line" smooth="yes"/>
      <point x="159.3080808080808" y="-66.96969696969697"/>
      <point x="104.96969696969695" y="-228.8181818181818"/>
      <point x="-24.51515151515152" y="-406.10606060606057" type="curve"/>
    </contour>
    <contour>
      <point x="218.79292929292933" y="1342.858585858586" type="curve" smooth="yes"/>
      <point x="275.29797979797985" y="1342.858585858586"/>
      <point x="308.91414141414145" y="1374.4747474747473"/>
      <point x="308.91414141414145" y="1426.5353535353536" type="curve" smooth="yes"/>
      <point x="308.91414141414145" y="1478.5959595959596"/>
      <point x="275.29797979797985" y="1511.919191919192"/>
      <point x="218.79292929292933" y="1511.919191919192" type="curve" smooth="yes"/>
      <point x="162.28787878787878" y="1511.919191919192"/>
      <point x="128.67171717171715" y="1478.5959595959596"/>
      <point x="128.67171717171715" y="1426.5353535353536" type="curve" smooth="yes"/>
      <point x="128.67171717171715" y="1374.4747474747473"/>
      <point x="162.28787878787878" y="1342.858585858586"/>
    </contour>
  </outline>
</glyph>
<glyph name="l" format="2">
  <advance width="438.9040404040404"/>
  <unicode hex="006C"/>
  <anchor x="219.3787878787879" y="0.0" name="bottom"/>
  <anchor x="395.20202020202026" y="1616.0" name="caronalt"/>
  <anchor x="456.31818181818187" y="794.0" name="periodcentered"/>
  <anchor x="219.52525252525254" y="714.0" name="slash"/>
  <anchor x="219.52525252525254" y="1616.0" name="top"/>
  <outline>
    <contour>
      <point x="159.3080808080808" y="0.0" type="line"/>
      <point x="279.59595959595964" y="0.0" type="line"/>
      <point x="279.59595959595964" y="1616.0" type="line"/>
      <point x="159.3080808080808" y="1616.0" type="line"/>
    </contour>
  </outline>
</glyph>
<glyph name="p" format="2">
  <advance width="1104.1010101010102"/>
  <unicode hex="0070"/>
  <outline>
    <contour>
      <point x="159.3080808080808" y="-440.0" type="line"/>
      <point x="279.59595959595964" y="-440.0" type="line"/>
      <point x="279.59595959595964" y="-3.343434343434346" type="line"/>
      <point x="334.90909090909093" y="-11.31818181818182"/>
      <point x="403.61111111111114" y="-18.43939393939394"/>
      <point x="469.04545454545456" y="-18.43939393939394" type="curve" smooth="yes"/>
      <point x="818.8838383838385" y="-18.43939393939394"/>
      <point x="1004.1565656565657" y="167.83333333333334"/>
      <point x="1004.1565656565657" y="561.6111111111111" type="curve" smooth="yes"/>
      <point x="1004.1565656565657" y="960.8282828282828"/>
      <point x="814.6161616161617" y="1099.2222222222222"/>
      <point x="582.1262626262627" y="1099.2222222222222" type="curve" smooth="yes"/>
      <point x="452.2727272727273" y="1099.2222222222222"/>
      <point x="346.1767676767677" y="1042.9545454545455"/>
      <point x="280.909090909091" y="962.8080808080808" type="curve"/>
      <point x="272.29797979797985" y="962.8080808080808" type="line"/>
      <point x="262.6616161616162" y="1082.9292929292928" type="line"/>
      <point x="159.3080808080808" y="1082.9292929292928" type="line"/>
    </contour>
    <contour>
      <point x="471.459595959596" y="84.32323232323238" type="curve" smooth="yes"/>
      <point x="405.4646464646465" y="84.32323232323238"/>
      <point x="331.20202020202026" y="92.59090909090914"/>
      <point x="279.59595959595964" y="105.12626262626267" type="curve"/>
      <point x="279.59595959595964" y="843.4242424242424" type="line"/>
      <point x="347.7373737373738" y="947.5101010101009"/>
      <point x="455.4848484848485" y="992.6515151515151"/>
      <point x="560.2323232323232" y="992.6515151515151" type="curve" smooth="yes"/>
      <point x="743.4646464646464" y="992.6515151515151"/>
      <point x="880.3080808080808" y="895.4141414141413"/>
      <point x="880.3080808080808" y="550.0959595959596" type="curve" smooth="yes"/>
      <point x="880.3080808080808" y="220.16666666666669"/>
      <point x="741.6111111111111" y="84.32323232323238"/>
    </contour>
  </outline>
</glyph>
<glyph name="q" format="2">
  <advance width="1104.1010101010102"/>
  <unicode hex="0071"/>
  <outline>
    <contour>
      <point x="824.5050505050505" y="-440.0" type="line"/>
      <point x="944.7929292929293" y="-440.0" type="line"/>
      <point x="944.7929292929293" y="1053.2676767676767" type="line"/>
      <point x="853.3232323232323" y="1082.050505050505"/>
      <point x="738.1666666666667" y="1099.2222222222222"/>
      <point x="632.0858585858587" y="1099.2222222222222" type="curve" smooth="yes"/>
      <point x="285.6313131313131" y="1099.2222222222222"/>
      <point x="99.94444444444443" y="913.5353535353536"/>
      <point x="99.94444444444443" y="518.8787878787879" type="curve" smooth="yes"/>
      <point x="99.94444444444443" y="121.41919191919192"/>
      <point x="286.28787878787875" y="-18.43939393939394"/>
      <point x="512.1666666666666" y="-18.43939393939394" type="curve" smooth="yes"/>
      <point x="645.530303030303" y="-18.43939393939394"/>
      <point x="750.3333333333333" y="36.36363636363636"/>
      <point x="816.60101010101" y="111.0959595959596" type="curve"/>
      <point x="824.5050505050505" y="111.0959595959596" type="line"/>
    </contour>
    <contour>
      <point x="540.6262626262627" y="88.27777777777783" type="curve" smooth="yes"/>
      <point x="360.489898989899" y="88.27777777777783"/>
      <point x="223.79292929292936" y="185.51515151515156"/>
      <point x="223.79292929292936" y="530.540404040404" type="curve" smooth="yes"/>
      <point x="223.79292929292936" y="860.7626262626262"/>
      <point x="363.3686868686869" y="996.6060606060605"/>
      <point x="623.1060606060606" y="996.6060606060605" type="curve" smooth="yes"/>
      <point x="699.0757575757576" y="996.6060606060605"/>
      <point x="772.8989898989898" y="985.7777777777777"/>
      <point x="824.5050505050505" y="972.2424242424242" type="curve"/>
      <point x="824.5050505050505" y="229.35858585858588" type="line"/>
      <point x="756.2171717171717" y="132.97979797979804"/>
      <point x="646.4949494949495" y="88.27777777777783"/>
    </contour>
  </outline>
</glyph>
<glyph name="r" format="2">
  <advance width="701.5606060606061"/>
  <unicode hex="0072"/>
  <anchor x="219.52525252525254" y="0.0" name="bottom"/>
  <anchor x="413.13131313131316" y="1200.0" name="top"/>
  <outline>
    <contour>
      <point x="159.3080808080808" y="0.0" type="line"/>
      <point x="279.59595959595964" y="0.0" type="line"/>
      <point x="279.59595959595964" y="811.10101010101" type="line"/>
      <point x="355.03030303030306" y="923.530303030303"/>
      <point x="489.2676767676768" y="976.989898989899"/>
      <point x="599.0202020202021" y="976.989898989899" type="curve" smooth="yes"/>
      <point x="632.3131313131314" y="976.989898989899"/>
      <point x="659.5353535353536" y="975.8434343434343"/>
      <point x="688.8535353535353" y="971.2575757575758" type="curve"/>
      <point x="688.8535353535353" y="1085.2474747474748" type="line"/>
      <point x="662.2929292929293" y="1090.1010101010102"/>
      <point x="636.6818181818182" y="1092.3939393939395"/>
      <point x="603.8282828282829" y="1092.3939393939395" type="curve" smooth="yes"/>
      <point x="481.82828282828285" y="1092.3939393939395"/>
      <point x="357.51515151515156" y="1038.0050505050506"/>
      <point x="280.61616161616166" y="937.1010101010102" type="curve"/>
      <point x="271.1515151515152" y="937.1010101010102" type="line"/>
      <point x="261.19696969696975" y="1082.9292929292928" type="line"/>
      <point x="159.3080808080808" y="1082.9292929292928" type="line"/>
    </contour>
  </outline>
</glyph>
<glyph name="v" format="2">
  <advance width="1030.5909090909092"/>
  <unicode hex="0076"/>
  <anchor x="516.5757575757576" y="0.0" name="bottom"/>
  <anchor x="516.5757575757576" y="1200.0" name="top"/>
  <outline>
    <contour>
      <point x="436.7929292929293" y="0.0" type="line"/>
      <point x="593.6515151515152" y="0.0" type="line"/>
      <point x="1011.010101010101" y="1082.9292929292928" type="line"/>
      <point x="887.7727272727273" y="1082.9292929292928" type="line"/>
      <point x="508.89393939393943" y="81.11111111111117" type="line"/>
      <point x="528.0656565656566" y="81.11111111111117" type="line"/>
      <point x="149.18686868686876" y="1082.9292929292928" type="line"/>
      <point x="19.580808080808072" y="1082.9292929292928" type="line"/>
    </contour>
  </outline>
</glyph>
<glyph name="x" format="2">
  <advance width="979.5202020202021"/>
  <unicode hex="0078"/>
  <anchor x="491.04040404040404" y="0.0" name="bottom"/>
  <anchor x="491.1868686868687" y="1200.0" name="top"/>
  <outline>
    <contour>
      <point x="819.6262626262626" y="0.0" type="line"/>
      <point x="960.8434343434344" y="0.0" type="line"/>
      <point x="562.2121212121212" y="547.9040404040404" type="line"/>
      <point x="491.7727272727273" y="637.469696969697" type="line"/>
      <point x="169.60101010101016" y="1082.9292929292928" type="line"/>
      <point x="28.383838383838373" y="1082.9292929292928" type="line"/>
      <point x="417.72222222222223" y="545.4646464646464" type="line"/>
      <point x="488.89393939393943" y="457.0454545454545" type="line"/>
    </contour>
    <contour>
      <point x="21.383838383838373" y="0.0" type="line"/>
      <point x="159.8434343434344" y="0.0" type="line"/>
      <point x="488.89393939393943" y="457.0454545454545" type="line"/>
      <point x="562.2121212121212" y="547.9040404040404" type="line"/>
      <point x="951.1111111111112" y="1082.9292929292928" type="line"/>
      <point x="814.3585858585858" y="1082.9292929292928" type="line"/>
      <point x="491.7727272727273" y="637.469696969697" type="line"/>
      <point x="417.72222222222223" y="545.4646464646464" type="line"/>
    </contour>
  </outline>
</glyph>
<glyph name="y" format="2">
  <advance width="1030.5909090909092"/>
  <unicode hex="0079"/>
  <anchor x="775.2878787878789" y="0.0" name="bottom"/>
  <anchor x="516.5757575757576" y="1200.0" name="top"/>
  <outline>
    <contour>
      <point x="302.22222222222223" y="-440.0" type="line"/>
      <point x="424.3131313131314" y="-440.0" type="line"/>
      <point x="1011.010101010101" y="1082.9292929292928" type="line"/>
      <point x="887.7727272727273" y="1082.9292929292928" type="line"/>
      <point x="508.89393939393943" y="81.11111111111117" type="line"/>
      <point x="472.56060606060606" y="0.0" type="line"/>
    </contour>
    <contour>
      <point x="436.7929292929293" y="0.0" type="line"/>
      <point x="553.9545454545455" y="0.0" type="line"/>
      <point x="149.18686868686876" y="1082.9292929292928" type="line"/>
      <point x="19.580808080808072" y="1082.9292929292928" type="line"/>
    </contour>
  </outline>
</glyph>
<glyph name="braceleft" format="2">
  <advance width="684.7474747474748"/>
  <unicode hex="007B"/>
  <outline>
    <contour>
      <point x="591.4191919191919" y="-460.0" type="curve" smooth="yes"/>
      <point x="640.2525252525253" y="-460.0"/>
      <point x="688.7424242424242" y="-455.7070707070707"/>
      <point x="722.6969696969697" y="-449.4141414141414" type="curve"/>
      <point x="722.6969696969697" y="-354.4545454545454" type="line"/>
      <point x="599.429292929293" y="-354.4545454545454" type="line" smooth="yes"/>
      <point x="438.10101010101016" y="-354.4545454545454"/>
      <point x="358.4242424242425" y="-286.6313131313131"/>
      <point x="358.4242424242425" y="-124.74242424242422" type="curve" smooth="yes"/>
      <point x="358.4242424242425" y="387.8484848484849" type="line" smooth="yes"/>
      <point x="358.4242424242425" y="532.6363636363636"/>
      <point x="303.3434343434344" y="609.9090909090909"/>
      <point x="177.8080808080808" y="632.1010101010102" type="curve"/>
      <point x="177.8080808080808" y="614.8282828282828" type="line"/>
      <point x="303.3434343434344" y="637.020202020202"/>
      <point x="358.4242424242425" y="714.2929292929293"/>
      <point x="358.4242424242425" y="859.0808080808081" type="curve" smooth="yes"/>
      <point x="358.4242424242425" y="1300.7424242424242" type="line" smooth="yes"/>
      <point x="358.4242424242425" y="1462.6313131313132"/>
      <point x="438.10101010101016" y="1530.4545454545455"/>
      <point x="599.429292929293" y="1530.4545454545455" type="curve" smooth="yes"/>
      <point x="722.6969696969697" y="1530.4545454545455" type="line"/>
      <point x="722.6969696969697" y="1625.4141414141413" type="line"/>
      <point x="688.7424242424242" y="1631.7070707070707"/>
      <point x="640.2525252525253" y="1636.0"/>
      <point x="591.4191919191919" y="1636.0" type="curve" smooth="yes"/>
      <point x="357.8484848484849" y="1636.0"/>
      <point x="238.13636363636363" y="1523.2878787878788"/>
      <point x="238.13636363636363" y="1297.111111111111" type="curve" smooth="yes"/>
      <point x="238.13636363636363" y="849.6666666666666" type="line" smooth="yes"/>
      <point x="238.13636363636363" y="727.479797979798"/>
      <point x="178.77272727272725" y="674.9444444444445"/>
      <point x="65.12121212121212" y="674.9444444444445" type="curve" smooth="yes"/>
      <point x="42.35858585858585" y="674.9444444444445" type="line"/>
      <point x="42.35858585858585" y="571.9848484848485" type="line"/>
      <point x="65.12121212121212" y="571.9848484848485" type="line" smooth="yes"/>
      <point x="178.77272727272725" y="571.9848484848485"/>
      <point x="238.13636363636363" y="519.4494949494949"/>
      <point x="238.13636363636363" y="397.26262626262627" type="curve" smooth="yes"/>
      <point x="238.13636363636363" y="-121.1111111111111" type="line" smooth="yes"/>
      <point x="238.13636363636363" y="-347.28787878787875"/>
      <point x="357.8484848484849" y="-460.0"/>
    </contour>
  </outline>
</glyph>
<glyph name="bar" format="2">
  <advance width="469.969696969697"/>
  <unicode hex="007C"/>
  <outline>
    <contour>
      <point x="178.13636363636363" y="-440.0" type="line"/>
      <point x="291.83333333333337" y="-440.0" type="line"/>
      <point x="291.83333333333337" y="1616.0" type="line"/>
      <point x="178.13636363636363" y="1616.0" type="line"/>
    </contour>
  </outline>
</glyph>
<glyph name="braceright" format="2">
  <advance width="684.7474747474748"/>
  <unicode hex="007D"/>
  <outline>
    <contour>
      <point x="93.32828282828285" y="-460.0" type="curve" smooth="yes"/>
      <point x="326.89898989898995" y="-460.0"/>
      <point x="446.61111111111114" y="-347.28787878787875"/>
      <point x="446.61111111111114" y="-121.1111111111111" type="curve" smooth="yes"/>
      <point x="446.61111111111114" y="397.26262626262627" type="line" smooth="yes"/>
      <point x="446.61111111111114" y="519.4494949494949"/>
      <point x="505.9747474747475" y="571.9848484848485"/>
      <point x="619.6262626262627" y="571.9848484848485" type="curve" smooth="yes"/>
      <point x="642.3888888888889" y="571.9848484848485" type="line"/>
      <point x="642.3888888888889" y="674.9444444444445" type="line"/>
      <point x="619.6262626262627" y="674.9444444444445" type="line" smooth="yes"/>
      <point x="505.9747474747475" y="674.9444444444445"/>
      <point x="446.61111111111114" y="727.479797979798"/>
      <point x="446.61111111111114" y="849.6666666666666" type="curve" smooth="yes"/>
      <point x="446.61111111111114" y="1297.111111111111" type="line" smooth="yes"/>
      <point x="446.61111111111114" y="1523.2878787878788"/>
      <point x="326.89898989898995" y="1636.0"/>
      <point x="93.32828282828285" y="1636.0" type="curve" smooth="yes"/>
      <point x="44.49494949494951" y="1636.0"/>
      <point x="-3.994949494949487" y="1631.7070707070707"/>
      <point x="-37.94949494949495" y="1625.4141414141413" type="curve"/>
      <point x="-37.94949494949495" y="1530.4545454545455" type="line"/>
      <point x="85.31818181818181" y="1530.4545454545455" type="line" smooth="yes"/>
      <point x="246.64646464646464" y="1530.4545454545455"/>
      <point x="326.3232323232323" y="1462.6313131313132"/>
      <point x="326.3232323232323" y="1300.7424242424242" type="curve" smooth="yes"/>
      <point x="326.3232323232323" y="859.0808080808081" type="line" smooth="yes"/>
      <point x="326.3232323232323" y="714.2929292929293"/>
      <point x="381.8434343434343" y="637.020202020202"/>
      <point x="506.939393939394" y="614.8282828282828" type="curve"/>
      <point x="506.939393939394" y="632.1010101010102" type="line"/>
      <point x="381.8434343434343" y="609.9090909090909"/>
      <point x="326.3232323232323" y="532.6363636363636"/>
      <point x="326.3232323232323" y="387.8484848484849" type="curve" smooth="yes"/>
      <point x="326.3232323232323" y="-124.74242424242422" type="line" smooth="yes"/>
      <point x="326.3232323232323" y="-286.6313131313131"/>
      <point x="246.64646464646464" y="-354.4545454545454"/>
      <point x="85.31818181818181" y="-354.4545454545454" type="curve" smooth="yes"/>
      <point x="-37.94949494949495" y="-354.4545454545454" type="line"/>
      <point x="-37.94949494949495" y="-449.4141414141414" type="line"/>
      <point x="-3.994949494949487" y="-455.7070707070707"/>
      <point x="44.49494949494951" y="-460.0"/>
    </contour>
  </outline>
</glyph>
<glyph name="asciitilde" format="2">
  <advance width="1069.909090909091"/>
  <unicode hex="007E"/>
  <outline>
    <contour>
      <point x="711.9343434343434" y="646.4242424242424" type="curve" smooth="yes"/>
      <point x="794.7676767676768" y="646.4242424242424"/>
      <point x="865.6464646464647" y="678.1313131313132"/>
      <point x="913.3080808080808" y="738.1818181818181" type="curve"/>
      <point x="913.3080808080808" y="855.3333333333334" type="line"/>
      <point x="855.2070707070707" y="782.4545454545455"/>
      <point x="789.8888888888889" y="747.040404040404"/>
      <point x="710.8131313131313" y="747.040404040404" type="curve" smooth="yes"/>
      <point x="602.7121212121212" y="747.040404040404"/>
      <point x="494.66161616161617" y="863.3333333333334"/>
      <point x="357.97474747474746" y="863.3333333333334" type="curve" smooth="yes"/>
      <point x="275.14141414141415" y="863.3333333333334"/>
      <point x="204.26262626262624" y="831.6262626262627"/>
      <point x="156.60101010101008" y="771.5757575757576" type="curve"/>
      <point x="156.60101010101008" y="654.4242424242424" type="line"/>
      <point x="214.7020202020202" y="727.3030303030303"/>
      <point x="280.020202020202" y="762.7171717171717"/>
      <point x="359.0959595959596" y="762.7171717171717" type="curve" smooth="yes"/>
      <point x="467.1969696969697" y="762.7171717171717"/>
      <point x="575.2474747474747" y="646.4242424242424"/>
    </contour>
  </outline>
</glyph>
<glyph name="exclamdown" format="2">
  <advance width="477.3434343434344"/>
  <unicode hex="00A1"/>
  <outline>
    <contour>
      <point x="199.73232323232324" y="731.4848484848485" type="line"/>
      <point x="174.84343434343432" y="175.49999999999997" type="line"/>
      <point x="174.84343434343432" y="-380.0" type="line"/>
      <point x="302.50000000000006" y="-380.0" type="line"/>
      <point x="302.50000000000006" y="175.49999999999997" type="line"/>
      <point x="278.3434343434344" y="731.4848484848485" type="line"/>
    </contour>
    <contour>
      <point x="238.6717171717172" y="1094.3939393939395" type="curve" smooth="yes"/>
      <point x="184.07070707070707" y="1094.3939393939395"/>
      <point x="146.49999999999997" y="1059.9949494949494"/>
      <point x="146.49999999999997" y="1005.0050505050505" type="curve" smooth="yes"/>
      <point x="146.49999999999997" y="950.0151515151515"/>
      <point x="183.48484848484847" y="913.9090909090909"/>
      <point x="238.6717171717172" y="913.9090909090909" type="curve" smooth="yes"/>
      <point x="293.8585858585859" y="913.9090909090909"/>
      <point x="330.8434343434344" y="950.60101010101"/>
      <point x="330.8434343434344" y="1005.0050505050505" type="curve" smooth="yes"/>
      <point x="330.8434343434344" y="1059.409090909091"/>
      <point x="293.2727272727273" y="1094.3939393939395"/>
    </contour>
  </outline>
</glyph>
<glyph name="cent" format="2">
  <advance width="859.2676767676768"/>
  <unicode hex="00A2"/>
  <outline>
    <contour>
      <point x="558.6515151515152" y="-18.58585858585859" type="curve" smooth="yes"/>
      <point x="645.0202020202021" y="-18.58585858585859"/>
      <point x="732.6565656565657" y="-3.5858585858585865"/>
      <point x="818.3383838383838" y="27.242424242424242" type="curve"/>
      <point x="818.3383838383838" y="133.61616161616166" type="line"/>
      <point x="721.510101010101" y="100.66666666666671"/>
      <point x="644.2929292929293" y="87.2525252525253"/>
      <point x="574.5858585858587" y="87.2525252525253" type="curve" smooth="yes"/>
      <point x="346.39898989898995" y="87.2525252525253"/>
      <point x="225.40404040404047" y="207.31818181818187"/>
      <point x="225.40404040404047" y="544.8787878787879" type="curve" smooth="yes"/>
      <point x="225.40404040404047" y="876.0"/>
      <point x="349.9343434343435" y="993.3838383838383"/>
      <point x="608.5353535353536" y="993.3838383838383" type="curve" smooth="yes"/>
      <point x="676.3888888888889" y="993.3838383838383"/>
      <point x="745.0707070707072" y="983.9696969696969"/>
      <point x="818.3383838383838" y="964.5808080808081" type="curve"/>
      <point x="818.3383838383838" y="1070.9545454545455" type="line"/>
      <point x="747.1666666666667" y="1090.3686868686868"/>
      <point x="675.1161616161617" y="1099.2222222222222"/>
      <point x="602.0151515151515" y="1099.2222222222222" type="curve" smooth="yes"/>
      <point x="276.7828282828283" y="1099.2222222222222"/>
      <point x="99.94444444444443" y="936.6818181818181"/>
      <point x="99.94444444444443" y="541.0252525252525" type="curve" smooth="yes"/>
      <point x="99.94444444444443" y="145.54040404040404"/>
      <point x="264.6111111111111" y="-18.58585858585859"/>
    </contour>
    <contour>
      <point x="498.530303030303" y="-240.0" type="line"/>
      <point x="605.8838383838385" y="-240.0" type="line"/>
      <point x="605.8838383838385" y="8.7878787878788" type="line"/>
      <point x="498.530303030303" y="8.7878787878788" type="line"/>
    </contour>
    <contour>
      <point x="498.530303030303" y="1074.141414141414" type="line"/>
      <point x="605.8838383838385" y="1074.141414141414" type="line"/>
      <point x="605.8838383838385" y="1322.9292929292928" type="line"/>
      <point x="498.530303030303" y="1322.9292929292928" type="line"/>
    </contour>
  </outline>
</glyph>
<glyph name="sterling" format="2">
  <advance width="1247.3383838383838"/>
  <unicode hex="00A3"/>
  <outline>
    <contour>
      <point x="304.6262626262626" y="45.47474747474749" type="line"/>
      <point x="424.18181818181824" y="45.47474747474749" type="line"/>
      <point x="424.18181818181824" y="1055.4545454545455" type="line" smooth="yes"/>
      <point x="424.18181818181824" y="1298.3383838383838"/>
      <point x="557.1717171717172" y="1391.4292929292928"/>
      <point x="819.9242424242425" y="1391.4292929292928" type="curve" smooth="yes"/>
      <point x="923.9242424242425" y="1391.4292929292928"/>
      <point x="1029.3181818181818" y="1377.1363636363635"/>
      <point x="1132.1212121212122" y="1345.4545454545455" type="curve"/>
      <point x="1132.1212121212122" y="1454.3181818181818" type="line"/>
      <point x="1040.5353535353536" y="1483.1464646464647"/>
      <point x="925.4848484848485" y="1498.2929292929293"/>
      <point x="817.9444444444445" y="1498.2929292929293" type="curve" smooth="yes"/>
      <point x="482.24242424242425" y="1498.2929292929293"/>
      <point x="304.6262626262626" y="1354.8232323232323"/>
      <point x="304.6262626262626" y="1052.8181818181818" type="curve" smooth="yes"/>
    </contour>
    <contour>
      <point x="78.53535353535354" y="0.0" type="line"/>
      <point x="1171.439393939394" y="0.0" type="line"/>
      <point x="1171.439393939394" y="104.71717171717177" type="line"/>
      <point x="78.53535353535354" y="104.71717171717177" type="line"/>
    </contour>
    <contour>
      <point x="78.53535353535354" y="699.9848484848485" type="line"/>
      <point x="957.7272727272727" y="699.9848484848485" type="line"/>
      <point x="957.7272727272727" y="800.0151515151515" type="line"/>
      <point x="78.53535353535354" y="800.0151515151515" type="line"/>
    </contour>
  </outline>
</glyph>
<glyph name="yen" format="2">
  <advance width="1192.2676767676767"/>
  <unicode hex="00A5"/>
  <outline>
    <contour>
      <point x="535.6969696969696" y="0.0" type="line"/>
      <point x="657.3030303030304" y="0.0" type="line"/>
      <point x="657.3030303030304" y="716.6666666666666" type="line"/>
      <point x="629.3434343434344" y="624.3181818181818" type="line"/>
      <point x="1190.787878787879" y="1480.0" type="line"/>
      <point x="1060.6969696969697" y="1480.0" type="line"/>
      <point x="575.8131313131313" y="742.1161616161617" type="line"/>
      <point x="621.8232323232323" y="742.1161616161617" type="line"/>
      <point x="137.20707070707076" y="1480.0" type="line"/>
      <point x="-0.42424242424243985" y="1480.0" type="line"/>
      <point x="563.6565656565657" y="624.3181818181818" type="line"/>
      <point x="535.6969696969696" y="717.5454545454545" type="line"/>
    </contour>
    <contour>
      <point x="217.16161616161614" y="307.84343434343435" type="line"/>
      <point x="975.8383838383838" y="307.84343434343435" type="line"/>
      <point x="975.8383838383838" y="397.91414141414145" type="line"/>
      <point x="217.16161616161614" y="397.91414141414145" type="line"/>
    </contour>
    <contour>
      <point x="217.16161616161614" y="650.0858585858585" type="line"/>
      <point x="975.8383838383838" y="650.0858585858585" type="line"/>
      <point x="975.8383838383838" y="740.1565656565657" type="line"/>
      <point x="217.16161616161614" y="740.1565656565657" type="line"/>
    </contour>
  </outline>
</glyph>
<glyph name="brokenbar" format="2">
  <advance width="469.969696969697"/>
  <unicode hex="00A6"/>
  <outline>
    <contour>
      <point x="178.13636363636363" y="836.0" type="line"/>
      <point x="291.83333333333337" y="836.0" type="line"/>
      <point x="291.83333333333337" y="1616.0" type="line"/>
      <point x="178.13636363636363" y="1616.0" type="line"/>
    </contour>
    <contour>
      <point x="178.13636363636363" y="-440.0" type="line"/>
      <point x="291.83333333333337" y="-440.0" type="line"/>
      <point x="291.83333333333337" y="340.0" type="line"/>
      <point x="178.13636363636363" y="340.0" type="line"/>
    </contour>
  </outline>
</glyph>
<glyph name="section" format="2">
  <advance width="991.0505050505051"/>
  <unicode hex="00A7"/>
  <outline>
    <contour>
      <point x="432.1060606060606" y="-18.58585858585859" type="curve" smooth="yes"/>
      <point x="703.6313131313132" y="-18.58585858585859"/>
      <point x="840.4191919191919" y="99.51515151515152"/>
      <point x="840.4191919191919" y="289.520202020202" type="curve" smooth="yes"/>
      <point x="840.4191919191919" y="438.3030303030303"/>
      <point x="764.4141414141415" y="527.2777777777778"/>
      <point x="565.368686868687" y="571.6666666666666" type="curve" smooth="yes"/>
      <point x="418.35353535353534" y="602.5959595959596" type="line" smooth="yes"/>
      <point x="282.51010101010104" y="632.6666666666666"/>
      <point x="232.78282828282832" y="699.7828282828283"/>
      <point x="232.78282828282832" y="798.530303030303" type="curve" smooth="yes"/>
      <point x="232.78282828282832" y="866.8181818181818"/>
      <point x="264.00000000000006" y="925.8383838383838"/>
      <point x="329.459595959596" y="967.8636363636364" type="curve"/>
      <point x="254.2929292929293" y="1025.0707070707072" type="line"/>
      <point x="172.3131313131313" y="970.7525252525253"/>
      <point x="125.2121212121212" y="889.5808080808081"/>
      <point x="125.2121212121212" y="792.60101010101" type="curve" smooth="yes"/>
      <point x="125.2121212121212" y="641.8636363636364"/>
      <point x="203.09595959595958" y="547.010101010101"/>
      <point x="392.55555555555554" y="504.76767676767673" type="curve" smooth="yes"/>
      <point x="539.4242424242425" y="473.83838383838383" type="line" smooth="yes"/>
      <point x="671.3131313131313" y="444.6464646464646"/>
      <point x="724.0151515151515" y="391.530303030303"/>
      <point x="724.0151515151515" y="281.03030303030306" type="curve" smooth="yes"/>
      <point x="724.0151515151515" y="153.43434343434348"/>
      <point x="636.8282828282828" y="79.63636363636368"/>
      <point x="433.7878787878788" y="79.63636363636368" type="curve" smooth="yes"/>
      <point x="340.54040404040404" y="79.63636363636368"/>
      <point x="254.24242424242425" y="91.07575757575762"/>
      <point x="147.8030303030303" y="122.48989898989902" type="curve"/>
      <point x="147.8030303030303" y="22.56060606060606" type="line"/>
      <point x="237.46464646464648" y="-5.4393939393939394"/>
      <point x="331.4949494949495" y="-18.58585858585859"/>
    </contour>
    <contour>
      <point x="739.0959595959596" y="454.02525252525254" type="line"/>
      <point x="818.2727272727274" y="507.7828282828283"/>
      <point x="865.8383838383838" y="586.979797979798"/>
      <point x="865.8383838383838" y="690.2525252525253" type="curve" smooth="yes"/>
      <point x="865.8383838383838" y="842.989898989899"/>
      <point x="789.8333333333334" y="934.5505050505051"/>
      <point x="592.1060606060607" y="978.3535353535353" type="curve" smooth="yes"/>
      <point x="443.7727272727273" y="1008.989898989899" type="line" smooth="yes"/>
      <point x="311.88383838383845" y="1038.1818181818182"/>
      <point x="265.5707070707071" y="1101.2474747474748"/>
      <point x="265.5707070707071" y="1197.7979797979797" type="curve" smooth="yes"/>
      <point x="265.5707070707071" y="1310.2979797979797"/>
      <point x="345.80808080808083" y="1398.070707070707"/>
      <point x="565.0252525252525" y="1398.070707070707" type="curve" smooth="yes"/>
      <point x="646.9040404040404" y="1398.070707070707"/>
      <point x="715.1262626262627" y="1390.070707070707"/>
      <point x="803.5404040404042" y="1366.949494949495" type="curve"/>
      <point x="803.5404040404042" y="1466.878787878788" type="line"/>
      <point x="726.5151515151515" y="1486.2929292929293"/>
      <point x="647.5353535353536" y="1496.2929292929293"/>
      <point x="560.1919191919192" y="1496.2929292929293" type="curve" smooth="yes"/>
      <point x="278.34343434343435" y="1496.2929292929293"/>
      <point x="149.16666666666666" y="1367.3636363636363"/>
      <point x="149.16666666666666" y="1191.8686868686868" type="curve" smooth="yes"/>
      <point x="149.16666666666666" y="1046.550505050505"/>
      <point x="226.75757575757575" y="953.8434343434343"/>
      <point x="419.2929292929293" y="911.1616161616162" type="curve" smooth="yes"/>
      <point x="566.1616161616162" y="880.2323232323232" type="line" smooth="yes"/>
      <point x="702.0050505050506" y="850.1616161616162"/>
      <point x="758.2676767676768" y="792.9949494949495"/>
      <point x="758.2676767676768" y="681.030303030303" type="curve" smooth="yes"/>
      <point x="758.2676767676768" y="606.4747474747475"/>
      <point x="726.4646464646464" y="550.6010101010102"/>
      <point x="660.9040404040404" y="510.5505050505051" type="curve"/>
    </contour>
  </outline>
</glyph>
<glyph name="copyright" format="2">
  <advance width="1711.4040404040404"/>
  <unicode hex="00A9"/>
  <outline>
    <contour>
      <point x="855.7020202020202" y="-22.0" type="curve" smooth="yes"/>
      <point x="1302.580808080808" y="-22.0"/>
      <point x="1600.580808080808" y="282.0"/>
      <point x="1600.580808080808" y="740.0" type="curve" smooth="yes"/>
      <point x="1600.580808080808" y="1198.0"/>
      <point x="1302.580808080808" y="1502.0"/>
      <point x="855.7020202020202" y="1502.0" type="curve" smooth="yes"/>
      <point x="408.82323232323233" y="1502.0"/>
      <point x="110.82323232323232" y="1198.0"/>
      <point x="110.82323232323232" y="740.0" type="curve" smooth="yes"/>
      <point x="110.82323232323232" y="282.0"/>
      <point x="408.82323232323233" y="-22.0"/>
    </contour>
    <contour>
      <point x="894.9747474747475" y="324.0" type="curve" smooth="yes"/>
      <point x="973.560606060606" y="324.0"/>
      <point x="1045.560606060606" y="336.0"/>
      <point x="1110.9242424242425" y="364.24242424242425" type="curve"/>
      <point x="1110.9242424242425" y="457.1919191919192" type="line"/>
      <point x="1029.510101010101" y="427.24242424242425"/>
      <point x="961.9040404040404" y="417.82828282828285"/>
      <point x="904.1969696969697" y="417.82828282828285" type="curve" smooth="yes"/>
      <point x="720.5" y="417.82828282828285"/>
      <point x="607.2878787878789" y="519.6262626262627"/>
      <point x="607.2878787878789" y="737.1212121212121" type="curve" smooth="yes"/>
      <point x="607.2878787878789" y="949.7878787878788"/>
      <point x="719.6212121212121" y="1050.171717171717"/>
      <point x="924.7323232323232" y="1050.171717171717" type="curve" smooth="yes"/>
      <point x="992.6818181818181" y="1050.171717171717"/>
      <point x="1049.2171717171718" y="1040.7575757575758"/>
      <point x="1110.9242424242425" y="1023.9292929292928" type="curve"/>
      <point x="1110.9242424242425" y="1116.878787878788" type="line"/>
      <point x="1048.0959595959596" y="1136.0"/>
      <point x="987.8030303030303" y="1144.0"/>
      <point x="918.9242424242424" y="1144.0" type="curve" smooth="yes"/>
      <point x="652.5808080808081" y="1144.0"/>
      <point x="501.8939393939394" y="995.4141414141415"/>
      <point x="501.8939393939394" y="733.7070707070707" type="curve" smooth="yes"/>
      <point x="501.8939393939394" y="463.75757575757575"/>
      <point x="658.8232323232323" y="324.0"/>
    </contour>
    <contour>
      <point x="855.7020202020202" y="67.09090909090912" type="curve" smooth="yes"/>
      <point x="459.66161616161617" y="67.09090909090912"/>
      <point x="201.3787878787879" y="333.42424242424244"/>
      <point x="201.3787878787879" y="740.0" type="curve" smooth="yes"/>
      <point x="201.3787878787879" y="1146.5757575757575"/>
      <point x="459.66161616161617" y="1412.909090909091"/>
      <point x="855.7020202020202" y="1412.909090909091" type="curve" smooth="yes"/>
      <point x="1251.7424242424242" y="1412.909090909091"/>
      <point x="1510.0252525252524" y="1146.5757575757575"/>
      <point x="1510.0252525252524" y="740.0" type="curve" smooth="yes"/>
      <point x="1510.0252525252524" y="333.42424242424244"/>
      <point x="1251.7424242424242" y="67.09090909090912"/>
    </contour>
  </outline>
</glyph>
<glyph name="ordfeminine" format="2">
  <advance width="850.5555555555557"/>
  <unicode hex="00AA"/>
  <outline>
    <contour>
      <point x="348.6313131313131" y="595.4141414141415" type="curve" smooth="yes"/>
      <point x="456.7020202020202" y="595.4141414141415"/>
      <point x="556.9191919191919" y="636.9242424242424"/>
      <point x="618.5757575757575" y="708.9242424242424" type="curve"/>
      <point x="626.1868686868687" y="708.9242424242424" type="line"/>
      <point x="635.4090909090909" y="610.0" type="line"/>
      <point x="730.8080808080808" y="610.0" type="line"/>
      <point x="730.8080808080808" y="1184.8383838383838" type="line" smooth="yes"/>
      <point x="730.8080808080808" y="1417.6060606060605"/>
      <point x="614.1212121212121" y="1493.4646464646464"/>
      <point x="390.030303030303" y="1493.4646464646464" type="curve" smooth="yes"/>
      <point x="305.95454545454544" y="1493.4646464646464"/>
      <point x="208.7070707070707" y="1479.7575757575758"/>
      <point x="132.02020202020202" y="1453.050505050505" type="curve"/>
      <point x="132.02020202020202" y="1357.560606060606" type="line"/>
      <point x="218.4090909090909" y="1386.0959595959596"/>
      <point x="305.4343434343434" y="1398.949494949495"/>
      <point x="375.8989898989899" y="1398.949494949495" type="curve" smooth="yes"/>
      <point x="537.4343434343434" y="1398.949494949495"/>
      <point x="618.9141414141413" y="1353.2929292929293"/>
      <point x="618.9141414141413" y="1194.1616161616162" type="curve" smooth="yes"/>
      <point x="618.9141414141413" y="798.7878787878788" type="line"/>
      <point x="551.5555555555555" y="718.8232323232323"/>
      <point x="461.4191919191919" y="685.3888888888889"/>
      <point x="376.5757575757576" y="685.3888888888889" type="curve" smooth="yes"/>
      <point x="252.4646464646465" y="685.3888888888889"/>
      <point x="190.46969696969703" y="741.3838383838385"/>
      <point x="190.46969696969703" y="843.8383838383838" type="curve" smooth="yes"/>
      <point x="190.46969696969703" y="940.7323232323232"/>
      <point x="252.87878787878793" y="994.1666666666666"/>
      <point x="405.7676767676768" y="1009.8232323232323" type="curve" smooth="yes"/>
      <point x="665.2878787878788" y="1036.0151515151515" type="line"/>
      <point x="655.5505050505051" y="1112.7373737373737" type="line"/>
      <point x="395.979797979798" y="1086.2525252525252" type="line" smooth="yes"/>
      <point x="170.99494949494948" y="1065.010101010101"/>
      <point x="76.18686868686868" y="981.2525252525253"/>
      <point x="76.18686868686868" y="831.6868686868687" type="curve" smooth="yes"/>
      <point x="76.18686868686868" y="686.3686868686868"/>
      <point x="179.47979797979798" y="595.4141414141415"/>
    </contour>
  </outline>
</glyph>
<glyph name="guillemetleft" format="2">
  <advance width="952.6212121212122"/>
  <unicode hex="00AB"/>
  <outline>
    <contour>
      <point x="373.7474747474747" y="138.53535353535352" type="line"/>
      <point x="499.8888888888889" y="138.53535353535352" type="line"/>
      <point x="245.06060606060612" y="561.4646464646464" type="line"/>
      <point x="499.8888888888889" y="984.3939393939394" type="line"/>
      <point x="373.7474747474747" y="984.3939393939394" type="line"/>
      <point x="118.9191919191919" y="561.4646464646464" type="line"/>
    </contour>
    <contour>
      <point x="747.5606060606061" y="138.53535353535352" type="line"/>
      <point x="873.7020202020203" y="138.53535353535352" type="line"/>
      <point x="618.8737373737374" y="561.4646464646464" type="line"/>
      <point x="873.7020202020203" y="984.3939393939394" type="line"/>
      <point x="747.5606060606061" y="984.3939393939394" type="line"/>
      <point x="492.73232323232327" y="561.4646464646464" type="line"/>
    </contour>
  </outline>
</glyph>
<glyph name="logicalnot" format="2">
  <advance width="1333.7070707070707"/>
  <unicode hex="00AC"/>
  <outline>
    <contour>
      <point x="1080.2676767676767" y="193.17171717171718" type="line"/>
      <point x="1187.2272727272727" y="193.17171717171718" type="line"/>
      <point x="1187.2272727272727" y="810.7474747474748" type="line"/>
      <point x="156.60101010101008" y="810.7474747474748" type="line"/>
      <point x="156.60101010101008" y="709.2525252525252" type="line"/>
      <point x="1080.2676767676767" y="709.2525252525252" type="line"/>
    </contour>
  </outline>
</glyph>
<glyph name="softhyphen" format="2">
  <advance width="821.1414141414142"/>
  <unicode hex="00AD"/>
  <outline>
    <contour>
      <point x="156.60101010101008" y="509.10606060606057" type="line"/>
      <point x="664.5404040404042" y="509.10606060606057" type="line"/>
      <point x="664.5404040404042" y="613.8232323232323" type="line"/>
      <point x="156.60101010101008" y="613.8232323232323" type="line"/>
    </contour>
  </outline>
</glyph>
<glyph name="registered" format="2">
  <advance width="1518.6161616161617"/>
  <unicode hex="00AE"/>
  <outline>
    <contour>
      <point x="759.3080808080808" y="268.0" type="curve" smooth="yes"/>
      <point x="1121.3080808080808" y="268.0"/>
      <point x="1369.3080808080808" y="518.0"/>
      <point x="1369.3080808080808" y="882.0" type="curve" smooth="yes"/>
      <point x="1369.3080808080808" y="1246.0"/>
      <point x="1121.3080808080808" y="1498.0"/>
      <point x="759.3080808080808" y="1498.0" type="curve" smooth="yes"/>
      <point x="397.3080808080808" y="1498.0"/>
      <point x="149.3080808080808" y="1246.0"/>
      <point x="149.3080808080808" y="882.0" type="curve" smooth="yes"/>
      <point x="149.3080808080808" y="518.0"/>
      <point x="397.3080808080808" y="268.0"/>
    </contour>
    <contour>
      <point x="926.7626262626262" y="600.0" type="line"/>
      <point x="1018.2878787878788" y="600.0" type="line"/>
      <point x="845.8030303030303" y="854.1414141414141" type="line"/>
      <point x="770.570707070707" y="828.1414141414141" type="line"/>
    </contour>
    <contour>
      <point x="759.3080808080808" y="347.1818181818182" type="curve" smooth="yes"/>
      <point x="440.0959595959596" y="347.1818181818182"/>
      <point x="231.95454545454547" y="557.9090909090909"/>
      <point x="231.95454545454547" y="882.0" type="curve" smooth="yes"/>
      <point x="231.95454545454547" y="1206.3838383838383"/>
      <point x="440.0959595959596" y="1418.8181818181818"/>
      <point x="759.3080808080808" y="1418.8181818181818" type="curve" smooth="yes"/>
      <point x="1078.520202020202" y="1418.8181818181818"/>
      <point x="1286.6616161616162" y="1206.3838383838383"/>
      <point x="1286.6616161616162" y="882.0" type="curve" smooth="yes"/>
      <point x="1286.6616161616162" y="557.9090909090909"/>
      <point x="1078.520202020202" y="347.1818181818182"/>
    </contour>
    <contour>
      <point x="549.2575757575758" y="600.0" type="line"/>
      <point x="629.9040404040404" y="600.0" type="line"/>
      <point x="630.7828282828283" y="820.1414141414141" type="line"/>
      <point x="746.1868686868687" y="820.1414141414141" type="line" smooth="yes"/>
      <point x="910.8232323232323" y="820.1414141414141"/>
      <point x="993.1161616161617" y="885.8484848484849"/>
      <point x="993.1161616161617" y="1005.070707070707" type="curve" smooth="yes"/>
      <point x="993.1161616161617" y="1124.2929292929293"/>
      <point x="908.8232323232323" y="1192.0"/>
      <point x="746.1868686868687" y="1192.0" type="curve" smooth="yes"/>
      <point x="549.2575757575758" y="1192.0" type="line"/>
    </contour>
    <contour>
      <point x="630.7828282828283" y="892.3939393939394" type="line"/>
      <point x="630.7828282828283" y="1119.7474747474748" type="line"/>
      <point x="760.2373737373737" y="1119.7474747474748" type="line" smooth="yes"/>
      <point x="862.8636363636364" y="1119.7474747474748"/>
      <point x="913.0555555555555" y="1082.090909090909"/>
      <point x="913.0555555555555" y="1005.070707070707" type="curve" smooth="yes"/>
      <point x="913.0555555555555" y="928.0505050505051"/>
      <point x="864.8636363636364" y="892.3939393939394"/>
      <point x="760.2373737373737" y="892.3939393939394" type="curve" smooth="yes"/>
    </contour>
  </outline>
</glyph>
<glyph name="macron" format="2">
  <advance width="1029.2929292929293"/>
  <unicode hex="00AF"/>
  <anchor x="514.6464646464647" y="1200.0" name="_top"/>
  <anchor x="514.6464646464647" y="1564.7878787878788" name="top"/>
  <outline>
    <contour>
      <point x="216.56060606060606" y="1379.5" type="line"/>
      <point x="812.7323232323233" y="1379.5" type="line"/>
      <point x="812.7323232323233" y="1466.1818181818182" type="line"/>
      <point x="216.56060606060606" y="1466.1818181818182" type="line"/>
    </contour>
  </outline>
</glyph>
<glyph name="degree" format="2">
  <advance width="981.3636363636364"/>
  <unicode hex="00B0"/>
  <outline>
    <contour>
      <point x="490.6818181818182" y="815.8888888888889" type="curve" smooth="yes"/>
      <point x="689.6616161616162" y="815.8888888888889"/>
      <point x="832.0555555555555" y="959.4040404040404"/>
      <point x="832.0555555555555" y="1156.3838383838383" type="curve" smooth="yes"/>
      <point x="832.0555555555555" y="1353.3636363636363"/>
      <point x="689.6616161616162" y="1496.5858585858587"/>
      <point x="490.6818181818182" y="1496.5858585858587" type="curve" smooth="yes"/>
      <point x="291.7020202020202" y="1496.5858585858587"/>
      <point x="149.3080808080808" y="1353.3636363636363"/>
      <point x="149.3080808080808" y="1156.3838383838383" type="curve" smooth="yes"/>
      <point x="149.3080808080808" y="959.4040404040404"/>
      <point x="291.7020202020202" y="815.8888888888889"/>
    </contour>
    <contour>
      <point x="490.6818181818182" y="905.2272727272727" type="curve" smooth="yes"/>
      <point x="346.520202020202" y="905.2272727272727"/>
      <point x="243.55050505050508" y="1002.489898989899"/>
      <point x="243.55050505050508" y="1156.3838383838383" type="curve" smooth="yes"/>
      <point x="243.55050505050508" y="1310.4242424242425"/>
      <point x="346.8131313131313" y="1407.2474747474748"/>
      <point x="490.6818181818182" y="1407.2474747474748" type="curve" smooth="yes"/>
      <point x="634.5505050505051" y="1407.2474747474748"/>
      <point x="737.8131313131313" y="1310.4242424242425"/>
      <point x="737.8131313131313" y="1156.3838383838383" type="curve" smooth="yes"/>
      <point x="737.8131313131313" y="1002.489898989899"/>
      <point x="634.8434343434343" y="905.2272727272727"/>
    </contour>
  </outline>
</glyph>
<glyph name="plusminus" format="2">
  <advance width="1069.909090909091"/>
  <unicode hex="00B1"/>
  <outline>
    <contour>
      <point x="481.47474747474746" y="328.01010101010104" type="line"/>
      <point x="588.4343434343434" y="328.01010101010104" type="line"/>
      <point x="588.4343434343434" y="667.1717171717172" type="line"/>
      <point x="913.3080808080808" y="667.1717171717172" type="line"/>
      <point x="913.3080808080808" y="768.6666666666667" type="line"/>
      <point x="588.4343434343434" y="768.6666666666667" type="line"/>
      <point x="588.4343434343434" y="1107.828282828283" type="line"/>
      <point x="481.47474747474746" y="1107.828282828283" type="line"/>
      <point x="481.47474747474746" y="768.6666666666667" type="line"/>
      <point x="156.60101010101008" y="768.6666666666667" type="line"/>
      <point x="156.60101010101008" y="667.1717171717172" type="line"/>
      <point x="481.47474747474746" y="667.1717171717172" type="line"/>
    </contour>
    <contour>
      <point x="156.60101010101008" y="0.14646464646464666" type="line"/>
      <point x="913.3080808080808" y="0.14646464646464666" type="line"/>
      <point x="913.3080808080808" y="101.64141414141419" type="line"/>
      <point x="156.60101010101008" y="101.64141414141419" type="line"/>
    </contour>
  </outline>
</glyph>
<glyph name="acute" format="2">
  <advance width="1029.2929292929293"/>
  <unicode hex="00B4"/>
  <anchor x="514.6464646464647" y="1200.0" name="_top"/>
  <anchor x="514.6464646464647" y="1570.6464646464647" name="top"/>
  <outline>
    <contour>
      <point x="458.9191919191919" y="1257.5555555555557" type="line"/>
      <point x="570.3737373737374" y="1257.5555555555557" type="line"/>
      <point x="802.7727272727274" y="1616.0" type="line"/>
      <point x="670.5808080808081" y="1616.0" type="line"/>
    </contour>
  </outline>
</glyph>
<glyph name="paragraph" format="2">
  <advance width="1211.6818181818182"/>
  <unicode hex="00B6"/>
  <outline>
    <contour>
      <point x="701.6363636363636" y="0.0" type="line"/>
      <point x="802.5909090909091" y="0.0" type="line"/>
      <point x="802.5909090909091" y="1480.0" type="line"/>
      <point x="722.4191919191919" y="1488.7323232323233"/>
      <point x="629.6616161616162" y="1494.878787878788"/>
      <point x="533.3686868686868" y="1494.878787878788" type="curve" smooth="yes"/>
      <point x="244.28787878787878" y="1494.878787878788"/>
      <point x="93.58080808080807" y="1341.0959595959596"/>
      <point x="93.58080808080807" y="997.9191919191919" type="curve" smooth="yes"/>
      <point x="93.58080808080807" y="674.5959595959596"/>
      <point x="235.45959595959596" y="499.3989898989899"/>
      <point x="555.5505050505051" y="499.3989898989899" type="curve" smooth="yes"/>
      <point x="609.4242424242424" y="499.3989898989899"/>
      <point x="652.3232323232323" y="502.10606060606057"/>
      <point x="701.6363636363636" y="508.080808080808" type="curve"/>
    </contour>
    <contour>
      <point x="932.5909090909091" y="0.0" type="line"/>
      <point x="1033.5454545454545" y="0.0" type="line"/>
      <point x="1033.5454545454545" y="1480.0" type="line"/>
      <point x="932.5909090909091" y="1480.0" type="line"/>
    </contour>
  </outline>
</glyph>
<glyph name="cedilla" format="2">
  <advance width="1029.2929292929293"/>
  <unicode hex="00B8"/>
  <anchor x="514.6464646464647" y="0.0" name="_bottom"/>
  <outline>
    <contour>
      <point x="517.5959595959596" y="-408.7878787878788" type="curve" smooth="yes"/>
      <point x="641.0454545454546" y="-408.7878787878788"/>
      <point x="709.8535353535353" y="-351.5656565656566"/>
      <point x="709.8535353535353" y="-258.02525252525254" type="curve" smooth="yes"/>
      <point x="709.8535353535353" y="-162.48484848484847"/>
      <point x="643.89898989899" y="-106.55555555555554"/>
      <point x="523.2575757575758" y="-106.55555555555554" type="curve"/>
      <point x="556.3636363636364" y="-139.07070707070707" type="line"/>
      <point x="556.3636363636364" y="20.0" type="line"/>
      <point x="480.1515151515151" y="20.0" type="line"/>
      <point x="480.1515151515151" y="-166.489898989899" type="line"/>
      <point x="515.0808080808081" y="-166.489898989899" type="line" smooth="yes"/>
      <point x="591.4444444444445" y="-166.489898989899"/>
      <point x="631.4191919191919" y="-194.02525252525254"/>
      <point x="631.4191919191919" y="-255.24242424242425" type="curve" smooth="yes"/>
      <point x="631.4191919191919" y="-314.04545454545456"/>
      <point x="593.4444444444445" y="-341.9949494949495"/>
      <point x="516.9343434343434" y="-341.9949494949495" type="curve" smooth="yes"/>
      <point x="465.95959595959596" y="-341.9949494949495"/>
      <point x="408.76262626262627" y="-332.14141414141415"/>
      <point x="350.7878787878788" y="-302.8989898989899" type="curve"/>
      <point x="350.7878787878788" y="-372.95959595959596" type="line"/>
      <point x="394.6919191919192" y="-396.0808080808081"/>
      <point x="460.1060606060606" y="-408.7878787878788"/>
    </contour>
  </outline>
</glyph>
<glyph name="onesuperior" format="2">
  <advance width="771.1161616161617"/>
  <unicode hex="00B9"/>
  <outline>
    <contour>
      <point x="376.0656565656566" y="-114.53535353535354" type="line"/>
      <point x="479.7575757575758" y="-114.53535353535354" type="line"/>
      <point x="479.7575757575758" y="868.0" type="line"/>
      <point x="412.979797979798" y="868.0" type="line"/>
      <point x="138.82828282828282" y="670.6111111111111" type="line"/>
      <point x="138.82828282828282" y="567.4141414141413" type="line"/>
      <point x="412.979797979798" y="764.8030303030303" type="line"/>
      <point x="376.0656565656566" y="790.010101010101" type="line"/>
    </contour>
    <contour>
      <point x="142.07070707070707" y="-136.0" type="line"/>
      <point x="701.89898989899" y="-136.0" type="line"/>
      <point x="701.89898989899" y="-44.26767676767673" type="line"/>
      <point x="142.07070707070707" y="-44.26767676767673" type="line"/>
    </contour>
  </outline>
</glyph>
<glyph name="ordmasculine" format="2">
  <advance width="925.969696969697"/>
  <unicode hex="00BA"/>
  <outline>
    <contour>
      <point x="462.9848484848485" y="595.4141414141415" type="curve" smooth="yes"/>
      <point x="692.0959595959596" y="595.4141414141415"/>
      <point x="843.6363636363637" y="734.0050505050505"/>
      <point x="843.6363636363637" y="1046.1464646464647" type="curve" smooth="yes"/>
      <point x="843.6363636363637" y="1358.2878787878788"/>
      <point x="692.0959595959596" y="1493.4646464646464"/>
      <point x="462.9848484848485" y="1493.4646464646464" type="curve" smooth="yes"/>
      <point x="233.87373737373736" y="1493.4646464646464"/>
      <point x="82.33333333333331" y="1359.020202020202"/>
      <point x="82.33333333333331" y="1046.1464646464647" type="curve" smooth="yes"/>
      <point x="82.33333333333331" y="733.2727272727273"/>
      <point x="233.87373737373736" y="595.4141414141415"/>
    </contour>
    <contour>
      <point x="462.9848484848485" y="690.7828282828283" type="curve" smooth="yes"/>
      <point x="302.3888888888889" y="690.7828282828283"/>
      <point x="197.78787878787884" y="780.7020202020202"/>
      <point x="197.78787878787884" y="1046.1464646464647" type="curve" smooth="yes"/>
      <point x="197.78787878787884" y="1311.7373737373737"/>
      <point x="302.3888888888889" y="1398.0959595959596"/>
      <point x="462.9848484848485" y="1398.0959595959596" type="curve" smooth="yes"/>
      <point x="623.8737373737374" y="1398.0959595959596"/>
      <point x="728.1818181818181" y="1311.7373737373737"/>
      <point x="728.1818181818181" y="1046.1464646464647" type="curve" smooth="yes"/>
      <point x="728.1818181818181" y="780.7020202020202"/>
      <point x="623.8737373737374" y="690.7828282828283"/>
    </contour>
  </outline>
</glyph>
<glyph name="guillemetright" format="2">
  <advance width="952.6212121212122"/>
  <unicode hex="00BB"/>
  <outline>
    <contour>
      <point x="78.9191919191919" y="138.53535353535352" type="line"/>
      <point x="205.06060606060612" y="138.53535353535352" type="line"/>
      <point x="459.8888888888889" y="561.4646464646464" type="line"/>
      <point x="205.06060606060612" y="984.3939393939394" type="line"/>
      <point x="78.9191919191919" y="984.3939393939394" type="line"/>
      <point x="333.7474747474747" y="561.4646464646464" type="line"/>
    </contour>
    <contour>
      <point x="452.73232323232327" y="138.53535353535352" type="line"/>
      <point x="578.8737373737374" y="138.53535353535352" type="line"/>
      <point x="833.7020202020203" y="561.4646464646464" type="line"/>
      <point x="578.8737373737374" y="984.3939393939394" type="line"/>
      <point x="452.73232323232327" y="984.3939393939394" type="line"/>
      <point x="707.5606060606061" y="561.4646464646464" type="line"/>
    </contour>
  </outline>
</glyph>
<glyph name="onequarter" format="2">
  <advance width="1795.6969696969697"/>
  <unicode hex="00BC"/>
  <outline>
    <contour>
      <point x="376.0656565656566" y="637.4646464646464" type="line"/>
      <point x="479.7575757575758" y="637.4646464646464" type="line"/>
      <point x="479.7575757575758" y="1620.0" type="line"/>
      <point x="412.979797979798" y="1620.0" type="line"/>
      <point x="138.82828282828282" y="1422.611111111111" type="line"/>
      <point x="138.82828282828282" y="1319.4141414141413" type="line"/>
      <point x="412.979797979798" y="1516.8030303030303" type="line"/>
      <point x="376.0656565656566" y="1542.010101010101" type="line"/>
    </contour>
    <contour>
      <point x="142.07070707070707" y="616.0" type="line"/>
      <point x="701.89898989899" y="616.0" type="line"/>
      <point x="701.89898989899" y="707.7323232323233" type="line"/>
      <point x="142.07070707070707" y="707.7323232323233" type="line"/>
    </contour>
    <contour>
      <point x="448.79292929292933" y="-136.0" type="line"/>
      <point x="556.2424242424244" y="-136.0" type="line"/>
      <point x="1346.9040404040404" y="1616.0" type="line"/>
      <point x="1239.4545454545455" y="1616.0" type="line"/>
    </contour>
    <contour>
      <point x="1055.969696969697" y="104.42929292929291" type="line"/>
      <point x="1769.5757575757577" y="104.42929292929291" type="line"/>
      <point x="1769.5757575757577" y="191.6717171717172" type="line"/>
      <point x="1143.6565656565658" y="191.6717171717172" type="line"/>
      <point x="1159.4141414141416" y="163.4949494949495" type="line"/>
      <point x="1531.0101010101012" y="864.0" type="line"/>
      <point x="1428.1515151515152" y="864.0" type="line"/>
      <point x="1055.969696969697" y="164.34848484848487" type="line"/>
    </contour>
    <contour>
      <point x="1533.0151515151515" y="-136.0" type="line"/>
      <point x="1628.409090909091" y="-136.0" type="line"/>
      <point x="1628.409090909091" y="526.0" type="line"/>
      <point x="1551.89898989899" y="526.0" type="line"/>
      <point x="1533.0151515151515" y="191.6717171717172" type="line"/>
    </contour>
  </outline>
</glyph>
<glyph name="onehalf" format="2">
  <advance width="1795.6969696969697"/>
  <unicode hex="00BD"/>
  <outline>
    <contour>
      <point x="376.0656565656566" y="637.4646464646464" type="line"/>
      <point x="479.7575757575758" y="637.4646464646464" type="line"/>
      <point x="479.7575757575758" y="1620.0" type="line"/>
      <point x="412.979797979798" y="1620.0" type="line"/>
      <point x="138.82828282828282" y="1422.611111111111" type="line"/>
      <point x="138.82828282828282" y="1319.4141414141413" type="line"/>
      <point x="412.979797979798" y="1516.8030303030303" type="line"/>
      <point x="376.0656565656566" y="1542.010101010101" type="line"/>
    </contour>
    <contour>
      <point x="142.07070707070707" y="616.0" type="line"/>
      <point x="701.89898989899" y="616.0" type="line"/>
      <point x="701.89898989899" y="707.7323232323233" type="line"/>
      <point x="142.07070707070707" y="707.7323232323233" type="line"/>
    </contour>
    <contour>
      <point x="448.79292929292933" y="-136.0" type="line"/>
      <point x="556.2424242424244" y="-136.0" type="line"/>
      <point x="1346.9040404040404" y="1616.0" type="line"/>
      <point x="1239.4545454545455" y="1616.0" type="line"/>
    </contour>
    <contour>
      <point x="1115.9444444444446" y="-136.0" type="line"/>
      <point x="1706.7727272727275" y="-136.0" type="line"/>
      <point x="1706.7727272727275" y="-44.26767676767673" type="line"/>
      <point x="1226.6414141414143" y="-44.26767676767673" type="line"/>
      <point x="1234.737373737374" y="-73.90909090909088" type="line"/>
      <point x="1497.7272727272727" y="262.56060606060606" type="line" smooth="yes"/>
      <point x="1614.0909090909092" y="410.4090909090909"/>
      <point x="1658.6515151515152" y="502.8484848484848"/>
      <point x="1659.5050505050506" y="610.530303030303" type="curve" smooth="yes"/>
      <point x="1660.358585858586" y="795.8030303030303"/>
      <point x="1542.7929292929293" y="876.2929292929293"/>
      <point x="1339.5606060606062" y="876.2929292929293" type="curve" smooth="yes"/>
      <point x="1250.9494949494951" y="876.2929292929293"/>
      <point x="1165.7020202020203" y="863.1464646464647"/>
      <point x="1103.79797979798" y="838.439393939394" type="curve"/>
      <point x="1103.79797979798" y="746.0252525252525" type="line"/>
      <point x="1171.3333333333335" y="772.1464646464647"/>
      <point x="1246.2626262626263" y="785.8787878787879"/>
      <point x="1329.530303030303" y="785.8787878787879" type="curve" smooth="yes"/>
      <point x="1478.5757575757577" y="785.8787878787879"/>
      <point x="1554.8383838383838" y="731.6868686868686"/>
      <point x="1554.8383838383838" y="602.1363636363636" type="curve" smooth="yes"/>
      <point x="1554.8383838383838" y="516.7272727272727"/>
      <point x="1513.7424242424242" y="435.4141414141414"/>
      <point x="1412.2828282828284" y="305.8838383838384" type="curve" smooth="yes"/>
      <point x="1115.9444444444446" y="-77.52020202020199" type="line"/>
    </contour>
  </outline>
</glyph>
<glyph name="threequarters" format="2">
  <advance width="1795.6969696969697"/>
  <unicode hex="00BE"/>
  <outline>
    <contour>
      <point x="320.0050505050505" y="603.7070707070707" type="curve" smooth="yes"/>
      <point x="562.8686868686868" y="603.7070707070707"/>
      <point x="688.6767676767677" y="707.3181818181819"/>
      <point x="688.6767676767677" y="885.6363636363636" type="curve" smooth="yes"/>
      <point x="688.6767676767677" y="1030.5858585858587"/>
      <point x="596.7525252525253" y="1122.2424242424242"/>
      <point x="429.489898989899" y="1143.388888888889" type="curve"/>
      <point x="429.489898989899" y="1127.8535353535353" type="line"/>
      <point x="567.7777777777778" y="1156.9747474747476"/>
      <point x="654.8232323232323" y="1246.0959595959596"/>
      <point x="654.8232323232323" y="1375.3131313131314" type="curve" smooth="yes"/>
      <point x="654.8232323232323" y="1536.5353535353536"/>
      <point x="540.7222222222223" y="1628.2929292929293"/>
      <point x="330.3939393939394" y="1628.2929292929293" type="curve" smooth="yes"/>
      <point x="248.34343434343435" y="1628.2929292929293"/>
      <point x="159.65656565656565" y="1615.7070707070707"/>
      <point x="95.92424242424242" y="1592.1464646464647" type="curve"/>
      <point x="95.92424242424242" y="1502.8080808080808" type="line"/>
      <point x="168.75252525252523" y="1530.2222222222222"/>
      <point x="246.12121212121212" y="1541.8080808080808"/>
      <point x="321.8282828282828" y="1541.8080808080808" type="curve" smooth="yes"/>
      <point x="474.5050505050505" y="1541.8080808080808"/>
      <point x="553.6212121212121" y="1481.3737373737374"/>
      <point x="553.6212121212121" y="1368.2121212121212" type="curve" smooth="yes"/>
      <point x="553.6212121212121" y="1243.2727272727273"/>
      <point x="456.4848484848485" y="1173.3030303030303"/>
      <point x="270.1565656565657" y="1173.3030303030303" type="curve" smooth="yes"/>
      <point x="201.7979797979798" y="1173.3030303030303" type="line"/>
      <point x="201.7979797979798" y="1085.3787878787878" type="line"/>
      <point x="327.3939393939394" y="1085.3787878787878" type="line" smooth="yes"/>
      <point x="506.82323232323233" y="1085.3787878787878"/>
      <point x="588.2070707070707" y="1013.1414141414141"/>
      <point x="588.2070707070707" y="891.4191919191919" type="curve" smooth="yes"/>
      <point x="588.2070707070707" y="760.3080808080808"/>
      <point x="497.55555555555554" y="690.3383838383838"/>
      <point x="317.5151515151515" y="690.3383838383838" type="curve" smooth="yes"/>
      <point x="239.92929292929293" y="690.3383838383838"/>
      <point x="152.14646464646464" y="703.1919191919192"/>
      <point x="71.26767676767676" y="731.0202020202021" type="curve"/>
      <point x="71.26767676767676" y="641.6818181818181" type="line"/>
      <point x="147.61111111111111" y="616.4141414141415"/>
      <point x="234.51515151515153" y="603.7070707070707"/>
    </contour>
    <contour>
      <point x="448.79292929292933" y="-136.0" type="line"/>
      <point x="556.2424242424244" y="-136.0" type="line"/>
      <point x="1346.9040404040404" y="1616.0" type="line"/>
      <point x="1239.4545454545455" y="1616.0" type="line"/>
    </contour>
    <contour>
      <point x="1055.969696969697" y="104.42929292929291" type="line"/>
      <point x="1769.5757575757577" y="104.42929292929291" type="line"/>
      <point x="1769.5757575757577" y="191.6717171717172" type="line"/>
      <point x="1143.6565656565658" y="191.6717171717172" type="line"/>
      <point x="1159.4141414141416" y="163.4949494949495" type="line"/>
      <point x="1531.0101010101012" y="864.0" type="line"/>
      <point x="1428.1515151515152" y="864.0" type="line"/>
      <point x="1055.969696969697" y="164.34848484848487" type="line"/>
    </contour>
    <contour>
      <point x="1533.0151515151515" y="-136.0" type="line"/>
      <point x="1628.409090909091" y="-136.0" type="line"/>
      <point x="1628.409090909091" y="526.0" type="line"/>
      <point x="1551.89898989899" y="526.0" type="line"/>
      <point x="1533.0151515151515" y="191.6717171717172" type="line"/>
    </contour>
  </outline>
</glyph>
<glyph name="questiondown" format="2">
  <advance width="881.8535353535353"/>
  <unicode hex="00BF"/>
  <outline>
    <contour>
      <point x="524.7828282828283" y="748.9494949494949" type="line"/>
      <point x="446.17171717171715" y="748.9494949494949" type="line"/>
      <point x="433.3888888888889" y="399.3939393939394" type="line"/>
      <point x="160.00505050505052" y="292.5959595959596"/>
      <point x="61.217171717171716" y="166.2777777777778"/>
      <point x="61.217171717171716" y="-37.77272727272726" type="curve" smooth="yes"/>
      <point x="61.217171717171716" y="-264.65656565656565"/>
      <point x="220.07575757575756" y="-400.0"/>
      <point x="511.0909090909091" y="-400.0" type="curve" smooth="yes"/>
      <point x="626.7272727272727" y="-400.0"/>
      <point x="747.6111111111112" y="-380.4141414141414"/>
      <point x="840.4898989898991" y="-345.85353535353534" type="curve"/>
      <point x="840.4898989898991" y="-239.91919191919186" type="line"/>
      <point x="735.6616161616162" y="-278.18686868686865"/>
      <point x="628.8535353535353" y="-295.77272727272725"/>
      <point x="519.5606060606061" y="-295.77272727272725" type="curve" smooth="yes"/>
      <point x="297.3737373737374" y="-295.77272727272725"/>
      <point x="181.45454545454552" y="-200.560606060606"/>
      <point x="181.45454545454552" y="-32.207070707070685" type="curve" smooth="yes"/>
      <point x="181.45454545454552" y="135.41414141414143"/>
      <point x="270.50000000000006" y="240.65151515151513"/>
      <point x="545.7171717171718" y="331.98484848484844" type="curve"/>
    </contour>
    <contour>
      <point x="485.4040404040404" y="1094.3939393939395" type="curve" smooth="yes"/>
      <point x="429.0959595959596" y="1094.3939393939395"/>
      <point x="393.2323232323232" y="1058.2878787878788"/>
      <point x="393.2323232323232" y="1006.9090909090909" type="curve" smooth="yes"/>
      <point x="393.2323232323232" y="953.8232323232323"/>
      <point x="430.2171717171717" y="917.7171717171717"/>
      <point x="485.4040404040404" y="917.7171717171717" type="curve" smooth="yes"/>
      <point x="540.5909090909091" y="917.7171717171717"/>
      <point x="577.5757575757576" y="953.2373737373737"/>
      <point x="577.5757575757576" y="1006.9090909090909" type="curve" smooth="yes"/>
      <point x="577.5757575757576" y="1058.8737373737374"/>
      <point x="540.0050505050506" y="1094.3939393939395"/>
    </contour>
  </outline>
</glyph>
<glyph name="Atilde" format="2">
  <advance width="1321.7373737373737"/>
  <unicode hex="00C3"/>
  <anchor x="661.5757575757576" y="1520.0" name="_top"/>
  <anchor x="661.7222222222223" y="0.0" name="bottom"/>
  <anchor x="1289.5707070707072" y="0.0" name="ogonek"/>
  <anchor x="661.5757575757576" y="1520.0" name="top"/>
  <outline>
    <contour>
      <point x="32.16666666666666" y="0.0" type="line"/>
      <point x="155.98989898989905" y="0.0" type="line"/>
      <point x="672.6010101010102" y="1418.7626262626263" type="line"/>
      <point x="646.5505050505051" y="1418.7626262626263" type="line"/>
      <point x="1163.4545454545455" y="0.0" type="line"/>
      <point x="1289.5707070707072" y="0.0" type="line"/>
      <point x="744.2929292929293" y="1480.0" type="line"/>
      <point x="577.4444444444445" y="1480.0" type="line"/>
    </contour>
    <contour>
      <point x="297.0353535353536" y="500.31818181818176" type="line"/>
      <point x="1024.2626262626263" y="500.31818181818176" type="line"/>
      <point x="994.010101010101" y="606.4494949494949" type="line"/>
      <point x="327.4343434343435" y="606.4494949494949" type="line"/>
    </contour>
    <contour>
      <point x="811.4343434343434" y="1680.7424242424242" type="curve" smooth="yes"/>
      <point x="884.9747474747476" y="1680.7424242424242"/>
      <point x="938.1717171717172" y="1702.7424242424242"/>
      <point x="976.8333333333334" y="1743.7929292929293" type="curve"/>
      <point x="976.8333333333334" y="1835.1060606060605" type="line"/>
      <point x="930.0252525252525" y="1787.2525252525252"/>
      <point x="881.9747474747476" y="1764.2525252525252"/>
      <point x="812.6060606060606" y="1764.2525252525252" type="curve" smooth="yes"/>
      <point x="715.1868686868687" y="1764.2525252525252"/>
      <point x="629.1363636363636" y="1840.5454545454545"/>
      <point x="511.7171717171717" y="1840.5454545454545" type="curve" smooth="yes"/>
      <point x="438.17676767676767" y="1840.5454545454545"/>
      <point x="384.979797979798" y="1818.2525252525252"/>
      <point x="346.3181818181818" y="1777.2020202020203" type="curve"/>
      <point x="346.3181818181818" y="1685.888888888889" type="line"/>
      <point x="393.12626262626264" y="1733.7424242424242"/>
      <point x="441.17676767676767" y="1756.7424242424242"/>
      <point x="510.54545454545456" y="1756.7424242424242" type="curve" smooth="yes"/>
      <point x="607.9646464646464" y="1756.7424242424242"/>
      <point x="694.0151515151515" y="1680.7424242424242"/>
    </contour>
  </outline>
</glyph>
<glyph name="Adieresis" format="2">
  <advance width="1321.7373737373737"/>
  <unicode hex="00C4"/>
  <anchor x="661.5757575757576" y="1520.0" name="_top"/>
  <anchor x="661.7222222222223" y="0.0" name="bottom"/>
  <anchor x="1289.5707070707072" y="0.0" name="ogonek"/>
  <anchor x="661.5757575757576" y="1520.0" name="top"/>
  <outline>
    <contour>
      <point x="32.16666666666666" y="0.0" type="line"/>
      <point x="155.98989898989905" y="0.0" type="line"/>
      <point x="672.6010101010102" y="1418.7626262626263" type="line"/>
      <point x="646.5505050505051" y="1418.7626262626263" type="line"/>
      <point x="1163.4545454545455" y="0.0" type="line"/>
      <point x="1289.5707070707072" y="0.0" type="line"/>
      <point x="744.2929292929293" y="1480.0" type="line"/>
      <point x="577.4444444444445" y="1480.0" type="line"/>
    </contour>
    <contour>
      <point x="297.0353535353536" y="500.31818181818176" type="line"/>
      <point x="1024.2626262626263" y="500.31818181818176" type="line"/>
      <point x="994.010101010101" y="606.4494949494949" type="line"/>
      <point x="327.4343434343435" y="606.4494949494949" type="line"/>
    </contour>
    <contour>
      <point x="889.3383838383838" y="1672.4242424242425" type="curve" smooth="yes"/>
      <point x="941.449494949495" y="1672.4242424242425"/>
      <point x="974.1868686868687" y="1702.5757575757575"/>
      <point x="974.1868686868687" y="1751.7070707070707" type="curve" smooth="yes"/>
      <point x="974.1868686868687" y="1800.8383838383838"/>
      <point x="941.449494949495" y="1832.6969696969697"/>
      <point x="889.3383838383838" y="1832.6969696969697" type="curve" smooth="yes"/>
      <point x="837.2272727272727" y="1832.6969696969697"/>
      <point x="804.489898989899" y="1800.8383838383838"/>
      <point x="804.489898989899" y="1751.7070707070707" type="curve" smooth="yes"/>
      <point x="804.489898989899" y="1702.5757575757575"/>
      <point x="837.2272727272727" y="1672.4242424242425"/>
    </contour>
    <contour>
      <point x="433.8131313131313" y="1672.4242424242425" type="curve" smooth="yes"/>
      <point x="485.92424242424244" y="1672.4242424242425"/>
      <point x="518.6616161616162" y="1702.5757575757575"/>
      <point x="518.6616161616162" y="1751.7070707070707" type="curve" smooth="yes"/>
      <point x="518.6616161616162" y="1800.8383838383838"/>
      <point x="485.92424242424244" y="1832.6969696969697"/>
      <point x="433.8131313131313" y="1832.6969696969697" type="curve" smooth="yes"/>
      <point x="381.7020202020202" y="1832.6969696969697"/>
      <point x="348.9646464646464" y="1800.8383838383838"/>
      <point x="348.9646464646464" y="1751.7070707070707" type="curve" smooth="yes"/>
      <point x="348.9646464646464" y="1702.5757575757575"/>
      <point x="381.7020202020202" y="1672.4242424242425"/>
    </contour>
  </outline>
</glyph>
<glyph name="Aring" format="2">
  <advance width="1321.7373737373737"/>
  <unicode hex="00C5"/>
  <anchor x="664.1363636363636" y="1366.3636363636365" name="_top"/>
  <anchor x="661.7222222222223" y="0.0" name="bottom"/>
  <anchor x="1289.5707070707072" y="0.0" name="ogonek"/>
  <anchor x="661.5757575757576" y="1520.0" name="top"/>
  <outline>
    <contour>
      <point x="32.16666666666666" y="0.0" type="line"/>
      <point x="155.98989898989905" y="0.0" type="line"/>
      <point x="672.6010101010102" y="1418.7626262626263" type="line"/>
      <point x="646.5505050505051" y="1418.7626262626263" type="line"/>
      <point x="1163.4545454545455" y="0.0" type="line"/>
      <point x="1289.5707070707072" y="0.0" type="line"/>
      <point x="744.2929292929293" y="1480.0" type="line"/>
      <point x="577.4444444444445" y="1480.0" type="line"/>
    </contour>
    <contour>
      <point x="297.0353535353536" y="500.31818181818176" type="line"/>
      <point x="1024.2626262626263" y="500.31818181818176" type="line"/>
      <point x="994.010101010101" y="606.4494949494949" type="line"/>
      <point x="327.4343434343435" y="606.4494949494949" type="line"/>
    </contour>
    <contour>
      <point x="664.1363636363636" y="1451.358585858586" type="curve" smooth="yes"/>
      <point x="773.9444444444445" y="1451.358585858586"/>
      <point x="854.5808080808081" y="1531.409090909091"/>
      <point x="854.5808080808081" y="1640.6313131313132" type="curve" smooth="yes"/>
      <point x="854.5808080808081" y="1749.8535353535353"/>
      <point x="773.9444444444445" y="1829.9040404040404"/>
      <point x="664.1363636363636" y="1829.9040404040404" type="curve" smooth="yes"/>
      <point x="554.3282828282829" y="1829.9040404040404"/>
      <point x="473.6919191919192" y="1749.8535353535353"/>
      <point x="473.6919191919192" y="1640.6313131313132" type="curve" smooth="yes"/>
      <point x="473.6919191919192" y="1531.409090909091"/>
      <point x="554.3282828282829" y="1451.358585858586"/>
    </contour>
    <contour>
      <point x="664.1363636363636" y="1515.9545454545455" type="curve" smooth="yes"/>
      <point x="592.530303030303" y="1515.9545454545455"/>
      <point x="541.7525252525253" y="1563.3181818181818"/>
      <point x="541.7525252525253" y="1640.6313131313132" type="curve" smooth="yes"/>
      <point x="541.7525252525253" y="1717.9444444444446"/>
      <point x="592.530303030303" y="1765.3080808080808"/>
      <point x="664.1363636363636" y="1765.3080808080808" type="curve" smooth="yes"/>
      <point x="735.7424242424242" y="1765.3080808080808"/>
      <point x="786.5202020202021" y="1717.9444444444446"/>
      <point x="786.5202020202021" y="1640.6313131313132" type="curve" smooth="yes"/>
      <point x="786.5202020202021" y="1563.3181818181818"/>
      <point x="735.7424242424242" y="1515.9545454545455"/>
    </contour>
  </outline>
</glyph>
<glyph name="AE" format="2">
  <advance width="1807.287878787879"/>
  <unicode hex="00C6"/>
  <anchor x="972.0909090909091" y="0.0" name="bottom"/>
  <anchor x="894.4191919191919" y="1520.0" name="top"/>
  <outline>
    <contour>
      <point x="32.16666666666666" y="0.0" type="line"/>
      <point x="156.42929292929298" y="0.0" type="line"/>
      <point x="667.7424242424242" y="1373.5757575757575" type="line"/>
      <point x="890.3939393939395" y="1373.5757575757575" type="line"/>
      <point x="892.1010101010102" y="1480.0" type="line"/>
      <point x="586.8333333333333" y="1480.0" type="line"/>
    </contour>
    <contour>
      <point x="302.1565656565657" y="500.17171717171715" type="line"/>
      <point x="941.9949494949495" y="500.17171717171715" type="line"/>
      <point x="941.9949494949495" y="606.5959595959596" type="line"/>
      <point x="332.5555555555556" y="606.5959595959596" type="line"/>
    </contour>
    <contour>
      <point x="930.4494949494949" y="0.0" type="line"/>
      <point x="1736.1414141414143" y="0.0" type="line"/>
      <point x="1736.1414141414143" y="106.42424242424248" type="line"/>
      <point x="1044.5151515151515" y="106.42424242424248" type="line"/>
      <point x="958.5656565656566" y="1373.5757575757575" type="line"/>
      <point x="1726.1414141414143" y="1373.5757575757575" type="line"/>
      <point x="1726.1414141414143" y="1480.0" type="line"/>
      <point x="832.9343434343434" y="1480.0" type="line"/>
    </contour>
    <contour>
      <point x="956.0050505050506" y="706.9090909090909" type="line"/>
      <point x="1629.6767676767677" y="706.9090909090909" type="line"/>
      <point x="1629.6767676767677" y="813.3333333333334" type="line"/>
      <point x="956.0050505050506" y="813.3333333333334" type="line"/>
    </contour>
  </outline>
</glyph>
<glyph name="Ccedilla" format="2">
  <advance width="1129.4141414141413"/>
  <unicode hex="00C7"/>
  <anchor x="702.9141414141415" y="0.0" name="_bottom"/>
  <anchor x="702.9141414141415" y="0.0" name="bottom"/>
  <anchor x="690.1111111111111" y="1520.0" name="top"/>
  <outline>
    <contour>
      <point x="755.3636363636364" y="-18.292929292929294" type="curve" smooth="yes"/>
      <point x="879.89898989899" y="-18.292929292929294"/>
      <point x="991.2424242424242" y="2.12121212121212"/>
      <point x="1090.9242424242425" y="37.656565656565654" type="curve"/>
      <point x="1090.9242424242425" y="147.2525252525253" type="line"/>
      <point x="970.4646464646464" y="106.18181818181824"/>
      <point x="873.0252525252525" y="90.0353535353536"/>
      <point x="761.8080808080808" y="90.0353535353536" type="curve" smooth="yes"/>
      <point x="439.61616161616166" y="90.0353535353536"/>
      <point x="238.77272727272734" y="244.7373737373738"/>
      <point x="238.77272727272734" y="741.7070707070707" type="curve" smooth="yes"/>
      <point x="238.77272727272734" y="1220.020202020202"/>
      <point x="431.66666666666674" y="1389.9646464646464"/>
      <point x="772.6616161616162" y="1389.9646464646464" type="curve" smooth="yes"/>
      <point x="881.1969696969697" y="1389.9646464646464"/>
      <point x="984.2929292929293" y="1376.4040404040404"/>
      <point x="1090.9242424242425" y="1344.040404040404" type="curve"/>
      <point x="1090.9242424242425" y="1453.6363636363637" type="line"/>
      <point x="987.6565656565657" y="1483.171717171717"/>
      <point x="884.9242424242425" y="1498.2929292929293"/>
      <point x="771.3636363636364" y="1498.2929292929293" type="curve" smooth="yes"/>
      <point x="360.0505050505051" y="1498.2929292929293"/>
      <point x="110.82323232323232" y="1279.2121212121212"/>
      <point x="110.82323232323232" y="737.7070707070707" type="curve" smooth="yes"/>
      <point x="110.82323232323232" y="177.32323232323233"/>
      <point x="367.2676767676768" y="-18.292929292929294"/>
    </contour>
    <contour>
      <point x="705.979797979798" y="-408.7878787878788" type="curve" smooth="yes"/>
      <point x="834.6262626262627" y="-408.7878787878788"/>
      <point x="913.969696969697" y="-356.3939393939394"/>
      <point x="913.969696969697" y="-256.7323232323232" type="curve" smooth="yes"/>
      <point x="913.969696969697" y="-157.07070707070707"/>
      <point x="834.9191919191919" y="-105.7020202020202"/>
      <point x="712.4949494949495" y="-105.7020202020202" type="curve"/>
      <point x="737.0656565656566" y="-139.07070707070707" type="line"/>
      <point x="737.0656565656566" y="20.0" type="line"/>
      <point x="660.8535353535353" y="20.0" type="line"/>
      <point x="660.8535353535353" y="-166.489898989899" type="line"/>
      <point x="700.9040404040404" y="-166.489898989899" type="line" smooth="yes"/>
      <point x="785.2929292929293" y="-166.489898989899"/>
      <point x="834.6818181818181" y="-193.17171717171718"/>
      <point x="834.6818181818181" y="-254.53535353535352" type="curve" smooth="yes"/>
      <point x="834.6818181818181" y="-315.75252525252523"/>
      <point x="785.5858585858585" y="-341.9949494949495"/>
      <point x="702.7575757575758" y="-341.9949494949495" type="curve" smooth="yes"/>
      <point x="645.1969696969697" y="-341.9949494949495"/>
      <point x="587.4141414141415" y="-331.28787878787875"/>
      <point x="515.7575757575758" y="-301.19191919191917" type="curve"/>
      <point x="515.7575757575758" y="-371.2525252525253" type="line"/>
      <point x="572.3434343434343" y="-396.0808080808081"/>
      <point x="641.9040404040404" y="-408.7878787878788"/>
    </contour>
  </outline>
</glyph>
<glyph name="Egrave" format="2">
  <advance width="1144.0"/>
  <unicode hex="00C8"/>
  <anchor x="642.4949494949495" y="1520.0" name="_top"/>
  <anchor x="644.2020202020202" y="0.0" name="bottom"/>
  <anchor x="991.3888888888889" y="0.0" name="ogonek"/>
  <anchor x="642.4949494949495" y="1520.0" name="top"/>
  <anchor x="40.56060606060606" y="1480.0" name="topleft"/>
  <outline>
    <contour>
      <point x="178.13636363636363" y="0.0" type="line"/>
      <point x="1072.8535353535353" y="0.0" type="line"/>
      <point x="1072.8535353535353" y="106.42424242424248" type="line"/>
      <point x="298.86363636363643" y="106.42424242424248" type="line"/>
      <point x="298.86363636363643" y="1373.5757575757575" type="line"/>
      <point x="1062.8535353535353" y="1373.5757575757575" type="line"/>
      <point x="1062.8535353535353" y="1480.0" type="line"/>
      <point x="178.13636363636363" y="1480.0" type="line"/>
    </contour>
    <contour>
      <point x="257.8686868686869" y="706.9090909090909" type="line"/>
      <point x="966.3888888888889" y="706.9090909090909" type="line"/>
      <point x="966.3888888888889" y="813.3333333333334" type="line"/>
      <point x="257.8686868686869" y="813.3333333333334" type="line"/>
    </contour>
    <contour>
      <point x="587.2070707070707" y="1611.6060606060605" type="line"/>
      <point x="697.7828282828283" y="1611.6060606060605" type="line"/>
      <point x="521.6111111111111" y="1890.050505050505" type="line"/>
      <point x="389.1515151515151" y="1890.050505050505" type="line"/>
    </contour>
  </outline>
</glyph>
<glyph name="Edieresis" format="2">
  <advance width="1144.0"/>
  <unicode hex="00CB"/>
  <anchor x="642.4949494949495" y="1520.0" name="_top"/>
  <anchor x="644.2020202020202" y="0.0" name="bottom"/>
  <anchor x="991.3888888888889" y="0.0" name="ogonek"/>
  <anchor x="642.4949494949495" y="1520.0" name="top"/>
  <anchor x="40.56060606060606" y="1480.0" name="topleft"/>
  <outline>
    <contour>
      <point x="178.13636363636363" y="0.0" type="line"/>
      <point x="1072.8535353535353" y="0.0" type="line"/>
      <point x="1072.8535353535353" y="106.42424242424248" type="line"/>
      <point x="298.86363636363643" y="106.42424242424248" type="line"/>
      <point x="298.86363636363643" y="1373.5757575757575" type="line"/>
      <point x="1062.8535353535353" y="1373.5757575757575" type="line"/>
      <point x="1062.8535353535353" y="1480.0" type="line"/>
      <point x="178.13636363636363" y="1480.0" type="line"/>
    </contour>
    <contour>
      <point x="257.8686868686869" y="706.9090909090909" type="line"/>
      <point x="966.3888888888889" y="706.9090909090909" type="line"/>
      <point x="966.3888888888889" y="813.3333333333334" type="line"/>
      <point x="257.8686868686869" y="813.3333333333334" type="line"/>
    </contour>
    <contour>
      <point x="870.2575757575758" y="1672.4242424242425" type="curve" smooth="yes"/>
      <point x="922.3686868686868" y="1672.4242424242425"/>
      <point x="955.1060606060606" y="1702.5757575757575"/>
      <point x="955.1060606060606" y="1751.7070707070707" type="curve" smooth="yes"/>
      <point x="955.1060606060606" y="1800.8383838383838"/>
      <point x="922.3686868686868" y="1832.6969696969697"/>
      <point x="870.2575757575758" y="1832.6969696969697" type="curve" smooth="yes"/>
      <point x="818.1464646464647" y="1832.6969696969697"/>
      <point x="785.4090909090909" y="1800.8383838383838"/>
      <point x="785.4090909090909" y="1751.7070707070707" type="curve" smooth="yes"/>
      <point x="785.4090909090909" y="1702.5757575757575"/>
      <point x="818.1464646464647" y="1672.4242424242425"/>
    </contour>
    <contour>
      <point x="414.7323232323232" y="1672.4242424242425" type="curve" smooth="yes"/>
      <point x="466.84343434343435" y="1672.4242424242425"/>
      <point x="499.5808080808081" y="1702.5757575757575"/>
      <point x="499.5808080808081" y="1751.7070707070707" type="curve" smooth="yes"/>
      <point x="499.5808080808081" y="1800.8383838383838"/>
      <point x="466.84343434343435" y="1832.6969696969697"/>
      <point x="414.7323232323232" y="1832.6969696969697" type="curve" smooth="yes"/>
      <point x="362.6212121212121" y="1832.6969696969697"/>
      <point x="329.88383838383834" y="1800.8383838383838"/>
      <point x="329.88383838383834" y="1751.7070707070707" type="curve" smooth="yes"/>
      <point x="329.88383838383834" y="1702.5757575757575"/>
      <point x="362.6212121212121" y="1672.4242424242425"/>
    </contour>
  </outline>
</glyph>
<glyph name="Igrave" format="2">
  <advance width="477.87878787878793"/>
  <unicode hex="00CC"/>
  <anchor x="238.93939393939397" y="1520.0" name="_top"/>
  <anchor x="238.79292929292933" y="0.0" name="bottom"/>
  <anchor x="299.7424242424243" y="0.0" name="ogonek"/>
  <anchor x="238.93939393939397" y="1520.0" name="top"/>
  <outline>
    <contour>
      <point x="178.13636363636363" y="0.0" type="line"/>
      <point x="299.7424242424243" y="0.0" type="line"/>
      <point x="299.7424242424243" y="1480.0" type="line"/>
      <point x="178.13636363636363" y="1480.0" type="line"/>
    </contour>
    <contour>
      <point x="183.65151515151513" y="1611.6060606060605" type="line"/>
      <point x="294.22727272727275" y="1611.6060606060605" type="line"/>
      <point x="118.0555555555556" y="1890.050505050505" type="line"/>
      <point x="-14.404040404040423" y="1890.050505050505" type="line"/>
    </contour>
  </outline>
</glyph>
<glyph name="Iacute" format="2">
  <advance width="477.87878787878793"/>
  <unicode hex="00CD"/>
  <anchor x="238.93939393939397" y="1520.0" name="_top"/>
  <anchor x="238.79292929292933" y="0.0" name="bottom"/>
  <anchor x="299.7424242424243" y="0.0" name="ogonek"/>
  <anchor x="238.93939393939397" y="1520.0" name="top"/>
  <outline>
    <contour>
      <point x="178.13636363636363" y="0.0" type="line"/>
      <point x="299.7424242424243" y="0.0" type="line"/>
      <point x="299.7424242424243" y="1480.0" type="line"/>
      <point x="178.13636363636363" y="1480.0" type="line"/>
    </contour>
    <contour>
      <point x="183.35858585858585" y="1611.6060606060605" type="line"/>
      <point x="293.9343434343435" y="1611.6060606060605" type="line"/>
      <point x="491.9898989898991" y="1890.050505050505" type="line"/>
      <point x="359.530303030303" y="1890.050505050505" type="line"/>
    </contour>
  </outline>
</glyph>
<glyph name="Icircumflex" format="2">
  <advance width="477.87878787878793"/>
  <unicode hex="00CE"/>
  <anchor x="238.93939393939397" y="1520.0" name="_top"/>
  <anchor x="238.79292929292933" y="0.0" name="bottom"/>
  <anchor x="299.7424242424243" y="0.0" name="ogonek"/>
  <anchor x="238.93939393939397" y="1520.0" name="top"/>
  <outline>
    <contour>
      <point x="178.13636363636363" y="0.0" type="line"/>
      <point x="299.7424242424243" y="0.0" type="line"/>
      <point x="299.7424242424243" y="1480.0" type="line"/>
      <point x="178.13636363636363" y="1480.0" type="line"/>
    </contour>
    <contour>
      <point x="-62.64141414141415" y="1611.6060606060605" type="line"/>
      <point x="51.89898989898993" y="1611.6060606060605" type="line"/>
      <point x="254.42929292929296" y="1849.040404040404" type="line"/>
      <point x="223.44949494949498" y="1849.040404040404" type="line"/>
      <point x="425.979797979798" y="1611.6060606060605" type="line"/>
      <point x="540.5202020202021" y="1611.6060606060605" type="line"/>
      <point x="297.29797979797985" y="1890.050505050505" type="line"/>
      <point x="180.58080808080808" y="1890.050505050505" type="line"/>
    </contour>
  </outline>
</glyph>
<glyph name="Idieresis" format="2">
  <advance width="477.87878787878793"/>
  <unicode hex="00CF"/>
  <anchor x="238.93939393939397" y="1520.0" name="_top"/>
  <anchor x="238.79292929292933" y="0.0" name="bottom"/>
  <anchor x="299.7424242424243" y="0.0" name="ogonek"/>
  <anchor x="238.93939393939397" y="1520.0" name="top"/>
  <outline>
    <contour>
      <point x="178.13636363636363" y="0.0" type="line"/>
      <point x="299.7424242424243" y="0.0" type="line"/>
      <point x="299.7424242424243" y="1480.0" type="line"/>
      <point x="178.13636363636363" y="1480.0" type="line"/>
    </contour>
    <contour>
      <point x="466.7020202020202" y="1672.4242424242425" type="curve" smooth="yes"/>
      <point x="518.8131313131314" y="1672.4242424242425"/>
      <point x="551.5505050505051" y="1702.5757575757575"/>
      <point x="551.5505050505051" y="1751.7070707070707" type="curve" smooth="yes"/>
      <point x="551.5505050505051" y="1800.8383838383838"/>
      <point x="518.8131313131314" y="1832.6969696969697"/>
      <point x="466.7020202020202" y="1832.6969696969697" type="curve" smooth="yes"/>
      <point x="414.5909090909091" y="1832.6969696969697"/>
      <point x="381.85353535353534" y="1800.8383838383838"/>
      <point x="381.85353535353534" y="1751.7070707070707" type="curve" smooth="yes"/>
      <point x="381.85353535353534" y="1702.5757575757575"/>
      <point x="414.5909090909091" y="1672.4242424242425"/>
    </contour>
    <contour>
      <point x="11.176767676767685" y="1672.4242424242425" type="curve" smooth="yes"/>
      <point x="63.28787878787882" y="1672.4242424242425"/>
      <point x="96.02525252525257" y="1702.5757575757575"/>
      <point x="96.02525252525257" y="1751.7070707070707" type="curve" smooth="yes"/>
      <point x="96.02525252525257" y="1800.8383838383838"/>
      <point x="63.28787878787882" y="1832.6969696969697"/>
      <point x="11.176767676767685" y="1832.6969696969697" type="curve" smooth="yes"/>
      <point x="-40.93434343434345" y="1832.6969696969697"/>
      <point x="-73.6717171717172" y="1800.8383838383838"/>
      <point x="-73.6717171717172" y="1751.7070707070707" type="curve" smooth="yes"/>
      <point x="-73.6717171717172" y="1702.5757575757575"/>
      <point x="-40.93434343434345" y="1672.4242424242425"/>
    </contour>
  </outline>
</glyph>
<glyph name="Ntilde" format="2">
  <advance width="1451.1666666666667"/>
  <unicode hex="00D1"/>
  <anchor x="726.010101010101" y="1520.0" name="_top"/>
  <anchor x="726.010101010101" y="0.0" name="bottom"/>
  <anchor x="726.010101010101" y="1520.0" name="top"/>
  <outline>
    <contour>
      <point x="178.13636363636363" y="0.0" type="line"/>
      <point x="294.08080808080814" y="0.0" type="line"/>
      <point x="294.08080808080814" y="1348.5252525252524" type="line"/>
      <point x="257.9545454545455" y="1348.5252525252524" type="line"/>
      <point x="1145.5959595959596" y="0.0" type="line"/>
      <point x="1273.030303030303" y="0.0" type="line"/>
      <point x="1273.030303030303" y="1480.0" type="line"/>
      <point x="1157.0858585858587" y="1480.0" type="line"/>
      <point x="1157.0858585858587" y="131.47474747474757" type="line"/>
      <point x="1193.2121212121212" y="131.47474747474757" type="line"/>
      <point x="305.57070707070716" y="1480.0" type="line"/>
      <point x="178.13636363636363" y="1480.0" type="line"/>
    </contour>
    <contour>
      <point x="875.8686868686868" y="1680.7424242424242" type="curve" smooth="yes"/>
      <point x="949.409090909091" y="1680.7424242424242"/>
      <point x="1002.6060606060606" y="1702.7424242424242"/>
      <point x="1041.267676767677" y="1743.7929292929293" type="curve"/>
      <point x="1041.267676767677" y="1835.1060606060605" type="line"/>
      <point x="994.459595959596" y="1787.2525252525252"/>
      <point x="946.409090909091" y="1764.2525252525252"/>
      <point x="877.040404040404" y="1764.2525252525252" type="curve" smooth="yes"/>
      <point x="779.6212121212121" y="1764.2525252525252"/>
      <point x="693.570707070707" y="1840.5454545454545"/>
      <point x="576.1515151515151" y="1840.5454545454545" type="curve" smooth="yes"/>
      <point x="502.6111111111111" y="1840.5454545454545"/>
      <point x="449.4141414141414" y="1818.2525252525252"/>
      <point x="410.75252525252523" y="1777.2020202020203" type="curve"/>
      <point x="410.75252525252523" y="1685.888888888889" type="line"/>
      <point x="457.56060606060606" y="1733.7424242424242"/>
      <point x="505.6111111111111" y="1756.7424242424242"/>
      <point x="574.9797979797979" y="1756.7424242424242" type="curve" smooth="yes"/>
      <point x="672.39898989899" y="1756.7424242424242"/>
      <point x="758.4494949494949" y="1680.7424242424242"/>
    </contour>
  </outline>
</glyph>
<glyph name="Otilde" format="2">
  <advance width="1408.4242424242425"/>
  <unicode hex="00D5"/>
  <anchor x="704.2121212121212" y="1520.0" name="_top"/>
  <anchor x="704.2121212121212" y="0.0" name="bottom"/>
  <anchor x="704.2121212121212" y="740.0" name="center"/>
  <anchor x="866.409090909091" y="0.0" name="ogonek"/>
  <anchor x="704.2121212121212" y="1520.0" name="top"/>
  <anchor x="45.025252525252526" y="1480.0" name="topleft"/>
  <anchor x="870.2424242424242" y="1480.0" name="topright"/>
  <outline>
    <contour>
      <point x="704.2121212121212" y="-18.292929292929294" type="curve" smooth="yes"/>
      <point x="1057.9343434343434" y="-18.292929292929294"/>
      <point x="1297.6010101010102" y="201.44444444444446"/>
      <point x="1297.6010101010102" y="740.0" type="curve" smooth="yes"/>
      <point x="1297.6010101010102" y="1278.5555555555557"/>
      <point x="1060.6414141414143" y="1498.2929292929293"/>
      <point x="704.2121212121212" y="1498.2929292929293" type="curve" smooth="yes"/>
      <point x="350.34343434343435" y="1498.2929292929293"/>
      <point x="110.82323232323232" y="1278.8484848484848"/>
      <point x="110.82323232323232" y="740.0" type="curve" smooth="yes"/>
      <point x="110.82323232323232" y="201.15151515151516"/>
      <point x="347.92929292929296" y="-18.292929292929294"/>
    </contour>
    <contour>
      <point x="704.2121212121212" y="89.57070707070713" type="curve" smooth="yes"/>
      <point x="423.97979797979804" y="89.57070707070713"/>
      <point x="237.3080808080809" y="256.6616161616162"/>
      <point x="237.3080808080809" y="744.5858585858585" type="curve" smooth="yes"/>
      <point x="237.3080808080809" y="1223.3383838383838"/>
      <point x="424.419191919192" y="1390.4292929292928"/>
      <point x="704.2121212121212" y="1390.4292929292928" type="curve" smooth="yes"/>
      <point x="984.0050505050506" y="1390.4292929292928"/>
      <point x="1171.1161616161617" y="1222.8989898989898"/>
      <point x="1171.1161616161617" y="735.4141414141415" type="curve" smooth="yes"/>
      <point x="1171.1161616161617" y="257.10101010101016"/>
      <point x="984.4444444444445" y="89.57070707070713"/>
    </contour>
    <contour>
      <point x="854.0707070707072" y="1680.7424242424242" type="curve" smooth="yes"/>
      <point x="927.6111111111111" y="1680.7424242424242"/>
      <point x="980.8080808080808" y="1702.7424242424242"/>
      <point x="1019.469696969697" y="1743.7929292929293" type="curve"/>
      <point x="1019.469696969697" y="1835.1060606060605" type="line"/>
      <point x="972.6616161616162" y="1787.2525252525252"/>
      <point x="924.6111111111111" y="1764.2525252525252"/>
      <point x="855.2424242424242" y="1764.2525252525252" type="curve" smooth="yes"/>
      <point x="757.8232323232323" y="1764.2525252525252"/>
      <point x="671.7727272727273" y="1840.5454545454545"/>
      <point x="554.3535353535353" y="1840.5454545454545" type="curve" smooth="yes"/>
      <point x="480.8131313131313" y="1840.5454545454545"/>
      <point x="427.61616161616166" y="1818.2525252525252"/>
      <point x="388.95454545454544" y="1777.2020202020203" type="curve"/>
      <point x="388.95454545454544" y="1685.888888888889" type="line"/>
      <point x="435.76262626262627" y="1733.7424242424242"/>
      <point x="483.8131313131313" y="1756.7424242424242"/>
      <point x="553.1818181818182" y="1756.7424242424242" type="curve" smooth="yes"/>
      <point x="650.6010101010102" y="1756.7424242424242"/>
      <point x="736.6515151515151" y="1680.7424242424242"/>
    </contour>
  </outline>
</glyph>
<glyph name="Odieresis" format="2">
  <advance width="1408.4242424242425"/>
  <unicode hex="00D6"/>
  <anchor x="704.2121212121212" y="1520.0" name="_top"/>
  <anchor x="704.2121212121212" y="0.0" name="bottom"/>
  <anchor x="704.2121212121212" y="740.0" name="center"/>
  <anchor x="866.409090909091" y="0.0" name="ogonek"/>
  <anchor x="704.2121212121212" y="1520.0" name="top"/>
  <anchor x="45.025252525252526" y="1480.0" name="topleft"/>
  <anchor x="870.2424242424242" y="1480.0" name="topright"/>
  <outline>
    <contour>
      <point x="704.2121212121212" y="-18.292929292929294" type="curve" smooth="yes"/>
      <point x="1057.9343434343434" y="-18.292929292929294"/>
      <point x="1297.6010101010102" y="201.44444444444446"/>
      <point x="1297.6010101010102" y="740.0" type="curve" smooth="yes"/>
      <point x="1297.6010101010102" y="1278.5555555555557"/>
      <point x="1060.6414141414143" y="1498.2929292929293"/>
      <point x="704.2121212121212" y="1498.2929292929293" type="curve" smooth="yes"/>
      <point x="350.34343434343435" y="1498.2929292929293"/>
      <point x="110.82323232323232" y="1278.8484848484848"/>
      <point x="110.82323232323232" y="740.0" type="curve" smooth="yes"/>
      <point x="110.82323232323232" y="201.15151515151516"/>
      <point x="347.92929292929296" y="-18.292929292929294"/>
    </contour>
    <contour>
      <point x="704.2121212121212" y="89.57070707070713" type="curve" smooth="yes"/>
      <point x="423.97979797979804" y="89.57070707070713"/>
      <point x="237.3080808080809" y="256.6616161616162"/>
      <point x="237.3080808080809" y="744.5858585858585" type="curve" smooth="yes"/>
      <point x="237.3080808080809" y="1223.3383838383838"/>
      <point x="424.419191919192" y="1390.4292929292928"/>
      <point x="704.2121212121212" y="1390.4292929292928" type="curve" smooth="yes"/>
      <point x="984.0050505050506" y="1390.4292929292928"/>
      <point x="1171.1161616161617" y="1222.8989898989898"/>
      <point x="1171.1161616161617" y="735.4141414141415" type="curve" smooth="yes"/>
      <point x="1171.1161616161617" y="257.10101010101016"/>
      <point x="984.4444444444445" y="89.57070707070713"/>
    </contour>
    <contour>
      <point x="931.9747474747476" y="1672.4242424242425" type="curve" smooth="yes"/>
      <point x="984.0858585858587" y="1672.4242424242425"/>
      <point x="1016.8232323232323" y="1702.5757575757575"/>
      <point x="1016.8232323232323" y="1751.7070707070707" type="curve" smooth="yes"/>
      <point x="1016.8232323232323" y="1800.8383838383838"/>
      <point x="984.0858585858587" y="1832.6969696969697"/>
      <point x="931.9747474747476" y="1832.6969696969697" type="curve" smooth="yes"/>
      <point x="879.8636363636364" y="1832.6969696969697"/>
      <point x="847.1262626262626" y="1800.8383838383838"/>
      <point x="847.1262626262626" y="1751.7070707070707" type="curve" smooth="yes"/>
      <point x="847.1262626262626" y="1702.5757575757575"/>
      <point x="879.8636363636364" y="1672.4242424242425"/>
    </contour>
    <contour>
      <point x="476.449494949495" y="1672.4242424242425" type="curve" smooth="yes"/>
      <point x="528.5606060606061" y="1672.4242424242425"/>
      <point x="561.2979797979798" y="1702.5757575757575"/>
      <point x="561.2979797979798" y="1751.7070707070707" type="curve" smooth="yes"/>
      <point x="561.2979797979798" y="1800.8383838383838"/>
      <point x="528.5606060606061" y="1832.6969696969697"/>
      <point x="476.449494949495" y="1832.6969696969697" type="curve" smooth="yes"/>
      <point x="424.33838383838383" y="1832.6969696969697"/>
      <point x="391.6010101010101" y="1800.8383838383838"/>
      <point x="391.6010101010101" y="1751.7070707070707" type="curve" smooth="yes"/>
      <point x="391.6010101010101" y="1702.5757575757575"/>
      <point x="424.33838383838383" y="1672.4242424242425"/>
    </contour>
  </outline>
</glyph>
<glyph name="multiply" format="2">
  <advance width="989.4747474747475"/>
  <unicode hex="00D7"/>
  <outline>
    <contour>
      <point x="196.40404040404042" y="391.010101010101" type="line"/>
      <point x="494.73737373737373" y="689.3434343434343" type="line"/>
      <point x="793.070707070707" y="391.010101010101" type="line"/>
      <point x="863.7272727272727" y="461.6666666666667" type="line"/>
      <point x="565.3939393939395" y="760.0" type="line"/>
      <point x="863.7272727272727" y="1058.3333333333333" type="line"/>
      <point x="793.070707070707" y="1128.989898989899" type="line"/>
      <point x="494.73737373737373" y="830.6565656565657" type="line"/>
      <point x="196.40404040404042" y="1128.989898989899" type="line"/>
      <point x="125.74747474747474" y="1058.3333333333333" type="line"/>
      <point x="424.080808080808" y="760.0" type="line"/>
      <point x="125.74747474747474" y="461.6666666666667" type="line"/>
    </contour>
  </outline>
</glyph>
<glyph name="Oslash" format="2">
  <advance width="1408.4242424242425"/>
  <unicode hex="00D8"/>
  <anchor x="704.2121212121212" y="740.0" name="_center"/>
  <anchor x="702.3585858585859" y="0.0" name="bottom"/>
  <anchor x="704.2121212121212" y="740.0" name="center"/>
  <anchor x="866.409090909091" y="0.0" name="ogonek"/>
  <anchor x="700.6515151515152" y="1520.0" name="top"/>
  <anchor x="45.025252525252526" y="1480.0" name="topleft"/>
  <anchor x="870.2424242424242" y="1480.0" name="topright"/>
  <outline>
    <contour>
      <point x="704.2121212121212" y="-18.292929292929294" type="curve" smooth="yes"/>
      <point x="1057.9343434343434" y="-18.292929292929294"/>
      <point x="1297.6010101010102" y="201.44444444444446"/>
      <point x="1297.6010101010102" y="740.0" type="curve" smooth="yes"/>
      <point x="1297.6010101010102" y="1278.5555555555557"/>
      <point x="1060.6414141414143" y="1498.2929292929293"/>
      <point x="704.2121212121212" y="1498.2929292929293" type="curve" smooth="yes"/>
      <point x="350.34343434343435" y="1498.2929292929293"/>
      <point x="110.82323232323232" y="1278.8484848484848"/>
      <point x="110.82323232323232" y="740.0" type="curve" smooth="yes"/>
      <point x="110.82323232323232" y="201.15151515151516"/>
      <point x="347.92929292929296" y="-18.292929292929294"/>
    </contour>
    <contour>
      <point x="704.2121212121212" y="89.57070707070713" type="curve" smooth="yes"/>
      <point x="423.97979797979804" y="89.57070707070713"/>
      <point x="237.3080808080809" y="256.6616161616162"/>
      <point x="237.3080808080809" y="744.5858585858585" type="curve" smooth="yes"/>
      <point x="237.3080808080809" y="1223.3383838383838"/>
      <point x="424.419191919192" y="1390.4292929292928"/>
      <point x="704.2121212121212" y="1390.4292929292928" type="curve" smooth="yes"/>
      <point x="984.0050505050506" y="1390.4292929292928"/>
      <point x="1171.1161616161617" y="1222.8989898989898"/>
      <point x="1171.1161616161617" y="735.4141414141415" type="curve" smooth="yes"/>
      <point x="1171.1161616161617" y="257.10101010101016"/>
      <point x="984.4444444444445" y="89.57070707070713"/>
    </contour>
    <contour>
      <point x="196.94444444444446" y="-22.737373737373744" type="line"/>
      <point x="1279.7626262626263" y="1452.3838383838383" type="line"/>
      <point x="1211.479797979798" y="1502.7373737373737" type="line"/>
      <point x="128.66161616161617" y="27.616161616161627" type="line"/>
    </contour>
  </outline>
</glyph>
<glyph name="Ugrave" format="2">
  <advance width="1397.6313131313132"/>
  <unicode hex="00D9"/>
  <anchor x="700.3282828282828" y="1520.0" name="_top"/>
  <anchor x="700.3282828282828" y="0.0" name="bottom"/>
  <anchor x="852.9040404040404" y="1.7070707070707067" name="ogonek"/>
  <anchor x="700.3282828282828" y="1520.0" name="top"/>
  <anchor x="1113.4545454545455" y="1480.0" name="topright"/>
  <outline>
    <contour>
      <point x="700.3282828282828" y="-18.292929292929294" type="curve" smooth="yes"/>
      <point x="1064.0252525252527" y="-18.292929292929294"/>
      <point x="1227.2020202020203" y="157.61616161616163"/>
      <point x="1227.2020202020203" y="546.5757575757576" type="curve" smooth="yes"/>
      <point x="1227.2020202020203" y="1480.0" type="line"/>
      <point x="1108.4747474747473" y="1480.0" type="line"/>
      <point x="1108.4747474747473" y="532.0353535353536" type="line" smooth="yes"/>
      <point x="1108.4747474747473" y="225.63636363636368"/>
      <point x="983.5050505050505" y="89.59595959595966"/>
      <point x="700.3282828282828" y="89.59595959595966" type="curve" smooth="yes"/>
      <point x="417.1515151515152" y="89.59595959595966"/>
      <point x="292.0353535353536" y="225.63636363636368"/>
      <point x="292.0353535353536" y="532.0353535353536" type="curve" smooth="yes"/>
      <point x="292.0353535353536" y="1480.0" type="line"/>
      <point x="170.4292929292929" y="1480.0" type="line"/>
      <point x="170.4292929292929" y="546.5757575757576" type="line" smooth="yes"/>
      <point x="170.4292929292929" y="157.61616161616163"/>
      <point x="335.6060606060606" y="-18.292929292929294"/>
    </contour>
    <contour>
      <point x="645.040404040404" y="1611.6060606060605" type="line"/>
      <point x="755.6161616161617" y="1611.6060606060605" type="line"/>
      <point x="579.4444444444445" y="1890.050505050505" type="line"/>
      <point x="446.98484848484844" y="1890.050505050505" type="line"/>
    </contour>
  </outline>
</glyph>
<glyph name="Ucircumflex" format="2">
  <advance width="1397.6313131313132"/>
  <unicode hex="00DB"/>
  <anchor x="700.3282828282828" y="1520.0" name="_top"/>
  <anchor x="700.3282828282828" y="0.0" name="bottom"/>
  <anchor x="852.9040404040404" y="1.7070707070707067" name="ogonek"/>
  <anchor x="700.3282828282828" y="1520.0" name="top"/>
  <anchor x="1113.4545454545455" y="1480.0" name="topright"/>
  <outline>
    <contour>
      <point x="700.3282828282828" y="-18.292929292929294" type="curve" smooth="yes"/>
      <point x="1064.0252525252527" y="-18.292929292929294"/>
      <point x="1227.2020202020203" y="157.61616161616163"/>
      <point x="1227.2020202020203" y="546.5757575757576" type="curve" smooth="yes"/>
      <point x="1227.2020202020203" y="1480.0" type="line"/>
      <point x="1108.4747474747473" y="1480.0" type="line"/>
      <point x="1108.4747474747473" y="532.0353535353536" type="line" smooth="yes"/>
      <point x="1108.4747474747473" y="225.63636363636368"/>
      <point x="983.5050505050505" y="89.59595959595966"/>
      <point x="700.3282828282828" y="89.59595959595966" type="curve" smooth="yes"/>
      <point x="417.1515151515152" y="89.59595959595966"/>
      <point x="292.0353535353536" y="225.63636363636368"/>
      <point x="292.0353535353536" y="532.0353535353536" type="curve" smooth="yes"/>
      <point x="292.0353535353536" y="1480.0" type="line"/>
      <point x="170.4292929292929" y="1480.0" type="line"/>
      <point x="170.4292929292929" y="546.5757575757576" type="line" smooth="yes"/>
      <point x="170.4292929292929" y="157.61616161616163"/>
      <point x="335.6060606060606" y="-18.292929292929294"/>
    </contour>
    <contour>
      <point x="398.7474747474747" y="1611.6060606060605" type="line"/>
      <point x="513.2878787878789" y="1611.6060606060605" type="line"/>
      <point x="715.8181818181819" y="1849.040404040404" type="line"/>
      <point x="684.8383838383838" y="1849.040404040404" type="line"/>
      <point x="887.3686868686868" y="1611.6060606060605" type="line"/>
      <point x="1001.909090909091" y="1611.6060606060605" type="line"/>
      <point x="758.6868686868687" y="1890.050505050505" type="line"/>
      <point x="641.969696969697" y="1890.050505050505" type="line"/>
    </contour>
  </outline>
</glyph>
<glyph name="Udieresis" format="2">
  <advance width="1397.6313131313132"/>
  <unicode hex="00DC"/>
  <anchor x="700.3282828282828" y="1520.0" name="_top"/>
  <anchor x="700.3282828282828" y="0.0" name="bottom"/>
  <anchor x="852.9040404040404" y="1.7070707070707067" name="ogonek"/>
  <anchor x="700.3282828282828" y="1520.0" name="top"/>
  <anchor x="1113.4545454545455" y="1480.0" name="topright"/>
  <outline>
    <contour>
      <point x="700.3282828282828" y="-18.292929292929294" type="curve" smooth="yes"/>
      <point x="1064.0252525252527" y="-18.292929292929294"/>
      <point x="1227.2020202020203" y="157.61616161616163"/>
      <point x="1227.2020202020203" y="546.5757575757576" type="curve" smooth="yes"/>
      <point x="1227.2020202020203" y="1480.0" type="line"/>
      <point x="1108.4747474747473" y="1480.0" type="line"/>
      <point x="1108.4747474747473" y="532.0353535353536" type="line" smooth="yes"/>
      <point x="1108.4747474747473" y="225.63636363636368"/>
      <point x="983.5050505050505" y="89.59595959595966"/>
      <point x="700.3282828282828" y="89.59595959595966" type="curve" smooth="yes"/>
      <point x="417.1515151515152" y="89.59595959595966"/>
      <point x="292.0353535353536" y="225.63636363636368"/>
      <point x="292.0353535353536" y="532.0353535353536" type="curve" smooth="yes"/>
      <point x="292.0353535353536" y="1480.0" type="line"/>
      <point x="170.4292929292929" y="1480.0" type="line"/>
      <point x="170.4292929292929" y="546.5757575757576" type="line" smooth="yes"/>
      <point x="170.4292929292929" y="157.61616161616163"/>
      <point x="335.6060606060606" y="-18.292929292929294"/>
    </contour>
    <contour>
      <point x="928.0909090909091" y="1672.4242424242425" type="curve" smooth="yes"/>
      <point x="980.2020202020202" y="1672.4242424242425"/>
      <point x="1012.939393939394" y="1702.5757575757575"/>
      <point x="1012.939393939394" y="1751.7070707070707" type="curve" smooth="yes"/>
      <point x="1012.939393939394" y="1800.8383838383838"/>
      <point x="980.2020202020202" y="1832.6969696969697"/>
      <point x="928.0909090909091" y="1832.6969696969697" type="curve" smooth="yes"/>
      <point x="875.9797979797979" y="1832.6969696969697"/>
      <point x="843.2424242424242" y="1800.8383838383838"/>
      <point x="843.2424242424242" y="1751.7070707070707" type="curve" smooth="yes"/>
      <point x="843.2424242424242" y="1702.5757575757575"/>
      <point x="875.9797979797979" y="1672.4242424242425"/>
    </contour>
    <contour>
      <point x="472.5656565656566" y="1672.4242424242425" type="curve" smooth="yes"/>
      <point x="524.6767676767677" y="1672.4242424242425"/>
      <point x="557.4141414141415" y="1702.5757575757575"/>
      <point x="557.4141414141415" y="1751.7070707070707" type="curve" smooth="yes"/>
      <point x="557.4141414141415" y="1800.8383838383838"/>
      <point x="524.6767676767677" y="1832.6969696969697"/>
      <point x="472.5656565656566" y="1832.6969696969697" type="curve" smooth="yes"/>
      <point x="420.45454545454544" y="1832.6969696969697"/>
      <point x="387.7171717171717" y="1800.8383838383838"/>
      <point x="387.7171717171717" y="1751.7070707070707" type="curve" smooth="yes"/>
      <point x="387.7171717171717" y="1702.5757575757575"/>
      <point x="420.45454545454544" y="1672.4242424242425"/>
    </contour>
  </outline>
</glyph>
<glyph name="Thorn" format="2">
  <advance width="1221.6818181818182"/>
  <unicode hex="00DE"/>
  <outline>
    <contour>
      <point x="178.13636363636363" y="0.0" type="line"/>
      <point x="299.7424242424243" y="0.0" type="line"/>
      <point x="299.7424242424243" y="272.0151515151515" type="line"/>
      <point x="372.4444444444445" y="265.18686868686865"/>
      <point x="434.0505050505051" y="262.3333333333333"/>
      <point x="507.4848484848485" y="262.3333333333333" type="curve" smooth="yes"/>
      <point x="929.7777777777778" y="262.3333333333333"/>
      <point x="1118.1010101010102" y="437.23737373737373"/>
      <point x="1118.1010101010102" y="760.8535353535353" type="curve" smooth="yes"/>
      <point x="1118.1010101010102" y="1104.030303030303"/>
      <point x="919.2424242424242" y="1257.8131313131314"/>
      <point x="541.7171717171717" y="1257.8131313131314" type="curve" smooth="yes"/>
      <point x="443.1919191919192" y="1257.8131313131314"/>
      <point x="362.419191919192" y="1248.9848484848485"/>
      <point x="299.7424242424243" y="1238.7424242424242" type="curve"/>
      <point x="299.7424242424243" y="1480.8535353535353" type="line"/>
      <point x="178.13636363636363" y="1480.8535353535353" type="line"/>
    </contour>
    <contour>
      <point x="510.04545454545456" y="365.5353535353536" type="curve" smooth="yes"/>
      <point x="432.7575757575758" y="365.5353535353536"/>
      <point x="367.61616161616166" y="369.24242424242425"/>
      <point x="299.7424242424243" y="378.3636363636364" type="curve"/>
      <point x="299.7424242424243" y="1134.6616161616162" type="line"/>
      <point x="375.2727272727273" y="1147.4898989898988"/>
      <point x="453.63131313131316" y="1154.611111111111"/>
      <point x="546.8434343434344" y="1154.611111111111" type="curve" smooth="yes"/>
      <point x="848.2878787878788" y="1154.611111111111"/>
      <point x="995.2777777777777" y="1035.1060606060605"/>
      <point x="995.2777777777777" y="758.0" type="curve" smooth="yes"/>
      <point x="995.2777777777777" y="493.8181818181818"/>
      <point x="851.7020202020202" y="365.5353535353536"/>
    </contour>
  </outline>
</glyph>
<glyph name="germandbls" format="2">
  <advance width="1346.2929292929293"/>
  <unicode hex="00DF"/>
  <outline>
    <contour>
      <point x="864.6666666666667" y="-18.58585858585859" type="curve" smooth="yes"/>
      <point x="1134.4848484848485" y="-18.58585858585859"/>
      <point x="1272.737373737374" y="99.51515151515152"/>
      <point x="1272.737373737374" y="290.6919191919192" type="curve" smooth="yes"/>
      <point x="1272.737373737374" y="446.0656565656566"/>
      <point x="1198.0" y="536.1868686868687"/>
      <point x="995.0505050505051" y="581.1363636363636" type="curve" smooth="yes"/>
      <point x="855.9444444444446" y="610.0151515151515" type="line" smooth="yes"/>
      <point x="725.3232323232324" y="639.2070707070707"/>
      <point x="678.0353535353536" y="702.1262626262626"/>
      <point x="678.0353535353536" y="798.2373737373737" type="curve" smooth="yes"/>
      <point x="678.0353535353536" y="911.030303030303"/>
      <point x="757.3939393939395" y="998.5101010101009"/>
      <point x="974.2676767676769" y="998.5101010101009" type="curve" smooth="yes"/>
      <point x="1040.6565656565658" y="998.5101010101009"/>
      <point x="1082.0" y="992.2424242424242"/>
      <point x="1121.4646464646466" y="984.6818181818181" type="curve"/>
      <point x="1134.929292929293" y="1036.540404040404"/>
      <point x="1147.5151515151515" y="1119.1010101010102"/>
      <point x="1147.5151515151515" y="1188.3484848484848" type="curve" smooth="yes"/>
      <point x="1147.5151515151515" y="1505.530303030303"/>
      <point x="959.409090909091" y="1636.0"/>
      <point x="707.1010101010102" y="1636.0" type="curve" smooth="yes"/>
      <point x="406.6161616161616" y="1636.0"/>
      <point x="228.26262626262624" y="1471.0858585858587"/>
      <point x="228.26262626262624" y="1128.5656565656566" type="curve" smooth="yes"/>
      <point x="228.26262626262624" y="0.0" type="line"/>
      <point x="348.5505050505051" y="0.0" type="line"/>
      <point x="348.5505050505051" y="1124.469696969697" type="line" smooth="yes"/>
      <point x="348.5505050505051" y="1422.4848484848485"/>
      <point x="481.6919191919192" y="1537.7777777777778"/>
      <point x="712.0808080808081" y="1537.7777777777778" type="curve" smooth="yes"/>
      <point x="904.5404040404042" y="1537.7777777777778"/>
      <point x="1049.5353535353536" y="1449.560606060606"/>
      <point x="1048.6818181818182" y="1191.060606060606" type="curve" smooth="yes"/>
      <point x="1048.6818181818182" y="1142.3989898989898"/>
      <point x="1041.949494949495" y="1087.7878787878788"/>
      <point x="1030.7777777777778" y="1040.0050505050506" type="curve"/>
      <point x="1097.2171717171718" y="1086.3434343434344" type="line"/>
      <point x="1053.6565656565658" y="1092.9040404040404"/>
      <point x="1004.1868686868688" y="1095.7575757575758"/>
      <point x="965.0404040404042" y="1095.7575757575758" type="curve" smooth="yes"/>
      <point x="691.2474747474748" y="1095.7575757575758"/>
      <point x="560.0202020202021" y="969.439393939394"/>
      <point x="560.0202020202021" y="792.6515151515151" type="curve" smooth="yes"/>
      <point x="560.0202020202021" y="644.060606060606"/>
      <point x="634.6818181818182" y="547.3030303030303"/>
      <point x="831.1717171717172" y="504.6212121212121" type="curve" smooth="yes"/>
      <point x="970.2777777777778" y="475.74242424242425" type="line" smooth="yes"/>
      <point x="1102.6060606060607" y="446.550505050505"/>
      <point x="1154.7222222222222" y="393.72727272727275"/>
      <point x="1154.7222222222222" y="283.520202020202" type="curve" smooth="yes"/>
      <point x="1154.7222222222222" y="155.48484848484853"/>
      <point x="1067.0959595959596" y="82.12626262626267"/>
      <point x="864.6414141414142" y="82.12626262626267" type="curve" smooth="yes"/>
      <point x="772.2727272727274" y="82.12626262626267"/>
      <point x="683.1919191919192" y="93.44444444444449"/>
      <point x="578.6565656565657" y="124.27272727272731" type="curve"/>
      <point x="578.6565656565657" y="21.707070707070706" type="line"/>
      <point x="668.3181818181819" y="-6.292929292929293"/>
      <point x="762.7878787878789" y="-18.58585858585859"/>
    </contour>
    <contour>
      <point x="17.050505050505052" y="977.3838383838383" type="line"/>
      <point x="292.3484848484849" y="977.3838383838383" type="line"/>
      <point x="292.3484848484849" y="1082.9292929292928" type="line"/>
      <point x="17.050505050505052" y="1082.9292929292928" type="line"/>
    </contour>
  </outline>
</glyph>
<glyph name="acircumflex" format="2">
  <advance width="1007.8535353535353"/>
  <unicode hex="00E2"/>
  <anchor x="499.64646464646466" y="1200.0" name="_top"/>
  <anchor x="511.5959595959596" y="0.0" name="bottom"/>
  <anchor x="861.3737373737374" y="0.0" name="ogonek"/>
  <anchor x="499.64646464646466" y="1200.0" name="top"/>
  <outline>
    <contour>
      <point x="421.1212121212121" y="-16.87878787878788" type="curve" smooth="yes"/>
      <point x="550.3383838383838" y="-16.87878787878788"/>
      <point x="668.1161616161617" y="34.19191919191919"/>
      <point x="740.3585858585858" y="124.04545454545455" type="curve"/>
      <point x="749.8232323232323" y="124.04545454545455" type="line"/>
      <point x="759.1919191919192" y="0.0" type="line"/>
      <point x="861.3737373737374" y="0.0" type="line"/>
      <point x="861.3737373737374" y="726.0808080808081" type="line" smooth="yes"/>
      <point x="861.3737373737374" y="1008.7777777777778"/>
      <point x="722.979797979798" y="1099.2222222222222"/>
      <point x="466.81313131313135" y="1099.2222222222222" type="curve" smooth="yes"/>
      <point x="368.73737373737373" y="1099.2222222222222"/>
      <point x="250.90404040404042" y="1082.5151515151515"/>
      <point x="162.77777777777777" y="1050.8080808080808" type="curve"/>
      <point x="162.77777777777777" y="946.9242424242424" type="line"/>
      <point x="265.6060606060606" y="982.459595959596"/>
      <point x="372.3636363636364" y="996.459595959596"/>
      <point x="454.9494949494949" y="996.459595959596" type="curve" smooth="yes"/>
      <point x="643.0454545454545" y="996.459595959596"/>
      <point x="742.6969696969696" y="940.5101010101009"/>
      <point x="742.6969696969696" y="730.3282828282828" type="curve" smooth="yes"/>
      <point x="742.6969696969696" y="230.54545454545456" type="line"/>
      <point x="660.0454545454545" y="123.48484848484853"/>
      <point x="550.0555555555555" y="81.63636363636368"/>
      <point x="445.21212121212125" y="81.63636363636368" type="curve" smooth="yes"/>
      <point x="297.2727272727273" y="81.63636363636368"/>
      <point x="222.71717171717177" y="151.89898989898992"/>
      <point x="222.71717171717177" y="284.27777777777777" type="curve" smooth="yes"/>
      <point x="222.71717171717177" y="409.56060606060606"/>
      <point x="298.1262626262627" y="478.7020202020202"/>
      <point x="482.72222222222223" y="499.0656565656566" type="curve" smooth="yes"/>
      <point x="793.9242424242424" y="533.8181818181818" type="line"/>
      <point x="784.3333333333334" y="622.8131313131313" type="line"/>
      <point x="477.54545454545456" y="588.0606060606061" type="line" smooth="yes"/>
      <point x="212.8989898989899" y="560.5252525252525"/>
      <point x="98.62626262626262" y="458.42424242424244"/>
      <point x="98.62626262626262" y="273.1515151515152" type="curve" smooth="yes"/>
      <point x="98.62626262626262" y="90.3939393939394"/>
      <point x="221.67676767676767" y="-16.87878787878788"/>
    </contour>
    <contour>
      <point x="221.23737373737373" y="1257.5555555555557" type="line"/>
      <point x="325.04545454545456" y="1257.5555555555557" type="line"/>
      <point x="514.8434343434344" y="1573.8636363636363" type="line"/>
      <point x="484.449494949495" y="1573.8636363636363" type="line"/>
      <point x="674.2474747474747" y="1257.5555555555557" type="line"/>
      <point x="778.0555555555557" y="1257.5555555555557" type="line"/>
      <point x="556.979797979798" y="1616.0" type="line"/>
      <point x="442.3131313131313" y="1616.0" type="line"/>
    </contour>
  </outline>
</glyph>
